{"glyphs":{"0":{"ha":694,"x_min":28,"x_max":667,"o":"m 347 -14 q 174 36 244 -14 q 65 172 103 86 q 28 368 28 258 q 65 564 28 478 q 174 700 103 650 q 347 750 244 750 q 521 700 450 750 q 629 564 592 650 q 667 368 667 478 q 629 172 667 258 q 521 36 592 86 q 347 -14 450 -14 m 347 85 q 533 162 463 85 q 603 368 603 239 q 533 574 603 497 q 347 651 463 651 q 162 574 232 651 q 92 368 92 497 q 162 162 92 239 q 347 85 232 85 z "},"1":{"ha":694,"x_min":122,"x_max":574,"o":"m 122 0 l 122 22 l 289 78 l 289 658 l 122 714 l 122 736 l 574 736 l 574 714 l 407 658 l 407 78 l 574 22 l 574 0 l 122 0 z "},"2":{"ha":694,"x_min":78,"x_max":617,"o":"m 82 0 l 82 35 q 256 199 185 132 q 369 315 326 265 q 430 407 411 364 q 449 501 449 450 q 413 605 449 558 q 303 651 378 651 q 194 619 236 651 q 125 522 153 586 l 78 544 q 196 699 122 647 q 350 750 269 750 q 523 688 464 750 q 582 531 582 625 q 552 415 582 468 q 471 313 522 363 q 353 211 419 264 q 214 93 286 158 l 525 93 l 594 228 l 617 228 l 603 0 l 82 0 z "},"3":{"ha":694,"x_min":64,"x_max":650,"o":"m 328 -193 q 173 -165 239 -193 q 75 -90 107 -136 q 64 -62 64 -75 q 89 -25 64 -44 l 136 10 l 150 10 l 163 -14 q 237 -103 194 -72 q 347 -133 279 -133 q 488 -81 438 -133 q 538 46 538 -29 q 465 217 538 151 q 236 282 392 282 l 217 342 l 221 342 q 392 390 326 342 q 457 515 457 439 q 420 615 457 578 q 310 651 383 651 q 201 619 243 651 q 132 522 158 586 l 85 544 q 208 699 129 647 q 367 750 286 750 q 528 699 465 750 q 592 561 592 647 q 544 438 592 492 q 421 357 496 385 q 594 256 538 328 q 650 89 650 183 q 608 -51 650 14 q 492 -154 565 -115 q 328 -193 419 -193 z "},"4":{"ha":694,"x_min":11,"x_max":676,"o":"m 393 -181 l 393 113 l 11 113 l 11 154 l 469 736 l 511 736 l 511 206 l 676 206 l 676 113 l 511 113 l 511 -181 l 393 -181 m 133 206 l 393 206 l 393 542 l 133 206 z "},"5":{"ha":694,"x_min":76,"x_max":631,"o":"m 269 -194 q 88 -131 132 -194 q 76 -103 76 -115 q 101 -65 76 -83 l 150 -28 l 164 -28 l 178 -51 q 234 -105 197 -83 q 326 -126 271 -126 q 470 -68 411 -126 q 529 90 529 -10 q 505 197 529 146 q 421 279 481 247 q 254 311 361 311 q 119 299 197 311 l 119 736 l 563 736 l 563 629 l 186 629 l 186 417 q 268 421 231 421 q 483 379 404 421 q 597 274 563 338 q 631 143 631 211 q 584 -37 631 39 q 456 -153 538 -112 q 269 -194 375 -194 z "},"6":{"ha":694,"x_min":51,"x_max":654,"o":"m 354 -14 q 195 31 264 -14 q 89 151 126 75 q 51 325 51 228 q 116 591 51 471 q 300 798 181 711 q 583 931 419 885 l 583 890 q 312 714 414 836 q 189 425 210 592 q 282 508 226 476 q 410 539 338 539 q 539 504 483 539 q 624 409 594 469 q 654 272 654 349 q 621 135 654 201 q 522 28 588 69 q 354 -14 456 -14 m 183 338 q 208 170 183 233 q 272 78 232 107 q 357 50 311 50 q 451 78 414 50 q 508 149 489 106 q 526 242 526 193 q 356 446 526 446 q 256 421 301 446 q 183 353 211 396 q 183 338 183 346 z "},"7":{"ha":694,"x_min":72,"x_max":642,"o":"m 115 -181 q 170 -54 144 -111 q 225 63 196 3 q 294 198 254 122 q 392 378 335 274 q 535 629 450 482 l 72 629 l 72 736 l 642 736 l 642 708 q 538 503 593 613 q 429 276 482 393 q 334 44 376 160 q 271 -181 292 -72 l 115 -181 z "},"8":{"ha":694,"x_min":57,"x_max":638,"o":"m 350 -14 q 206 13 272 -14 q 98 88 139 39 q 57 201 57 136 q 73 287 57 246 q 130 370 89 328 q 246 458 171 413 q 117 565 154 514 q 81 693 81 617 q 119 811 81 757 q 220 898 158 865 q 350 931 282 931 q 483 900 422 931 q 579 817 543 869 q 615 697 615 764 q 567 591 615 640 q 435 497 518 542 q 588 381 538 438 q 638 238 638 324 q 611 128 638 175 q 542 49 585 81 q 448 2 499 18 q 350 -14 397 -14 m 203 736 q 217 665 203 697 q 269 601 231 633 q 382 526 308 568 q 465 597 435 558 q 494 688 494 635 q 452 822 494 778 q 338 867 410 867 q 242 832 281 867 q 203 736 203 797 m 183 233 q 231 95 183 144 q 356 46 278 46 q 478 86 433 46 q 522 199 522 126 q 494 290 522 253 q 413 360 465 328 q 292 431 361 392 q 222 366 244 396 q 191 305 199 336 q 183 233 183 274 z "},"9":{"ha":694,"x_min":42,"x_max":644,"o":"m 113 -194 l 113 -154 q 384 22 282 -100 q 507 311 486 144 q 414 228 469 260 q 286 197 358 197 q 156 232 211 197 q 72 327 101 267 q 42 464 42 388 q 75 601 42 535 q 175 708 108 667 q 342 750 242 750 q 501 706 433 750 q 607 585 569 661 q 644 411 644 508 q 580 145 644 265 q 396 -62 515 25 q 113 -194 276 -149 m 169 494 q 340 290 169 290 q 440 315 394 290 q 513 383 485 340 q 513 399 513 390 q 488 566 513 503 q 425 658 464 629 q 339 686 386 686 q 245 658 283 686 q 188 587 207 631 q 169 494 169 543 z "},"\u0000":{"ha":0,"x_min":0,"x_max":0,"o":""}," ":{"ha":347,"x_min":0,"x_max":0,"o":""}," ":{"ha":694,"x_min":0,"x_max":0,"o":""}," ":{"ha":347,"x_min":0,"x_max":0,"o":""}," ":{"ha":174,"x_min":0,"x_max":0,"o":""}," ":{"ha":35,"x_min":0,"x_max":0,"o":""},"​":{"ha":0,"x_min":0,"x_max":0,"o":""},"A":{"ha":1042,"x_min":46,"x_max":996,"o":"m 46 0 l 46 22 l 135 68 l 490 924 l 553 924 l 903 72 l 996 22 l 996 0 l 651 0 l 651 22 l 774 69 l 669 326 l 332 326 l 229 69 l 346 22 l 346 0 l 46 0 m 364 403 l 639 403 l 501 744 l 364 403 z "},"B":{"ha":914,"x_min":90,"x_max":842,"o":"m 90 0 l 90 22 l 201 78 l 201 839 l 90 894 l 90 917 l 442 917 q 606 894 533 917 q 721 826 679 871 q 763 711 763 781 q 715 581 763 640 q 579 497 668 522 q 772 420 703 481 q 842 267 842 360 q 794 130 842 190 q 663 35 746 69 q 474 0 579 0 l 90 0 m 410 840 l 326 840 l 326 511 l 418 511 q 572 553 517 511 q 628 672 628 596 q 410 840 628 840 m 463 435 l 326 435 l 326 76 l 472 76 q 644 126 582 76 q 707 256 707 176 q 644 392 707 350 q 463 435 581 435 z "},"C":{"ha":1008,"x_min":97,"x_max":881,"o":"m 556 -14 q 311 44 414 -14 q 153 203 208 103 q 97 433 97 304 q 135 622 97 532 q 240 781 174 711 q 392 890 306 850 q 576 931 479 931 q 694 922 646 931 q 781 898 743 913 q 858 864 819 883 l 865 621 l 840 621 l 756 790 q 663 844 703 828 q 574 861 624 861 q 395 811 474 861 q 272 674 317 761 q 226 475 226 588 q 270 249 226 343 q 388 106 314 156 q 553 57 463 57 q 681 78 629 57 q 774 126 733 100 l 857 275 l 881 275 l 865 54 q 783 18 825 33 q 686 -6 740 3 q 556 -14 632 -14 z "},"D":{"ha":1076,"x_min":90,"x_max":979,"o":"m 90 0 l 90 22 l 201 78 l 201 839 l 90 894 l 90 917 l 497 917 q 758 863 650 917 q 923 714 867 808 q 979 500 979 619 q 942 300 979 392 q 839 142 906 208 q 683 38 772 75 q 488 0 593 0 l 90 0 m 465 840 l 326 840 l 326 76 l 486 76 q 678 123 597 76 q 803 255 760 169 q 847 457 847 340 q 803 659 847 572 q 673 793 758 746 q 465 840 588 840 z "},"E":{"ha":906,"x_min":90,"x_max":808,"o":"m 90 0 l 90 22 l 201 78 l 201 839 l 90 894 l 90 917 l 769 917 l 769 678 l 747 678 l 661 840 l 326 840 l 326 511 l 563 511 l 632 626 l 654 626 l 654 322 l 632 322 l 563 435 l 326 435 l 326 76 l 700 76 l 786 253 l 808 253 l 808 0 l 90 0 z "},"F":{"ha":853,"x_min":90,"x_max":756,"o":"m 90 0 l 90 22 l 201 78 l 201 839 l 90 894 l 90 917 l 756 917 l 756 678 l 733 678 l 647 840 l 326 840 l 326 511 l 549 511 l 618 626 l 640 626 l 640 322 l 618 322 l 549 435 l 326 435 l 326 78 l 451 22 l 451 0 l 90 0 z "},"G":{"ha":1067,"x_min":97,"x_max":997,"o":"m 560 -14 q 322 44 426 -14 q 157 203 217 103 q 97 433 97 304 q 135 631 97 540 q 242 788 174 721 q 400 893 311 856 q 592 931 489 931 q 715 922 664 931 q 807 899 767 914 q 888 864 847 883 l 894 635 l 872 635 l 782 790 q 683 846 724 831 q 589 861 642 861 q 399 815 482 861 q 268 687 315 768 q 221 503 221 606 q 272 267 221 364 q 408 118 322 169 q 600 67 494 67 q 688 72 646 67 q 776 96 731 78 l 776 325 l 653 381 l 653 403 l 997 403 l 997 381 l 901 321 l 901 103 q 744 18 838 50 q 560 -14 650 -14 z "},"H":{"ha":1125,"x_min":90,"x_max":1035,"o":"m 90 0 l 90 22 l 201 78 l 201 839 l 90 894 l 90 917 l 438 917 l 438 894 l 326 839 l 326 511 l 799 511 l 799 839 l 688 894 l 688 917 l 1035 917 l 1035 894 l 924 839 l 924 78 l 1035 22 l 1035 0 l 688 0 l 688 22 l 799 78 l 799 435 l 326 435 l 326 78 l 438 22 l 438 0 l 90 0 z "},"I":{"ha":542,"x_min":97,"x_max":444,"o":"m 97 0 l 97 22 l 208 78 l 208 839 l 97 894 l 97 917 l 444 917 l 444 894 l 333 839 l 333 78 l 444 22 l 444 0 l 97 0 z "},"J":{"ha":542,"x_min":18,"x_max":444,"o":"m 64 -240 q 32 -232 46 -240 q 18 -201 18 -224 q 20 -187 18 -199 q 32 -126 22 -176 l 40 -126 q 78 -136 64 -133 q 111 -139 92 -139 q 163 -125 142 -139 q 197 -67 185 -111 q 208 71 208 -22 l 208 839 l 97 894 l 97 917 l 444 917 l 444 894 l 333 839 l 333 333 q 308 53 333 178 q 224 -137 283 -71 q 158 -204 183 -182 q 113 -233 133 -226 q 64 -240 92 -240 z "},"K":{"ha":999,"x_min":90,"x_max":978,"o":"m 90 0 l 90 22 l 201 78 l 201 839 l 90 894 l 90 917 l 438 917 l 438 894 l 326 839 l 326 78 l 438 22 l 438 0 l 90 0 m 328 469 l 713 847 l 614 894 l 614 917 l 906 917 l 906 894 l 819 861 l 454 503 l 893 58 l 978 22 l 978 0 l 778 0 l 328 469 z "},"L":{"ha":878,"x_min":90,"x_max":781,"o":"m 90 0 l 90 22 l 201 78 l 201 839 l 90 894 l 90 917 l 451 917 l 451 894 l 326 839 l 326 76 l 664 76 l 758 308 l 781 308 l 781 0 l 90 0 z "},"M":{"ha":1332,"x_min":83,"x_max":1249,"o":"m 83 0 l 83 22 l 193 78 l 222 838 l 103 894 l 103 917 l 360 917 l 681 178 l 1000 917 l 1244 917 l 1244 894 l 1128 839 l 1151 78 l 1249 22 l 1249 0 l 929 0 l 929 22 l 1032 76 l 1018 761 l 686 -7 l 624 -7 l 297 751 l 279 76 l 392 22 l 392 0 l 83 0 z "},"N":{"ha":1110,"x_min":83,"x_max":1026,"o":"m 83 0 l 83 22 l 194 78 l 194 836 l 85 894 l 85 917 l 289 917 l 819 250 l 819 842 l 681 894 l 681 917 l 1026 917 l 1026 894 l 917 840 l 917 -7 l 865 -7 l 292 717 l 292 76 l 431 22 l 431 0 l 83 0 z "},"O":{"ha":1121,"x_min":97,"x_max":1024,"o":"m 560 -14 q 376 22 460 -14 q 229 120 292 57 q 132 269 167 183 q 97 458 97 356 q 132 647 97 561 q 229 797 167 733 q 376 895 292 860 q 560 931 460 931 q 744 895 660 931 q 892 797 829 860 q 989 647 954 733 q 1024 458 1024 561 q 989 269 1024 356 q 892 120 954 183 q 744 22 829 57 q 560 -14 660 -14 m 589 56 q 745 100 678 56 q 851 225 813 144 q 889 415 889 306 q 842 651 889 550 q 715 807 794 751 q 536 863 635 863 q 378 819 447 863 q 271 694 310 775 q 232 504 232 614 q 280 268 232 369 q 408 111 328 167 q 589 56 489 56 z "},"P":{"ha":886,"x_min":90,"x_max":814,"o":"m 90 0 l 90 22 l 201 78 l 201 839 l 90 894 l 90 917 l 451 917 q 715 857 615 917 q 814 668 814 797 q 762 533 814 592 q 620 439 710 474 q 418 404 531 404 l 326 404 l 326 78 l 451 22 l 451 0 l 90 0 m 326 840 l 326 481 l 444 481 q 617 530 554 481 q 679 657 679 579 q 616 797 679 754 q 435 840 553 840 l 326 840 z "},"Q":{"ha":1121,"x_min":97,"x_max":1121,"o":"m 947 -207 q 835 -193 893 -207 q 701 -137 776 -179 q 524 -12 626 -96 q 304 59 400 -4 q 153 225 208 122 q 97 458 97 328 q 132 647 97 561 q 229 797 167 733 q 376 895 292 860 q 560 931 460 931 q 744 895 660 931 q 892 797 829 860 q 989 647 954 733 q 1024 458 1024 561 q 982 253 1024 346 q 866 97 940 161 q 693 4 792 32 q 831 -93 772 -57 q 938 -144 889 -129 q 1032 -160 986 -160 q 1083 -156 1061 -160 q 1121 -147 1106 -153 l 1121 -169 q 1044 -197 1089 -186 q 947 -207 1000 -207 m 589 56 q 745 100 678 56 q 851 225 813 144 q 889 415 889 306 q 842 651 889 550 q 715 807 794 751 q 536 863 635 863 q 378 819 447 863 q 271 694 310 775 q 232 504 232 614 q 280 268 232 369 q 408 111 328 167 q 589 56 489 56 z "},"R":{"ha":918,"x_min":90,"x_max":925,"o":"m 90 0 l 90 22 l 201 78 l 201 839 l 90 894 l 90 917 l 449 917 q 678 856 594 917 q 763 690 763 796 q 710 551 763 613 q 569 457 657 489 l 833 72 l 925 22 l 925 0 l 725 0 l 456 421 l 326 421 l 326 79 l 431 22 l 431 0 l 90 0 m 417 840 l 326 840 l 326 497 l 425 497 q 570 547 513 497 q 628 672 628 596 q 571 795 628 750 q 417 840 514 840 z "},"S":{"ha":738,"x_min":83,"x_max":661,"o":"m 367 -14 q 221 2 281 -14 q 97 50 161 18 l 83 278 l 106 278 l 174 131 q 271 70 224 89 q 367 51 318 51 q 495 94 449 51 q 542 211 542 138 q 515 307 542 272 q 437 369 488 342 q 317 431 386 396 q 206 496 251 464 q 136 570 160 528 q 113 676 113 613 q 135 769 113 724 q 198 851 158 814 q 287 909 238 888 q 389 931 336 931 q 507 915 453 931 q 618 872 561 900 l 632 650 l 610 650 l 546 796 q 461 848 497 832 q 378 864 425 864 q 277 822 317 864 q 238 719 238 781 q 281 609 238 649 q 415 525 324 569 q 554 448 500 483 q 635 367 608 413 q 661 250 661 321 q 633 135 661 185 q 562 53 606 86 q 466 3 518 19 q 367 -14 414 -14 z "},"T":{"ha":936,"x_min":63,"x_max":874,"o":"m 267 0 l 267 22 l 406 78 l 406 840 l 179 840 l 85 636 l 63 636 l 63 917 l 874 917 l 874 636 l 851 636 l 757 840 l 531 840 l 531 78 l 669 22 l 669 0 l 267 0 z "},"U":{"ha":1124,"x_min":90,"x_max":1033,"o":"m 563 -14 q 377 25 458 -14 q 249 145 296 64 q 201 356 201 226 l 201 839 l 90 894 l 90 917 l 438 917 l 438 894 l 326 839 l 326 376 q 363 193 326 261 q 460 96 399 125 q 599 67 522 67 q 712 93 660 67 q 795 176 764 119 q 826 328 826 233 l 826 842 l 688 894 l 688 917 l 1033 917 l 1033 894 l 924 840 l 924 356 q 876 145 924 226 q 748 25 829 64 q 563 -14 667 -14 z "},"V":{"ha":1028,"x_min":49,"x_max":979,"o":"m 494 -7 l 144 846 l 49 894 l 49 917 l 396 917 l 396 894 l 276 843 l 276 836 l 536 200 l 543 200 l 801 842 l 801 847 l 688 894 l 688 917 l 979 917 l 979 894 l 900 853 l 543 -7 l 494 -7 z "},"W":{"ha":1363,"x_min":21,"x_max":1342,"o":"m 381 -7 l 125 844 l 21 894 l 21 917 l 374 917 l 374 894 l 256 843 l 429 242 l 436 242 l 676 924 l 728 924 l 974 242 l 982 242 l 1153 842 l 1035 894 l 1035 917 l 1342 917 l 1342 894 l 1249 843 l 990 -7 l 942 -7 l 689 674 l 682 674 l 429 -7 l 381 -7 z "},"X":{"ha":1028,"x_min":49,"x_max":979,"o":"m 49 0 l 49 22 l 150 74 l 444 457 l 157 846 l 69 894 l 69 917 l 417 917 l 417 894 l 306 843 l 306 836 l 528 543 l 758 838 l 758 843 l 653 894 l 653 917 l 944 917 l 944 894 l 857 843 l 575 481 l 882 76 l 979 22 l 979 0 l 625 0 l 625 22 l 726 72 l 726 78 l 490 396 l 249 78 l 249 72 l 361 22 l 361 0 l 49 0 z "},"Y":{"ha":997,"x_min":49,"x_max":949,"o":"m 317 0 l 317 22 l 442 78 l 442 428 l 133 849 l 49 894 l 49 917 l 385 917 l 385 894 l 283 846 l 283 840 l 532 503 l 756 839 l 756 844 l 654 894 l 654 917 l 949 917 l 949 894 l 860 849 l 567 429 l 567 78 l 692 22 l 692 0 l 317 0 z "},"Z":{"ha":897,"x_min":125,"x_max":772,"o":"m 125 0 l 125 35 l 599 840 l 250 840 l 164 664 l 142 664 l 142 917 l 757 917 l 757 882 l 282 76 l 664 76 l 750 267 l 772 267 l 772 0 l 125 0 z "},"À":{"ha":1042,"x_min":46,"x_max":996,"o":"m 46 0 l 46 22 l 135 68 l 490 924 l 553 924 l 903 72 l 996 22 l 996 0 l 651 0 l 651 22 l 774 69 l 669 326 l 332 326 l 229 69 l 346 22 l 346 0 l 46 0 m 364 403 l 639 403 l 501 744 l 364 403 m 514 986 l 340 1110 q 302 1154 310 1132 q 294 1197 294 1176 l 408 1197 l 529 986 l 514 986 z "},"Á":{"ha":1042,"x_min":46,"x_max":996,"o":"m 46 0 l 46 22 l 135 68 l 490 924 l 553 924 l 903 72 l 996 22 l 996 0 l 651 0 l 651 22 l 774 69 l 669 326 l 332 326 l 229 69 l 346 22 l 346 0 l 46 0 m 364 403 l 639 403 l 501 744 l 364 403 m 515 986 l 636 1197 l 750 1197 q 742 1154 750 1176 q 704 1110 735 1132 l 531 986 l 515 986 z "},"Â":{"ha":1042,"x_min":46,"x_max":996,"o":"m 46 0 l 46 22 l 135 68 l 490 924 l 553 924 l 903 72 l 996 22 l 996 0 l 651 0 l 651 22 l 774 69 l 669 326 l 332 326 l 229 69 l 346 22 l 346 0 l 46 0 m 364 403 l 639 403 l 501 744 l 364 403 m 318 986 l 501 1197 l 543 1197 l 726 986 l 711 986 l 522 1090 l 333 986 l 318 986 z "},"Ã":{"ha":1042,"x_min":46,"x_max":996,"o":"m 46 0 l 46 22 l 135 68 l 490 924 l 553 924 l 903 72 l 996 22 l 996 0 l 651 0 l 651 22 l 774 69 l 669 326 l 332 326 l 229 69 l 346 22 l 346 0 l 46 0 m 364 403 l 639 403 l 501 744 l 364 403 m 311 1008 q 353 1112 333 1078 q 395 1156 374 1146 q 443 1167 417 1167 q 510 1149 479 1167 q 569 1113 540 1131 q 629 1094 597 1094 q 676 1108 656 1094 q 715 1167 697 1122 l 733 1167 q 691 1063 711 1097 q 649 1019 671 1029 q 601 1008 628 1008 q 535 1026 565 1008 q 476 1063 504 1044 q 415 1081 447 1081 q 368 1067 389 1081 q 329 1008 347 1053 l 311 1008 z "},"Ä":{"ha":1042,"x_min":46,"x_max":996,"o":"m 46 0 l 46 22 l 135 68 l 490 924 l 553 924 l 903 72 l 996 22 l 996 0 l 651 0 l 651 22 l 774 69 l 669 326 l 332 326 l 229 69 l 346 22 l 346 0 l 46 0 m 364 403 l 639 403 l 501 744 l 364 403 m 394 1024 q 346 1043 365 1024 q 326 1092 326 1063 q 346 1140 326 1121 q 394 1160 365 1160 q 443 1140 424 1160 q 463 1092 463 1121 q 443 1043 463 1063 q 394 1024 424 1024 m 650 1024 q 601 1043 621 1024 q 582 1092 582 1063 q 601 1140 582 1121 q 650 1160 621 1160 q 699 1140 679 1160 q 718 1092 718 1121 q 699 1043 718 1063 q 650 1024 679 1024 z "},"Ā":{"ha":1042,"x_min":46,"x_max":996,"o":"m 46 0 l 46 22 l 135 68 l 490 924 l 553 924 l 903 72 l 996 22 l 996 0 l 651 0 l 651 22 l 774 69 l 669 326 l 332 326 l 229 69 l 346 22 l 346 0 l 46 0 m 364 403 l 639 403 l 501 744 l 364 403 m 338 1061 l 338 1131 l 707 1131 l 707 1061 l 338 1061 z "},"Ă":{"ha":1042,"x_min":46,"x_max":996,"o":"m 46 0 l 46 22 l 135 68 l 490 924 l 553 924 l 903 72 l 996 22 l 996 0 l 651 0 l 651 22 l 774 69 l 669 326 l 332 326 l 229 69 l 346 22 l 346 0 l 46 0 m 364 403 l 639 403 l 501 744 l 364 403 m 522 986 q 388 1043 433 986 q 319 1197 343 1100 l 335 1197 q 385 1122 361 1147 q 442 1088 410 1097 q 522 1079 475 1079 q 601 1088 569 1079 q 658 1122 633 1097 q 710 1197 683 1147 l 725 1197 q 656 1043 700 1100 q 522 986 611 986 z "},"Å":{"ha":1042,"x_min":46,"x_max":996,"o":"m 46 0 l 46 22 l 135 68 l 490 924 l 553 924 l 903 72 l 996 22 l 996 0 l 651 0 l 651 22 l 774 69 l 669 326 l 332 326 l 229 69 l 346 22 l 346 0 l 46 0 m 364 403 l 639 403 l 501 744 l 364 403 m 522 986 q 436 1019 469 986 q 403 1101 403 1051 q 436 1183 403 1150 q 522 1217 469 1217 q 609 1183 576 1217 q 642 1101 642 1150 q 609 1019 642 1051 q 522 986 576 986 m 529 1019 q 575 1092 575 1019 q 517 1183 575 1183 q 483 1167 494 1183 q 472 1111 472 1150 q 529 1019 472 1019 z "},"Ǻ":{"ha":1042,"x_min":46,"x_max":996,"o":"m 46 0 l 46 22 l 135 68 l 490 924 l 553 924 l 903 72 l 996 22 l 996 0 l 651 0 l 651 22 l 774 69 l 669 326 l 332 326 l 229 69 l 346 22 l 346 0 l 46 0 m 364 403 l 639 403 l 501 744 l 364 403 m 522 986 q 436 1019 469 986 q 403 1101 403 1051 q 436 1183 403 1150 q 522 1217 469 1217 q 609 1183 576 1217 q 642 1101 642 1150 q 609 1019 642 1051 q 522 986 576 986 m 529 1019 q 575 1092 575 1019 q 517 1183 575 1183 q 483 1167 494 1183 q 472 1111 472 1150 q 529 1019 472 1019 m 515 1257 l 636 1468 l 750 1468 q 742 1425 750 1447 q 704 1381 735 1403 l 531 1257 l 515 1257 z "},"Ạ":{"ha":1042,"x_min":46,"x_max":996,"o":"m 46 0 l 46 22 l 135 68 l 490 924 l 553 924 l 903 72 l 996 22 l 996 0 l 651 0 l 651 22 l 774 69 l 669 326 l 332 326 l 229 69 l 346 22 l 346 0 l 46 0 m 364 403 l 639 403 l 501 744 l 364 403 z "},"Ą":{"ha":1042,"x_min":46,"x_max":996,"o":"m 793 -181 q 817 -249 793 -228 q 883 -271 840 -271 q 916 -267 899 -271 q 953 -254 933 -264 l 957 -254 l 957 -271 q 909 -317 939 -300 q 839 -333 879 -333 q 740 -300 778 -333 q 701 -211 701 -267 q 735 -111 701 -161 q 821 0 768 -61 l 651 0 l 651 22 l 774 69 l 669 326 l 332 326 l 229 69 l 346 22 l 346 0 l 46 0 l 46 22 l 135 68 l 490 924 l 553 924 l 903 72 l 996 22 l 996 0 l 857 0 q 808 -97 824 -53 q 793 -181 793 -140 m 364 403 l 639 403 l 501 744 l 364 403 z "},"Ȁ":{"ha":1042,"x_min":46,"x_max":996,"o":"m 46 0 l 46 22 l 135 68 l 490 924 l 553 924 l 903 72 l 996 22 l 996 0 l 651 0 l 651 22 l 774 69 l 669 326 l 332 326 l 229 69 l 346 22 l 346 0 l 46 0 m 364 403 l 639 403 l 501 744 l 364 403 m 433 986 l 290 1110 q 267 1153 268 1129 q 274 1197 267 1176 l 361 1197 l 449 986 l 433 986 m 593 986 l 464 1110 q 441 1154 442 1132 q 447 1197 440 1176 l 535 1197 l 608 986 l 593 986 z "},"Ȃ":{"ha":1042,"x_min":46,"x_max":996,"o":"m 46 0 l 46 22 l 135 68 l 490 924 l 553 924 l 903 72 l 996 22 l 996 0 l 651 0 l 651 22 l 774 69 l 669 326 l 332 326 l 229 69 l 346 22 l 346 0 l 46 0 m 364 403 l 639 403 l 501 744 l 364 403 m 319 986 q 389 1140 344 1083 q 522 1197 433 1197 q 656 1140 611 1197 q 725 986 701 1083 l 710 986 q 659 1061 683 1036 q 602 1095 635 1086 q 522 1104 569 1104 q 443 1095 475 1104 q 386 1061 411 1086 q 335 986 361 1036 l 319 986 z "},"Ắ":{"ha":1042,"x_min":46,"x_max":996,"o":"m 46 0 l 46 22 l 135 68 l 490 924 l 553 924 l 903 72 l 996 22 l 996 0 l 651 0 l 651 22 l 774 69 l 669 326 l 332 326 l 229 69 l 346 22 l 346 0 l 46 0 m 364 403 l 639 403 l 501 744 l 364 403 z "},"Ặ":{"ha":1042,"x_min":46,"x_max":996,"o":"m 46 0 l 46 22 l 135 68 l 490 924 l 553 924 l 903 72 l 996 22 l 996 0 l 651 0 l 651 22 l 774 69 l 669 326 l 332 326 l 229 69 l 346 22 l 346 0 l 46 0 m 364 403 l 639 403 l 501 744 l 364 403 m 522 986 q 388 1043 433 986 q 319 1197 343 1100 l 335 1197 q 385 1122 361 1147 q 442 1088 410 1097 q 522 1079 475 1079 q 601 1088 569 1079 q 658 1122 633 1097 q 710 1197 683 1147 l 725 1197 q 656 1043 700 1100 q 522 986 611 986 z "},"Ằ":{"ha":1042,"x_min":46,"x_max":996,"o":"m 46 0 l 46 22 l 135 68 l 490 924 l 553 924 l 903 72 l 996 22 l 996 0 l 651 0 l 651 22 l 774 69 l 669 326 l 332 326 l 229 69 l 346 22 l 346 0 l 46 0 m 364 403 l 639 403 l 501 744 l 364 403 z "},"Ẳ":{"ha":1042,"x_min":46,"x_max":996,"o":"m 46 0 l 46 22 l 135 68 l 490 924 l 553 924 l 903 72 l 996 22 l 996 0 l 651 0 l 651 22 l 774 69 l 669 326 l 332 326 l 229 69 l 346 22 l 346 0 l 46 0 m 364 403 l 639 403 l 501 744 l 364 403 z "},"Ẵ":{"ha":1042,"x_min":46,"x_max":996,"o":"m 46 0 l 46 22 l 135 68 l 490 924 l 553 924 l 903 72 l 996 22 l 996 0 l 651 0 l 651 22 l 774 69 l 669 326 l 332 326 l 229 69 l 346 22 l 346 0 l 46 0 m 364 403 l 639 403 l 501 744 l 364 403 z "},"Ấ":{"ha":1042,"x_min":46,"x_max":996,"o":"m 46 0 l 46 22 l 135 68 l 490 924 l 553 924 l 903 72 l 996 22 l 996 0 l 651 0 l 651 22 l 774 69 l 669 326 l 332 326 l 229 69 l 346 22 l 346 0 l 46 0 m 364 403 l 639 403 l 501 744 l 364 403 m 672 1118 l 729 1317 l 836 1317 q 804 1251 836 1288 l 683 1118 l 672 1118 m 318 986 l 501 1197 l 543 1197 l 726 986 l 711 986 l 522 1090 l 333 986 l 318 986 z "},"Ậ":{"ha":1042,"x_min":46,"x_max":996,"o":"m 46 0 l 46 22 l 135 68 l 490 924 l 553 924 l 903 72 l 996 22 l 996 0 l 651 0 l 651 22 l 774 69 l 669 326 l 332 326 l 229 69 l 346 22 l 346 0 l 46 0 m 364 403 l 639 403 l 501 744 l 364 403 m 318 986 l 501 1197 l 543 1197 l 726 986 l 711 986 l 522 1090 l 333 986 l 318 986 z "},"Ầ":{"ha":1042,"x_min":46,"x_max":996,"o":"m 46 0 l 46 22 l 135 68 l 490 924 l 553 924 l 903 72 l 996 22 l 996 0 l 651 0 l 651 22 l 774 69 l 669 326 l 332 326 l 229 69 l 346 22 l 346 0 l 46 0 m 364 403 l 639 403 l 501 744 l 364 403 m 361 1118 l 240 1251 q 215 1286 222 1271 q 208 1317 208 1301 l 315 1317 l 372 1118 l 361 1118 m 318 986 l 501 1197 l 543 1197 l 726 986 l 711 986 l 522 1090 l 333 986 l 318 986 z "},"Ẩ":{"ha":1042,"x_min":46,"x_max":996,"o":"m 46 0 l 46 22 l 135 68 l 490 924 l 553 924 l 903 72 l 996 22 l 996 0 l 651 0 l 651 22 l 774 69 l 669 326 l 332 326 l 229 69 l 346 22 l 346 0 l 46 0 m 364 403 l 639 403 l 501 744 l 364 403 z "},"Ẫ":{"ha":1042,"x_min":46,"x_max":996,"o":"m 46 0 l 46 22 l 135 68 l 490 924 l 553 924 l 903 72 l 996 22 l 996 0 l 651 0 l 651 22 l 774 69 l 669 326 l 332 326 l 229 69 l 346 22 l 346 0 l 46 0 m 364 403 l 639 403 l 501 744 l 364 403 z "},"Ả":{"ha":1042,"x_min":46,"x_max":996,"o":"m 46 0 l 46 22 l 135 68 l 490 924 l 553 924 l 903 72 l 996 22 l 996 0 l 651 0 l 651 22 l 774 69 l 669 326 l 332 326 l 229 69 l 346 22 l 346 0 l 46 0 m 364 403 l 639 403 l 501 744 l 364 403 m 457 985 l 457 986 q 528 1020 503 1003 q 553 1071 553 1038 q 528 1111 553 1094 q 444 1138 504 1128 l 460 1215 q 592 1173 554 1207 q 629 1103 629 1139 q 467 975 629 996 l 457 985 z "},"Æ":{"ha":1364,"x_min":39,"x_max":1267,"o":"m 644 917 l 1228 917 l 1228 678 l 1206 678 l 1119 840 l 785 840 l 785 511 l 1021 511 l 1090 626 l 1113 626 l 1113 322 l 1090 322 l 1021 435 l 785 435 l 785 76 l 1158 76 l 1244 253 l 1267 253 l 1267 0 l 549 0 l 549 22 l 660 78 l 660 326 l 378 326 l 226 69 l 338 22 l 338 0 l 39 0 l 39 22 l 128 68 l 644 917 m 424 403 l 660 403 l 660 803 l 424 403 z "},"Ǽ":{"ha":1364,"x_min":39,"x_max":1267,"o":"m 644 917 l 1228 917 l 1228 678 l 1206 678 l 1119 840 l 785 840 l 785 511 l 1021 511 l 1090 626 l 1113 626 l 1113 322 l 1090 322 l 1021 435 l 785 435 l 785 76 l 1158 76 l 1244 253 l 1267 253 l 1267 0 l 549 0 l 549 22 l 660 78 l 660 326 l 378 326 l 226 69 l 338 22 l 338 0 l 39 0 l 39 22 l 128 68 l 644 917 m 424 403 l 660 403 l 660 803 l 424 403 m 736 986 l 857 1197 l 971 1197 q 963 1154 971 1176 q 925 1110 956 1132 l 751 986 l 736 986 z "},"Ć":{"ha":1008,"x_min":97,"x_max":881,"o":"m 556 -14 q 311 44 414 -14 q 153 203 208 103 q 97 433 97 304 q 135 622 97 532 q 240 781 174 711 q 392 890 306 850 q 576 931 479 931 q 694 922 646 931 q 781 898 743 913 q 858 864 819 883 l 865 621 l 840 621 l 756 790 q 663 844 703 828 q 574 861 624 861 q 395 811 474 861 q 272 674 317 761 q 226 475 226 588 q 270 249 226 343 q 388 106 314 156 q 553 57 463 57 q 681 78 629 57 q 774 126 733 100 l 857 275 l 881 275 l 865 54 q 783 18 825 33 q 686 -6 740 3 q 556 -14 632 -14 m 533 986 l 654 1197 l 768 1197 q 760 1154 768 1176 q 722 1110 753 1132 l 549 986 l 533 986 z "},"Ĉ":{"ha":1008,"x_min":97,"x_max":881,"o":"m 556 -14 q 311 44 414 -14 q 153 203 208 103 q 97 433 97 304 q 135 622 97 532 q 240 781 174 711 q 392 890 306 850 q 576 931 479 931 q 694 922 646 931 q 781 898 743 913 q 858 864 819 883 l 865 621 l 840 621 l 756 790 q 663 844 703 828 q 574 861 624 861 q 395 811 474 861 q 272 674 317 761 q 226 475 226 588 q 270 249 226 343 q 388 106 314 156 q 553 57 463 57 q 681 78 629 57 q 774 126 733 100 l 857 275 l 881 275 l 865 54 q 783 18 825 33 q 686 -6 740 3 q 556 -14 632 -14 m 336 986 l 519 1197 l 561 1197 l 744 986 l 729 986 l 540 1090 l 351 986 l 336 986 z "},"Č":{"ha":1008,"x_min":97,"x_max":881,"o":"m 556 -14 q 311 44 414 -14 q 153 203 208 103 q 97 433 97 304 q 135 622 97 532 q 240 781 174 711 q 392 890 306 850 q 576 931 479 931 q 694 922 646 931 q 781 898 743 913 q 858 864 819 883 l 865 621 l 840 621 l 756 790 q 663 844 703 828 q 574 861 624 861 q 395 811 474 861 q 272 674 317 761 q 226 475 226 588 q 270 249 226 343 q 388 106 314 156 q 553 57 463 57 q 681 78 629 57 q 774 126 733 100 l 857 275 l 881 275 l 865 54 q 783 18 825 33 q 686 -6 740 3 q 556 -14 632 -14 m 519 986 l 336 1197 l 351 1197 l 540 1093 l 729 1197 l 744 1197 l 561 986 l 519 986 z "},"Ċ":{"ha":1008,"x_min":97,"x_max":881,"o":"m 556 -14 q 311 44 414 -14 q 153 203 208 103 q 97 433 97 304 q 135 622 97 532 q 240 781 174 711 q 392 890 306 850 q 576 931 479 931 q 694 922 646 931 q 781 898 743 913 q 858 864 819 883 l 865 621 l 840 621 l 756 790 q 663 844 703 828 q 574 861 624 861 q 395 811 474 861 q 272 674 317 761 q 226 475 226 588 q 270 249 226 343 q 388 106 314 156 q 553 57 463 57 q 681 78 629 57 q 774 126 733 100 l 857 275 l 881 275 l 865 54 q 783 18 825 33 q 686 -6 740 3 q 556 -14 632 -14 m 540 1008 q 481 1033 506 1008 q 457 1092 457 1057 q 481 1151 457 1126 q 540 1175 506 1175 q 599 1151 575 1175 q 624 1092 624 1126 q 599 1033 624 1057 q 540 1008 575 1008 z "},"Ç":{"ha":1008,"x_min":97,"x_max":881,"o":"m 532 -292 q 590 -276 574 -292 q 607 -237 607 -260 q 578 -188 607 -207 q 467 -143 549 -169 l 526 -14 q 297 52 393 -7 q 149 210 200 111 q 97 433 97 308 q 135 622 97 532 q 240 781 174 711 q 392 890 306 850 q 576 931 479 931 q 694 922 646 931 q 781 898 743 913 q 858 864 819 883 l 865 621 l 840 621 l 756 790 q 663 844 703 828 q 574 861 624 861 q 395 811 474 861 q 272 674 317 761 q 226 475 226 588 q 270 249 226 343 q 388 106 314 156 q 553 57 463 57 q 681 78 629 57 q 774 126 733 100 l 857 275 l 881 275 l 865 54 q 786 20 826 35 q 696 -3 746 6 q 575 -14 646 -12 l 547 -76 q 658 -131 626 -101 q 690 -215 690 -160 q 656 -299 690 -265 q 556 -333 621 -333 q 440 -292 476 -333 l 440 -275 l 444 -275 q 484 -287 464 -283 q 532 -292 504 -292 z "},"Ḉ":{"ha":1008,"x_min":97,"x_max":881,"o":"m 533 986 l 654 1197 l 768 1197 q 760 1154 768 1176 q 722 1110 753 1132 l 549 986 l 533 986 m 556 -333 q 440 -292 476 -333 l 440 -275 l 444 -275 q 484 -287 464 -283 q 532 -292 504 -292 q 590 -276 574 -292 q 607 -237 607 -260 q 578 -188 607 -207 q 467 -143 549 -169 l 526 -14 q 297 52 393 -7 q 149 210 200 111 q 97 433 97 308 q 135 622 97 532 q 240 781 174 711 q 392 890 306 850 q 576 931 479 931 q 694 922 646 931 q 781 898 743 913 q 858 864 819 883 l 865 621 l 840 621 l 756 790 q 663 844 703 828 q 574 861 624 861 q 395 811 474 861 q 272 674 317 761 q 226 475 226 588 q 270 249 226 343 q 388 106 314 156 q 553 57 463 57 q 681 78 629 57 q 774 126 733 100 l 857 275 l 881 275 l 865 54 q 786 20 826 35 q 696 -3 746 6 q 575 -14 646 -12 l 547 -76 q 658 -131 626 -101 q 690 -215 690 -160 q 656 -299 690 -265 q 556 -333 621 -333 z "},"Ď":{"ha":1076,"x_min":90,"x_max":979,"o":"m 90 0 l 90 22 l 201 78 l 201 839 l 90 894 l 90 917 l 497 917 q 758 863 650 917 q 923 714 867 808 q 979 500 979 619 q 942 300 979 392 q 839 142 906 208 q 683 38 772 75 q 488 0 593 0 l 90 0 m 465 840 l 326 840 l 326 76 l 486 76 q 678 123 597 76 q 803 255 760 169 q 847 457 847 340 q 803 659 847 572 q 673 793 758 746 q 465 840 588 840 m 518 986 l 335 1197 l 350 1197 l 539 1093 l 728 1197 l 743 1197 l 560 986 l 518 986 z "},"Đ":{"ha":1076,"x_min":90,"x_max":979,"o":"m 90 0 l 90 22 l 201 78 l 201 440 l 90 440 l 90 510 l 201 510 l 201 839 l 90 894 l 90 917 l 497 917 q 758 863 650 917 q 923 714 867 808 q 979 500 979 619 q 942 300 979 392 q 839 142 906 208 q 683 38 772 75 q 488 0 593 0 l 90 0 m 569 440 l 326 440 l 326 76 l 486 76 q 678 123 597 76 q 803 255 760 169 q 847 457 847 340 q 803 659 847 572 q 673 793 758 746 q 465 840 588 840 l 326 840 l 326 510 l 569 510 l 569 440 z "},"Ḍ":{"ha":1076,"x_min":90,"x_max":979,"o":"m 90 0 l 90 22 l 201 78 l 201 839 l 90 894 l 90 917 l 497 917 q 758 863 650 917 q 923 714 867 808 q 979 500 979 619 q 942 300 979 392 q 839 142 906 208 q 683 38 772 75 q 488 0 593 0 l 90 0 m 465 840 l 326 840 l 326 76 l 486 76 q 678 123 597 76 q 803 255 760 169 q 847 457 847 340 q 803 659 847 572 q 673 793 758 746 q 465 840 588 840 z "},"Ḏ":{"ha":1076,"x_min":90,"x_max":979,"o":"m 90 0 l 90 22 l 201 78 l 201 839 l 90 894 l 90 917 l 497 917 q 758 863 650 917 q 923 714 867 808 q 979 500 979 619 q 942 300 979 392 q 839 142 906 208 q 683 38 772 75 q 488 0 593 0 l 90 0 m 465 840 l 326 840 l 326 76 l 486 76 q 678 123 597 76 q 803 255 760 169 q 847 457 847 340 q 803 659 847 572 q 673 793 758 746 q 465 840 588 840 z "},"È":{"ha":906,"x_min":90,"x_max":808,"o":"m 90 0 l 90 22 l 201 78 l 201 839 l 90 894 l 90 917 l 769 917 l 769 678 l 747 678 l 661 840 l 326 840 l 326 511 l 563 511 l 632 626 l 654 626 l 654 322 l 632 322 l 563 435 l 326 435 l 326 76 l 700 76 l 786 253 l 808 253 l 808 0 l 90 0 m 457 986 l 283 1110 q 245 1154 253 1132 q 238 1197 238 1176 l 351 1197 l 472 986 l 457 986 z "},"É":{"ha":906,"x_min":90,"x_max":808,"o":"m 90 0 l 90 22 l 201 78 l 201 839 l 90 894 l 90 917 l 769 917 l 769 678 l 747 678 l 661 840 l 326 840 l 326 511 l 563 511 l 632 626 l 654 626 l 654 322 l 632 322 l 563 435 l 326 435 l 326 76 l 700 76 l 786 253 l 808 253 l 808 0 l 90 0 m 458 986 l 579 1197 l 693 1197 q 685 1154 693 1176 q 647 1110 678 1132 l 474 986 l 458 986 z "},"Ê":{"ha":906,"x_min":90,"x_max":808,"o":"m 90 0 l 90 22 l 201 78 l 201 839 l 90 894 l 90 917 l 769 917 l 769 678 l 747 678 l 661 840 l 326 840 l 326 511 l 563 511 l 632 626 l 654 626 l 654 322 l 632 322 l 563 435 l 326 435 l 326 76 l 700 76 l 786 253 l 808 253 l 808 0 l 90 0 m 261 986 l 444 1197 l 486 1197 l 669 986 l 654 986 l 465 1090 l 276 986 l 261 986 z "},"Ě":{"ha":906,"x_min":90,"x_max":808,"o":"m 90 0 l 90 22 l 201 78 l 201 839 l 90 894 l 90 917 l 769 917 l 769 678 l 747 678 l 661 840 l 326 840 l 326 511 l 563 511 l 632 626 l 654 626 l 654 322 l 632 322 l 563 435 l 326 435 l 326 76 l 700 76 l 786 253 l 808 253 l 808 0 l 90 0 m 444 986 l 261 1197 l 276 1197 l 465 1093 l 654 1197 l 669 1197 l 486 986 l 444 986 z "},"Ẽ":{"ha":906,"x_min":90,"x_max":808,"o":"m 90 0 l 90 22 l 201 78 l 201 839 l 90 894 l 90 917 l 769 917 l 769 678 l 747 678 l 661 840 l 326 840 l 326 511 l 563 511 l 632 626 l 654 626 l 654 322 l 632 322 l 563 435 l 326 435 l 326 76 l 700 76 l 786 253 l 808 253 l 808 0 l 90 0 m 254 1008 q 297 1112 276 1078 q 338 1156 317 1146 q 386 1167 360 1167 q 453 1149 422 1167 q 512 1113 483 1131 q 572 1094 540 1094 q 619 1108 599 1094 q 658 1167 640 1122 l 676 1167 q 634 1063 654 1097 q 592 1019 614 1029 q 544 1008 571 1008 q 478 1026 508 1008 q 419 1063 447 1044 q 358 1081 390 1081 q 311 1067 332 1081 q 272 1008 290 1053 l 254 1008 z "},"Ë":{"ha":906,"x_min":90,"x_max":808,"o":"m 90 0 l 90 22 l 201 78 l 201 839 l 90 894 l 90 917 l 769 917 l 769 678 l 747 678 l 661 840 l 326 840 l 326 511 l 563 511 l 632 626 l 654 626 l 654 322 l 632 322 l 563 435 l 326 435 l 326 76 l 700 76 l 786 253 l 808 253 l 808 0 l 90 0 m 338 1024 q 289 1043 308 1024 q 269 1092 269 1063 q 289 1140 269 1121 q 338 1160 308 1160 q 386 1140 367 1160 q 406 1092 406 1121 q 386 1043 406 1063 q 338 1024 367 1024 m 593 1024 q 544 1043 564 1024 q 525 1092 525 1063 q 544 1140 525 1121 q 593 1160 564 1160 q 642 1140 622 1160 q 661 1092 661 1121 q 642 1043 661 1063 q 593 1024 622 1024 z "},"Ē":{"ha":906,"x_min":90,"x_max":808,"o":"m 90 0 l 90 22 l 201 78 l 201 839 l 90 894 l 90 917 l 769 917 l 769 678 l 747 678 l 661 840 l 326 840 l 326 511 l 563 511 l 632 626 l 654 626 l 654 322 l 632 322 l 563 435 l 326 435 l 326 76 l 700 76 l 786 253 l 808 253 l 808 0 l 90 0 m 281 1061 l 281 1131 l 650 1131 l 650 1061 l 281 1061 z "},"Ĕ":{"ha":906,"x_min":90,"x_max":808,"o":"m 90 0 l 90 22 l 201 78 l 201 839 l 90 894 l 90 917 l 769 917 l 769 678 l 747 678 l 661 840 l 326 840 l 326 511 l 563 511 l 632 626 l 654 626 l 654 322 l 632 322 l 563 435 l 326 435 l 326 76 l 700 76 l 786 253 l 808 253 l 808 0 l 90 0 m 465 986 q 331 1043 376 986 q 263 1197 286 1100 l 278 1197 q 328 1122 304 1147 q 385 1088 353 1097 q 465 1079 418 1079 q 544 1088 513 1079 q 601 1122 576 1097 q 653 1197 626 1147 l 668 1197 q 599 1043 643 1100 q 465 986 554 986 z "},"Ė":{"ha":906,"x_min":90,"x_max":808,"o":"m 90 0 l 90 22 l 201 78 l 201 839 l 90 894 l 90 917 l 769 917 l 769 678 l 747 678 l 661 840 l 326 840 l 326 511 l 563 511 l 632 626 l 654 626 l 654 322 l 632 322 l 563 435 l 326 435 l 326 76 l 700 76 l 786 253 l 808 253 l 808 0 l 90 0 m 465 1008 q 406 1033 431 1008 q 382 1092 382 1057 q 406 1151 382 1126 q 465 1175 431 1175 q 524 1151 500 1175 q 549 1092 549 1126 q 524 1033 549 1057 q 465 1008 500 1008 z "},"Ę":{"ha":906,"x_min":90,"x_max":808,"o":"m 90 0 l 90 22 l 201 78 l 201 839 l 90 894 l 90 917 l 769 917 l 769 678 l 747 678 l 661 840 l 326 840 l 326 511 l 563 511 l 632 626 l 654 626 l 654 322 l 632 322 l 563 435 l 326 435 l 326 76 l 700 76 l 786 253 l 808 253 l 808 0 l 706 0 q 657 -97 672 -53 q 642 -181 642 -140 q 665 -249 642 -228 q 732 -271 689 -271 q 765 -267 747 -271 q 801 -254 783 -264 l 806 -254 l 806 -271 q 757 -317 786 -300 q 688 -333 728 -333 q 589 -300 628 -333 q 550 -211 550 -267 q 583 -111 550 -161 q 669 0 617 -61 l 90 0 z "},"Ẹ":{"ha":906,"x_min":90,"x_max":808,"o":"m 90 0 l 90 22 l 201 78 l 201 839 l 90 894 l 90 917 l 769 917 l 769 678 l 747 678 l 661 840 l 326 840 l 326 511 l 563 511 l 632 626 l 654 626 l 654 322 l 632 322 l 563 435 l 326 435 l 326 76 l 700 76 l 786 253 l 808 253 l 808 0 l 90 0 z "},"Ȅ":{"ha":906,"x_min":90,"x_max":808,"o":"m 90 0 l 90 22 l 201 78 l 201 839 l 90 894 l 90 917 l 769 917 l 769 678 l 747 678 l 661 840 l 326 840 l 326 511 l 563 511 l 632 626 l 654 626 l 654 322 l 632 322 l 563 435 l 326 435 l 326 76 l 700 76 l 786 253 l 808 253 l 808 0 l 90 0 m 376 986 l 233 1110 q 210 1153 211 1129 q 217 1197 210 1176 l 304 1197 l 392 986 l 376 986 m 536 986 l 407 1110 q 384 1154 385 1132 q 390 1197 383 1176 l 478 1197 l 551 986 l 536 986 z "},"Ȇ":{"ha":906,"x_min":90,"x_max":808,"o":"m 90 0 l 90 22 l 201 78 l 201 839 l 90 894 l 90 917 l 769 917 l 769 678 l 747 678 l 661 840 l 326 840 l 326 511 l 563 511 l 632 626 l 654 626 l 654 322 l 632 322 l 563 435 l 326 435 l 326 76 l 700 76 l 786 253 l 808 253 l 808 0 l 90 0 m 263 986 q 332 1140 288 1083 q 465 1197 376 1197 q 599 1140 554 1197 q 668 986 644 1083 l 653 986 q 602 1061 626 1036 q 545 1095 578 1086 q 465 1104 513 1104 q 386 1095 418 1104 q 329 1061 354 1086 q 278 986 304 1036 l 263 986 z "},"Ế":{"ha":906,"x_min":90,"x_max":808,"o":"m 90 0 l 90 22 l 201 78 l 201 839 l 90 894 l 90 917 l 769 917 l 769 678 l 747 678 l 661 840 l 326 840 l 326 511 l 563 511 l 632 626 l 654 626 l 654 322 l 632 322 l 563 435 l 326 435 l 326 76 l 700 76 l 786 253 l 808 253 l 808 0 l 90 0 m 615 1118 l 672 1317 l 779 1317 q 747 1251 779 1288 l 626 1118 l 615 1118 m 261 986 l 444 1197 l 486 1197 l 669 986 l 654 986 l 465 1090 l 276 986 l 261 986 z "},"Ệ":{"ha":906,"x_min":90,"x_max":808,"o":"m 90 0 l 90 22 l 201 78 l 201 839 l 90 894 l 90 917 l 769 917 l 769 678 l 747 678 l 661 840 l 326 840 l 326 511 l 563 511 l 632 626 l 654 626 l 654 322 l 632 322 l 563 435 l 326 435 l 326 76 l 700 76 l 786 253 l 808 253 l 808 0 l 90 0 m 261 986 l 444 1197 l 486 1197 l 669 986 l 654 986 l 465 1090 l 276 986 l 261 986 z "},"Ề":{"ha":906,"x_min":90,"x_max":808,"o":"m 90 0 l 90 22 l 201 78 l 201 839 l 90 894 l 90 917 l 769 917 l 769 678 l 747 678 l 661 840 l 326 840 l 326 511 l 563 511 l 632 626 l 654 626 l 654 322 l 632 322 l 563 435 l 326 435 l 326 76 l 700 76 l 786 253 l 808 253 l 808 0 l 90 0 m 304 1118 l 183 1251 q 158 1286 165 1271 q 151 1317 151 1301 l 258 1317 l 315 1118 l 304 1118 m 261 986 l 444 1197 l 486 1197 l 669 986 l 654 986 l 465 1090 l 276 986 l 261 986 z "},"Ể":{"ha":906,"x_min":90,"x_max":808,"o":"m 90 0 l 90 22 l 201 78 l 201 839 l 90 894 l 90 917 l 769 917 l 769 678 l 747 678 l 661 840 l 326 840 l 326 511 l 563 511 l 632 626 l 654 626 l 654 322 l 632 322 l 563 435 l 326 435 l 326 76 l 700 76 l 786 253 l 808 253 l 808 0 l 90 0 z "},"Ễ":{"ha":906,"x_min":90,"x_max":808,"o":"m 90 0 l 90 22 l 201 78 l 201 839 l 90 894 l 90 917 l 769 917 l 769 678 l 747 678 l 661 840 l 326 840 l 326 511 l 563 511 l 632 626 l 654 626 l 654 322 l 632 322 l 563 435 l 326 435 l 326 76 l 700 76 l 786 253 l 808 253 l 808 0 l 90 0 z "},"Ẻ":{"ha":906,"x_min":90,"x_max":808,"o":"m 90 0 l 90 22 l 201 78 l 201 839 l 90 894 l 90 917 l 769 917 l 769 678 l 747 678 l 661 840 l 326 840 l 326 511 l 563 511 l 632 626 l 654 626 l 654 322 l 632 322 l 563 435 l 326 435 l 326 76 l 700 76 l 786 253 l 808 253 l 808 0 l 90 0 m 400 985 l 400 986 q 471 1020 446 1003 q 496 1071 496 1038 q 472 1111 496 1094 q 388 1138 447 1128 l 403 1215 q 535 1173 497 1207 q 572 1103 572 1139 q 410 975 572 996 l 400 985 z "},"Ḕ":{"ha":906,"x_min":90,"x_max":808,"o":"m 90 0 l 90 22 l 201 78 l 201 839 l 90 894 l 90 917 l 769 917 l 769 678 l 747 678 l 661 840 l 326 840 l 326 511 l 563 511 l 632 626 l 654 626 l 654 322 l 632 322 l 563 435 l 326 435 l 326 76 l 700 76 l 786 253 l 808 253 l 808 0 l 90 0 z "},"Ḗ":{"ha":906,"x_min":90,"x_max":808,"o":"m 90 0 l 90 22 l 201 78 l 201 839 l 90 894 l 90 917 l 769 917 l 769 678 l 747 678 l 661 840 l 326 840 l 326 511 l 563 511 l 632 626 l 654 626 l 654 322 l 632 322 l 563 435 l 326 435 l 326 76 l 700 76 l 786 253 l 808 253 l 808 0 l 90 0 z "},"Ḝ":{"ha":906,"x_min":90,"x_max":808,"o":"m 465 986 q 331 1043 375 986 q 263 1197 286 1100 l 278 1197 q 328 1122 303 1147 q 385 1088 353 1097 q 465 1079 417 1079 q 545 1088 514 1079 q 601 1122 576 1097 q 653 1197 626 1147 l 668 1197 q 599 1043 643 1100 q 465 986 556 986 m 90 0 l 90 22 l 201 78 l 201 839 l 90 894 l 90 917 l 769 917 l 769 678 l 747 678 l 661 840 l 326 840 l 326 511 l 563 511 l 632 626 l 654 626 l 654 322 l 632 322 l 563 435 l 326 435 l 326 76 l 700 76 l 786 253 l 808 253 l 808 0 l 513 0 l 478 -76 q 589 -131 557 -101 q 621 -215 621 -160 q 586 -299 621 -265 q 486 -333 551 -333 q 371 -292 407 -333 l 371 -275 l 375 -275 q 415 -287 394 -283 q 463 -292 435 -292 q 521 -276 504 -292 q 538 -237 538 -260 q 508 -188 538 -207 q 397 -143 479 -169 l 464 0 l 90 0 z "},"Ĝ":{"ha":1067,"x_min":97,"x_max":997,"o":"m 560 -14 q 322 44 426 -14 q 157 203 217 103 q 97 433 97 304 q 135 631 97 540 q 242 788 174 721 q 400 893 311 856 q 592 931 489 931 q 715 922 664 931 q 807 899 767 914 q 888 864 847 883 l 894 635 l 872 635 l 782 790 q 683 846 724 831 q 589 861 642 861 q 399 815 482 861 q 268 687 315 768 q 221 503 221 606 q 272 267 221 364 q 408 118 322 169 q 600 67 494 67 q 688 72 646 67 q 776 96 731 78 l 776 325 l 653 381 l 653 403 l 997 403 l 997 381 l 901 321 l 901 103 q 744 18 838 50 q 560 -14 650 -14 m 351 986 l 535 1197 l 576 1197 l 760 986 l 744 986 l 556 1090 l 367 986 l 351 986 z "},"Ğ":{"ha":1067,"x_min":97,"x_max":997,"o":"m 560 -14 q 322 44 426 -14 q 157 203 217 103 q 97 433 97 304 q 135 631 97 540 q 242 788 174 721 q 400 893 311 856 q 592 931 489 931 q 715 922 664 931 q 807 899 767 914 q 888 864 847 883 l 894 635 l 872 635 l 782 790 q 683 846 724 831 q 589 861 642 861 q 399 815 482 861 q 268 687 315 768 q 221 503 221 606 q 272 267 221 364 q 408 118 322 169 q 600 67 494 67 q 688 72 646 67 q 776 96 731 78 l 776 325 l 653 381 l 653 403 l 997 403 l 997 381 l 901 321 l 901 103 q 744 18 838 50 q 560 -14 650 -14 m 556 986 q 422 1043 467 986 q 353 1197 376 1100 l 368 1197 q 419 1122 394 1147 q 476 1088 443 1097 q 556 1079 508 1079 q 635 1088 603 1079 q 692 1122 667 1097 q 743 1197 717 1147 l 758 1197 q 689 1043 733 1100 q 556 986 644 986 z "},"Ġ":{"ha":1067,"x_min":97,"x_max":997,"o":"m 560 -14 q 322 44 426 -14 q 157 203 217 103 q 97 433 97 304 q 135 631 97 540 q 242 788 174 721 q 400 893 311 856 q 592 931 489 931 q 715 922 664 931 q 807 899 767 914 q 888 864 847 883 l 894 635 l 872 635 l 782 790 q 683 846 724 831 q 589 861 642 861 q 399 815 482 861 q 268 687 315 768 q 221 503 221 606 q 272 267 221 364 q 408 118 322 169 q 600 67 494 67 q 688 72 646 67 q 776 96 731 78 l 776 325 l 653 381 l 653 403 l 997 403 l 997 381 l 901 321 l 901 103 q 744 18 838 50 q 560 -14 650 -14 m 556 1008 q 497 1033 521 1008 q 472 1092 472 1057 q 497 1151 472 1126 q 556 1175 521 1175 q 615 1151 590 1175 q 639 1092 639 1126 q 615 1033 639 1057 q 556 1008 590 1008 z "},"Ģ":{"ha":1067,"x_min":97,"x_max":997,"o":"m 560 -14 q 322 44 426 -14 q 157 203 217 103 q 97 433 97 304 q 135 631 97 540 q 242 788 174 721 q 400 893 311 856 q 592 931 489 931 q 715 922 664 931 q 807 899 767 914 q 888 864 847 883 l 894 635 l 872 635 l 782 790 q 683 846 724 831 q 589 861 642 861 q 399 815 482 861 q 268 687 315 768 q 221 503 221 606 q 272 267 221 364 q 408 118 322 169 q 600 67 494 67 q 688 72 646 67 q 776 96 731 78 l 776 325 l 653 381 l 653 403 l 997 403 l 997 381 l 901 321 l 901 103 q 744 18 838 50 q 560 -14 650 -14 m 583 986 q 443 1094 443 986 q 486 1180 443 1150 q 596 1210 529 1210 q 617 1209 606 1210 q 638 1206 629 1208 l 638 1185 q 604 1189 621 1189 q 545 1176 567 1189 q 524 1135 524 1163 q 551 1088 524 1100 q 639 1076 579 1076 l 639 1015 q 626 994 639 1003 q 583 986 614 986 z "},"Ǧ":{"ha":1067,"x_min":97,"x_max":997,"o":"m 560 -14 q 322 44 426 -14 q 157 203 217 103 q 97 433 97 304 q 135 631 97 540 q 242 788 174 721 q 400 893 311 856 q 592 931 489 931 q 715 922 664 931 q 807 899 767 914 q 888 864 847 883 l 894 635 l 872 635 l 782 790 q 683 846 724 831 q 589 861 642 861 q 399 815 482 861 q 268 687 315 768 q 221 503 221 606 q 272 267 221 364 q 408 118 322 169 q 600 67 494 67 q 688 72 646 67 q 776 96 731 78 l 776 325 l 653 381 l 653 403 l 997 403 l 997 381 l 901 321 l 901 103 q 744 18 838 50 q 560 -14 650 -14 m 535 986 l 351 1197 l 367 1197 l 556 1093 l 744 1197 l 760 1197 l 576 986 l 535 986 z "},"Ḡ":{"ha":1067,"x_min":97,"x_max":997,"o":"m 560 -14 q 322 44 426 -14 q 157 203 217 103 q 97 433 97 304 q 135 631 97 540 q 242 788 174 721 q 400 893 311 856 q 592 931 489 931 q 715 922 664 931 q 807 899 767 914 q 888 864 847 883 l 894 635 l 872 635 l 782 790 q 683 846 724 831 q 589 861 642 861 q 399 815 482 861 q 268 687 315 768 q 221 503 221 606 q 272 267 221 364 q 408 118 322 169 q 600 67 494 67 q 688 72 646 67 q 776 96 731 78 l 776 325 l 653 381 l 653 403 l 997 403 l 997 381 l 901 321 l 901 103 q 744 18 838 50 q 560 -14 650 -14 m 371 1061 l 371 1131 l 740 1131 l 740 1061 l 371 1061 z "},"Ĥ":{"ha":1125,"x_min":90,"x_max":1035,"o":"m 90 0 l 90 22 l 201 78 l 201 839 l 90 894 l 90 917 l 438 917 l 438 894 l 326 839 l 326 511 l 799 511 l 799 839 l 688 894 l 688 917 l 1035 917 l 1035 894 l 924 839 l 924 78 l 1035 22 l 1035 0 l 688 0 l 688 22 l 799 78 l 799 435 l 326 435 l 326 78 l 438 22 l 438 0 l 90 0 m 358 986 l 542 1197 l 583 1197 l 767 986 l 751 986 l 563 1090 l 374 986 l 358 986 z "},"Ħ":{"ha":1125,"x_min":90,"x_max":1035,"o":"m 90 0 l 90 22 l 201 78 l 201 653 l 90 653 l 90 722 l 201 722 l 201 839 l 90 894 l 90 917 l 438 917 l 438 894 l 326 839 l 326 722 l 799 722 l 799 839 l 688 894 l 688 917 l 1035 917 l 1035 894 l 924 839 l 924 722 l 1035 722 l 1035 653 l 924 653 l 924 78 l 1035 22 l 1035 0 l 688 0 l 688 22 l 799 78 l 799 435 l 326 435 l 326 78 l 438 22 l 438 0 l 90 0 m 326 511 l 799 511 l 799 653 l 326 653 l 326 511 z "},"Ḥ":{"ha":1125,"x_min":90,"x_max":1035,"o":"m 90 0 l 90 22 l 201 78 l 201 839 l 90 894 l 90 917 l 438 917 l 438 894 l 326 839 l 326 511 l 799 511 l 799 839 l 688 894 l 688 917 l 1035 917 l 1035 894 l 924 839 l 924 78 l 1035 22 l 1035 0 l 688 0 l 688 22 l 799 78 l 799 435 l 326 435 l 326 78 l 438 22 l 438 0 l 90 0 z "},"Ḫ":{"ha":1125,"x_min":90,"x_max":1035,"o":"m 90 0 l 90 22 l 201 78 l 201 839 l 90 894 l 90 917 l 438 917 l 438 894 l 326 839 l 326 511 l 799 511 l 799 839 l 688 894 l 688 917 l 1035 917 l 1035 894 l 924 839 l 924 78 l 1035 22 l 1035 0 l 688 0 l 688 22 l 799 78 l 799 435 l 326 435 l 326 78 l 438 22 l 438 0 l 90 0 z "},"Ì":{"ha":542,"x_min":43,"x_max":444,"o":"m 97 0 l 97 22 l 208 78 l 208 839 l 97 894 l 97 917 l 444 917 l 444 894 l 333 839 l 333 78 l 444 22 l 444 0 l 97 0 m 263 986 l 89 1110 q 51 1154 58 1132 q 43 1197 43 1176 l 157 1197 l 278 986 l 263 986 z "},"Í":{"ha":542,"x_min":97,"x_max":499,"o":"m 97 0 l 97 22 l 208 78 l 208 839 l 97 894 l 97 917 l 444 917 l 444 894 l 333 839 l 333 78 l 444 22 l 444 0 l 97 0 m 264 986 l 385 1197 l 499 1197 q 491 1154 499 1176 q 453 1110 483 1132 l 279 986 l 264 986 z "},"Î":{"ha":542,"x_min":67,"x_max":475,"o":"m 97 0 l 97 22 l 208 78 l 208 839 l 97 894 l 97 917 l 444 917 l 444 894 l 333 839 l 333 78 l 444 22 l 444 0 l 97 0 m 67 986 l 250 1197 l 292 1197 l 475 986 l 460 986 l 271 1090 l 82 986 l 67 986 z "},"Ĩ":{"ha":542,"x_min":60,"x_max":482,"o":"m 97 0 l 97 22 l 208 78 l 208 839 l 97 894 l 97 917 l 444 917 l 444 894 l 333 839 l 333 78 l 444 22 l 444 0 l 97 0 m 60 1008 q 102 1112 82 1078 q 144 1156 122 1146 q 192 1167 165 1167 q 258 1149 228 1167 q 317 1113 289 1131 q 378 1094 346 1094 q 425 1108 404 1094 q 464 1167 446 1122 l 482 1167 q 440 1063 460 1097 q 398 1019 419 1029 q 350 1008 376 1008 q 283 1026 314 1008 q 224 1063 253 1044 q 164 1081 196 1081 q 117 1067 138 1081 q 78 1008 96 1053 l 60 1008 z "},"Ï":{"ha":542,"x_min":75,"x_max":467,"o":"m 97 0 l 97 22 l 208 78 l 208 839 l 97 894 l 97 917 l 444 917 l 444 894 l 333 839 l 333 78 l 444 22 l 444 0 l 97 0 m 143 1024 q 94 1043 114 1024 q 75 1092 75 1063 q 94 1140 75 1121 q 143 1160 114 1160 q 192 1140 172 1160 q 211 1092 211 1121 q 192 1043 211 1063 q 143 1024 172 1024 m 399 1024 q 350 1043 369 1024 q 331 1092 331 1063 q 350 1140 331 1121 q 399 1160 369 1160 q 447 1140 428 1160 q 467 1092 467 1121 q 447 1043 467 1063 q 399 1024 428 1024 z "},"Ī":{"ha":542,"x_min":86,"x_max":456,"o":"m 97 0 l 97 22 l 208 78 l 208 839 l 97 894 l 97 917 l 444 917 l 444 894 l 333 839 l 333 78 l 444 22 l 444 0 l 97 0 m 86 1061 l 86 1131 l 456 1131 l 456 1061 l 86 1061 z "},"Ĭ":{"ha":542,"x_min":68,"x_max":474,"o":"m 97 0 l 97 22 l 208 78 l 208 839 l 97 894 l 97 917 l 444 917 l 444 894 l 333 839 l 333 78 l 444 22 l 444 0 l 97 0 m 271 986 q 137 1043 182 986 q 68 1197 92 1100 l 83 1197 q 134 1122 110 1147 q 191 1088 158 1097 q 271 1079 224 1079 q 350 1088 318 1079 q 407 1122 382 1097 q 458 1197 432 1147 l 474 1197 q 404 1043 449 1100 q 271 986 360 986 z "},"İ":{"ha":542,"x_min":97,"x_max":444,"o":"m 97 0 l 97 22 l 208 78 l 208 839 l 97 894 l 97 917 l 444 917 l 444 894 l 333 839 l 333 78 l 444 22 l 444 0 l 97 0 m 271 1008 q 212 1033 236 1008 q 188 1092 188 1057 q 212 1151 188 1126 q 271 1175 236 1175 q 330 1151 306 1175 q 354 1092 354 1126 q 330 1033 354 1057 q 271 1008 306 1008 z "},"Į":{"ha":542,"x_min":97,"x_max":444,"o":"m 97 0 l 97 22 l 208 78 l 208 839 l 97 894 l 97 917 l 444 917 l 444 894 l 333 839 l 333 78 l 444 22 l 444 0 l 299 0 q 250 -97 265 -53 q 235 -181 235 -140 q 258 -249 235 -228 q 325 -271 282 -271 q 358 -267 340 -271 q 394 -254 375 -264 l 399 -254 l 399 -271 q 351 -317 381 -300 q 281 -333 321 -333 q 181 -300 219 -333 q 143 -211 143 -267 q 176 -111 143 -161 q 263 0 210 -61 l 97 0 z "},"Ị":{"ha":542,"x_min":97,"x_max":444,"o":"m 97 0 l 97 22 l 208 78 l 208 839 l 97 894 l 97 917 l 444 917 l 444 894 l 333 839 l 333 78 l 444 22 l 444 0 l 97 0 z "},"Ȉ":{"ha":542,"x_min":15,"x_max":444,"o":"m 97 0 l 97 22 l 208 78 l 208 839 l 97 894 l 97 917 l 444 917 l 444 894 l 333 839 l 333 78 l 444 22 l 444 0 l 97 0 m 182 986 l 39 1110 q 16 1153 17 1129 q 22 1197 15 1176 l 110 1197 l 197 986 l 182 986 m 342 986 l 213 1110 q 190 1154 190 1132 q 196 1197 189 1176 l 283 1197 l 357 986 l 342 986 z "},"Ȋ":{"ha":542,"x_min":68,"x_max":474,"o":"m 97 0 l 97 22 l 208 78 l 208 839 l 97 894 l 97 917 l 444 917 l 444 894 l 333 839 l 333 78 l 444 22 l 444 0 l 97 0 m 68 986 q 138 1140 93 1083 q 271 1197 182 1197 q 405 1140 360 1197 q 474 986 450 1083 l 458 986 q 408 1061 432 1036 q 351 1095 383 1086 q 271 1104 318 1104 q 192 1095 224 1104 q 135 1061 160 1086 q 83 986 110 1036 l 68 986 z "},"Ỉ":{"ha":542,"x_min":97,"x_max":444,"o":"m 97 0 l 97 22 l 208 78 l 208 839 l 97 894 l 97 917 l 444 917 l 444 894 l 333 839 l 333 78 l 444 22 l 444 0 l 97 0 m 206 985 l 206 986 q 276 1020 251 1003 q 301 1071 301 1038 q 277 1111 301 1094 q 193 1138 253 1128 l 208 1215 q 340 1173 303 1207 q 378 1103 378 1139 q 215 975 378 996 l 206 985 z "},"Ḯ":{"ha":542,"x_min":75,"x_max":496,"o":"m 97 0 l 97 22 l 208 78 l 208 839 l 97 894 l 97 917 l 444 917 l 444 894 l 333 839 l 333 78 l 444 22 l 444 0 l 97 0 z "},"Ĳ":{"ha":1083,"x_min":97,"x_max":986,"o":"m 97 0 l 97 22 l 208 78 l 208 839 l 97 894 l 97 917 l 444 917 l 444 894 l 333 839 l 333 78 l 444 22 l 444 0 l 97 0 m 606 -240 q 574 -232 588 -240 q 560 -201 560 -224 q 562 -187 560 -199 q 574 -126 564 -176 l 582 -126 q 619 -136 606 -133 q 653 -139 633 -139 q 705 -125 683 -139 q 738 -67 726 -111 q 750 71 750 -22 l 750 839 l 639 894 l 639 917 l 986 917 l 986 894 l 875 839 l 875 333 q 850 53 875 178 q 765 -137 825 -71 q 700 -204 725 -182 q 654 -233 675 -226 q 606 -240 633 -240 z "},"Ĵ":{"ha":542,"x_min":18,"x_max":475,"o":"m 64 -240 q 32 -232 46 -240 q 18 -201 18 -224 q 20 -187 18 -199 q 32 -126 22 -176 l 40 -126 q 78 -136 64 -133 q 111 -139 92 -139 q 163 -125 142 -139 q 197 -67 185 -111 q 208 71 208 -22 l 208 839 l 97 894 l 97 917 l 444 917 l 444 894 l 333 839 l 333 333 q 308 53 333 178 q 224 -137 283 -71 q 158 -204 183 -182 q 113 -233 133 -226 q 64 -240 92 -240 m 67 986 l 250 1197 l 292 1197 l 475 986 l 460 986 l 271 1090 l 82 986 l 67 986 z "},"Ķ":{"ha":999,"x_min":90,"x_max":978,"o":"m 90 0 l 90 22 l 201 78 l 201 839 l 90 894 l 90 917 l 438 917 l 438 894 l 326 839 l 326 78 l 438 22 l 438 0 l 90 0 m 328 469 l 713 847 l 614 894 l 614 917 l 906 917 l 906 894 l 819 861 l 454 503 l 893 58 l 978 22 l 978 0 l 778 0 l 328 469 m 483 -332 q 461 -331 474 -332 q 440 -328 449 -331 l 440 -307 q 458 -310 449 -308 q 475 -311 468 -311 q 534 -298 513 -311 q 556 -257 556 -285 q 527 -210 556 -222 q 439 -199 499 -199 l 439 -137 q 451 -117 439 -125 q 496 -108 464 -108 q 636 -217 636 -108 q 593 -302 636 -272 q 483 -332 550 -332 z "},"Ĺ":{"ha":878,"x_min":90,"x_max":781,"o":"m 90 0 l 90 22 l 201 78 l 201 839 l 90 894 l 90 917 l 451 917 l 451 894 l 326 839 l 326 76 l 664 76 l 758 308 l 781 308 l 781 0 l 90 0 m 257 986 l 378 1197 l 492 1197 q 484 1154 492 1176 q 446 1110 476 1132 l 272 986 l 257 986 z "},"Ľ":{"ha":878,"x_min":90,"x_max":781,"o":"m 90 0 l 90 22 l 201 78 l 201 839 l 90 894 l 90 917 l 451 917 l 451 894 l 326 839 l 326 76 l 664 76 l 758 308 l 781 308 l 781 0 l 90 0 m 579 657 l 608 917 l 713 917 q 716 876 717 897 q 697 826 715 856 l 594 657 l 579 657 z "},"Ļ":{"ha":878,"x_min":90,"x_max":781,"o":"m 90 0 l 90 22 l 201 78 l 201 839 l 90 894 l 90 917 l 451 917 l 451 894 l 326 839 l 326 76 l 664 76 l 758 308 l 781 308 l 781 0 l 90 0 m 440 -332 q 418 -331 431 -332 q 397 -328 406 -331 l 397 -307 q 415 -310 406 -308 q 432 -311 425 -311 q 491 -298 469 -311 q 513 -257 513 -285 q 484 -210 513 -222 q 396 -199 456 -199 l 396 -137 q 408 -117 396 -125 q 453 -108 421 -108 q 593 -217 593 -108 q 550 -302 593 -272 q 440 -332 507 -332 z "},"Ł":{"ha":878,"x_min":90,"x_max":781,"o":"m 90 0 l 90 22 l 201 78 l 201 349 l 92 272 l 92 354 l 201 431 l 201 839 l 90 894 l 90 917 l 451 917 l 451 894 l 326 839 l 326 500 l 532 639 l 532 557 l 326 418 l 326 76 l 664 76 l 758 308 l 781 308 l 781 0 l 90 0 z "},"Ŀ":{"ha":878,"x_min":90,"x_max":781,"o":"m 90 0 l 90 22 l 201 78 l 201 839 l 90 894 l 90 917 l 451 917 l 451 894 l 326 839 l 326 76 l 664 76 l 758 308 l 781 308 l 781 0 l 90 0 m 681 399 q 622 423 646 399 q 597 482 597 447 q 622 541 597 517 q 681 565 646 565 q 740 541 715 565 q 764 482 764 517 q 740 423 764 447 q 681 399 715 399 z "},"Ḷ":{"ha":878,"x_min":90,"x_max":781,"o":"m 90 0 l 90 22 l 201 78 l 201 839 l 90 894 l 90 917 l 451 917 l 451 894 l 326 839 l 326 76 l 664 76 l 758 308 l 781 308 l 781 0 l 90 0 z "},"Ḻ":{"ha":878,"x_min":90,"x_max":781,"o":"m 90 0 l 90 22 l 201 78 l 201 839 l 90 894 l 90 917 l 451 917 l 451 894 l 326 839 l 326 76 l 664 76 l 758 308 l 781 308 l 781 0 l 90 0 z "},"Ṃ":{"ha":1332,"x_min":83,"x_max":1249,"o":"m 83 0 l 83 22 l 193 78 l 222 838 l 103 894 l 103 917 l 360 917 l 681 178 l 1000 917 l 1244 917 l 1244 894 l 1128 839 l 1151 78 l 1249 22 l 1249 0 l 929 0 l 929 22 l 1032 76 l 1018 761 l 686 -7 l 624 -7 l 297 751 l 279 76 l 392 22 l 392 0 l 83 0 z "},"Ń":{"ha":1110,"x_min":83,"x_max":1026,"o":"m 83 0 l 83 22 l 194 78 l 194 836 l 85 894 l 85 917 l 289 917 l 819 250 l 819 842 l 681 894 l 681 917 l 1026 917 l 1026 894 l 917 840 l 917 -7 l 865 -7 l 292 717 l 292 76 l 431 22 l 431 0 l 83 0 m 563 986 l 683 1197 l 797 1197 q 790 1154 797 1176 q 751 1110 782 1132 l 578 986 l 563 986 z "},"Ň":{"ha":1110,"x_min":83,"x_max":1026,"o":"m 83 0 l 83 22 l 194 78 l 194 836 l 85 894 l 85 917 l 289 917 l 819 250 l 819 842 l 681 894 l 681 917 l 1026 917 l 1026 894 l 917 840 l 917 -7 l 865 -7 l 292 717 l 292 76 l 431 22 l 431 0 l 83 0 m 549 986 l 365 1197 l 381 1197 l 569 1093 l 758 1197 l 774 1197 l 590 986 l 549 986 z "},"Ñ":{"ha":1110,"x_min":83,"x_max":1026,"o":"m 83 0 l 83 22 l 194 78 l 194 836 l 85 894 l 85 917 l 289 917 l 819 250 l 819 842 l 681 894 l 681 917 l 1026 917 l 1026 894 l 917 840 l 917 -7 l 865 -7 l 292 717 l 292 76 l 431 22 l 431 0 l 83 0 m 358 1008 q 401 1112 381 1078 q 442 1156 421 1146 q 490 1167 464 1167 q 557 1149 526 1167 q 616 1113 588 1131 q 676 1094 644 1094 q 724 1108 703 1094 q 763 1167 744 1122 l 781 1167 q 738 1063 758 1097 q 697 1019 718 1029 q 649 1008 675 1008 q 582 1026 613 1008 q 523 1063 551 1044 q 463 1081 494 1081 q 415 1067 436 1081 q 376 1008 394 1053 l 358 1008 z "},"Ņ":{"ha":1110,"x_min":83,"x_max":1026,"o":"m 83 0 l 83 22 l 194 78 l 194 836 l 85 894 l 85 917 l 289 917 l 819 250 l 819 842 l 681 894 l 681 917 l 1026 917 l 1026 894 l 917 840 l 917 -7 l 865 -7 l 292 717 l 292 76 l 431 22 l 431 0 l 83 0 m 532 -332 q 510 -331 522 -332 q 489 -328 497 -331 l 489 -307 q 507 -310 497 -308 q 524 -311 517 -311 q 583 -298 561 -311 q 604 -257 604 -285 q 576 -210 604 -222 q 488 -199 547 -199 l 488 -137 q 500 -117 488 -125 q 544 -108 513 -108 q 685 -217 685 -108 q 642 -302 685 -272 q 532 -332 599 -332 z "},"Ṅ":{"ha":1110,"x_min":83,"x_max":1026,"o":"m 83 0 l 83 22 l 194 78 l 194 836 l 85 894 l 85 917 l 289 917 l 819 250 l 819 842 l 681 894 l 681 917 l 1026 917 l 1026 894 l 917 840 l 917 -7 l 865 -7 l 292 717 l 292 76 l 431 22 l 431 0 l 83 0 m 569 1008 q 510 1033 535 1008 q 486 1092 486 1057 q 510 1151 486 1126 q 569 1175 535 1175 q 628 1151 604 1175 q 653 1092 653 1126 q 628 1033 653 1057 q 569 1008 604 1008 z "},"Ṇ":{"ha":1110,"x_min":83,"x_max":1026,"o":"m 83 0 l 83 22 l 194 78 l 194 836 l 85 894 l 85 917 l 289 917 l 819 250 l 819 842 l 681 894 l 681 917 l 1026 917 l 1026 894 l 917 840 l 917 -7 l 865 -7 l 292 717 l 292 76 l 431 22 l 431 0 l 83 0 z "},"Ṉ":{"ha":1110,"x_min":83,"x_max":1026,"o":"m 83 0 l 83 22 l 194 78 l 194 836 l 85 894 l 85 917 l 289 917 l 819 250 l 819 842 l 681 894 l 681 917 l 1026 917 l 1026 894 l 917 840 l 917 -7 l 865 -7 l 292 717 l 292 76 l 431 22 l 431 0 l 83 0 z "},"Ò":{"ha":1121,"x_min":97,"x_max":1024,"o":"m 560 -14 q 376 22 460 -14 q 229 120 292 57 q 132 269 167 183 q 97 458 97 356 q 132 647 97 561 q 229 797 167 733 q 376 895 292 860 q 560 931 460 931 q 744 895 660 931 q 892 797 829 860 q 989 647 954 733 q 1024 458 1024 561 q 989 269 1024 356 q 892 120 954 183 q 744 22 829 57 q 560 -14 660 -14 m 589 56 q 745 100 678 56 q 851 225 813 144 q 889 415 889 306 q 842 651 889 550 q 715 807 794 751 q 536 863 635 863 q 378 819 447 863 q 271 694 310 775 q 232 504 232 614 q 280 268 232 369 q 408 111 328 167 q 589 56 489 56 m 535 986 l 361 1110 q 323 1154 331 1132 q 315 1197 315 1176 l 429 1197 l 550 986 l 535 986 z "},"Ó":{"ha":1121,"x_min":97,"x_max":1024,"o":"m 560 -14 q 376 22 460 -14 q 229 120 292 57 q 132 269 167 183 q 97 458 97 356 q 132 647 97 561 q 229 797 167 733 q 376 895 292 860 q 560 931 460 931 q 744 895 660 931 q 892 797 829 860 q 989 647 954 733 q 1024 458 1024 561 q 989 269 1024 356 q 892 120 954 183 q 744 22 829 57 q 560 -14 660 -14 m 589 56 q 745 100 678 56 q 851 225 813 144 q 889 415 889 306 q 842 651 889 550 q 715 807 794 751 q 536 863 635 863 q 378 819 447 863 q 271 694 310 775 q 232 504 232 614 q 280 268 232 369 q 408 111 328 167 q 589 56 489 56 m 536 986 l 657 1197 l 771 1197 q 763 1154 771 1176 q 725 1110 756 1132 l 551 986 l 536 986 z "},"Ô":{"ha":1121,"x_min":97,"x_max":1024,"o":"m 560 -14 q 376 22 460 -14 q 229 120 292 57 q 132 269 167 183 q 97 458 97 356 q 132 647 97 561 q 229 797 167 733 q 376 895 292 860 q 560 931 460 931 q 744 895 660 931 q 892 797 829 860 q 989 647 954 733 q 1024 458 1024 561 q 989 269 1024 356 q 892 120 954 183 q 744 22 829 57 q 560 -14 660 -14 m 589 56 q 745 100 678 56 q 851 225 813 144 q 889 415 889 306 q 842 651 889 550 q 715 807 794 751 q 536 863 635 863 q 378 819 447 863 q 271 694 310 775 q 232 504 232 614 q 280 268 232 369 q 408 111 328 167 q 589 56 489 56 m 339 986 l 522 1197 l 564 1197 l 747 986 l 732 986 l 543 1090 l 354 986 l 339 986 z "},"Õ":{"ha":1121,"x_min":97,"x_max":1024,"o":"m 560 -14 q 376 22 460 -14 q 229 120 292 57 q 132 269 167 183 q 97 458 97 356 q 132 647 97 561 q 229 797 167 733 q 376 895 292 860 q 560 931 460 931 q 744 895 660 931 q 892 797 829 860 q 989 647 954 733 q 1024 458 1024 561 q 989 269 1024 356 q 892 120 954 183 q 744 22 829 57 q 560 -14 660 -14 m 589 56 q 745 100 678 56 q 851 225 813 144 q 889 415 889 306 q 842 651 889 550 q 715 807 794 751 q 536 863 635 863 q 378 819 447 863 q 271 694 310 775 q 232 504 232 614 q 280 268 232 369 q 408 111 328 167 q 589 56 489 56 m 332 1008 q 374 1112 354 1078 q 416 1156 394 1146 q 464 1167 438 1167 q 531 1149 500 1167 q 590 1113 561 1131 q 650 1094 618 1094 q 697 1108 676 1094 q 736 1167 718 1122 l 754 1167 q 712 1063 732 1097 q 670 1019 692 1029 q 622 1008 649 1008 q 556 1026 586 1008 q 497 1063 525 1044 q 436 1081 468 1081 q 389 1067 410 1081 q 350 1008 368 1053 l 332 1008 z "},"Ö":{"ha":1121,"x_min":97,"x_max":1024,"o":"m 560 -14 q 376 22 460 -14 q 229 120 292 57 q 132 269 167 183 q 97 458 97 356 q 132 647 97 561 q 229 797 167 733 q 376 895 292 860 q 560 931 460 931 q 744 895 660 931 q 892 797 829 860 q 989 647 954 733 q 1024 458 1024 561 q 989 269 1024 356 q 892 120 954 183 q 744 22 829 57 q 560 -14 660 -14 m 589 56 q 745 100 678 56 q 851 225 813 144 q 889 415 889 306 q 842 651 889 550 q 715 807 794 751 q 536 863 635 863 q 378 819 447 863 q 271 694 310 775 q 232 504 232 614 q 280 268 232 369 q 408 111 328 167 q 589 56 489 56 m 415 1024 q 367 1043 386 1024 q 347 1092 347 1063 q 367 1140 347 1121 q 415 1160 386 1160 q 464 1140 444 1160 q 483 1092 483 1121 q 464 1043 483 1063 q 415 1024 444 1024 m 671 1024 q 622 1043 642 1024 q 603 1092 603 1063 q 622 1140 603 1121 q 671 1160 642 1160 q 719 1140 700 1160 q 739 1092 739 1121 q 719 1043 739 1063 q 671 1024 700 1024 z "},"Ō":{"ha":1121,"x_min":97,"x_max":1024,"o":"m 560 -14 q 376 22 460 -14 q 229 120 292 57 q 132 269 167 183 q 97 458 97 356 q 132 647 97 561 q 229 797 167 733 q 376 895 292 860 q 560 931 460 931 q 744 895 660 931 q 892 797 829 860 q 989 647 954 733 q 1024 458 1024 561 q 989 269 1024 356 q 892 120 954 183 q 744 22 829 57 q 560 -14 660 -14 m 589 56 q 745 100 678 56 q 851 225 813 144 q 889 415 889 306 q 842 651 889 550 q 715 807 794 751 q 536 863 635 863 q 378 819 447 863 q 271 694 310 775 q 232 504 232 614 q 280 268 232 369 q 408 111 328 167 q 589 56 489 56 m 358 1061 l 358 1131 l 728 1131 l 728 1061 l 358 1061 z "},"Ŏ":{"ha":1121,"x_min":97,"x_max":1024,"o":"m 560 -14 q 376 22 460 -14 q 229 120 292 57 q 132 269 167 183 q 97 458 97 356 q 132 647 97 561 q 229 797 167 733 q 376 895 292 860 q 560 931 460 931 q 744 895 660 931 q 892 797 829 860 q 989 647 954 733 q 1024 458 1024 561 q 989 269 1024 356 q 892 120 954 183 q 744 22 829 57 q 560 -14 660 -14 m 589 56 q 745 100 678 56 q 851 225 813 144 q 889 415 889 306 q 842 651 889 550 q 715 807 794 751 q 536 863 635 863 q 378 819 447 863 q 271 694 310 775 q 232 504 232 614 q 280 268 232 369 q 408 111 328 167 q 589 56 489 56 m 543 986 q 409 1043 454 986 q 340 1197 364 1100 l 356 1197 q 406 1122 382 1147 q 463 1088 431 1097 q 543 1079 496 1079 q 622 1088 590 1079 q 679 1122 654 1097 q 731 1197 704 1147 l 746 1197 q 676 1043 721 1100 q 543 986 632 986 z "},"Ő":{"ha":1121,"x_min":97,"x_max":1024,"o":"m 560 -14 q 376 22 460 -14 q 229 120 292 57 q 132 269 167 183 q 97 458 97 356 q 132 647 97 561 q 229 797 167 733 q 376 895 292 860 q 560 931 460 931 q 744 895 660 931 q 892 797 829 860 q 989 647 954 733 q 1024 458 1024 561 q 989 269 1024 356 q 892 120 954 183 q 744 22 829 57 q 560 -14 660 -14 m 589 56 q 745 100 678 56 q 851 225 813 144 q 889 415 889 306 q 842 651 889 550 q 715 807 794 751 q 536 863 635 863 q 378 819 447 863 q 271 694 310 775 q 232 504 232 614 q 280 268 232 369 q 408 111 328 167 q 589 56 489 56 m 456 986 l 522 1197 l 610 1197 q 616 1154 617 1176 q 593 1110 615 1132 l 471 986 l 456 986 m 614 986 l 694 1197 l 782 1197 q 789 1153 789 1176 q 765 1110 789 1131 l 629 986 l 614 986 z "},"Ọ":{"ha":1121,"x_min":97,"x_max":1024,"o":"m 560 -14 q 376 22 460 -14 q 229 120 292 57 q 132 269 167 183 q 97 458 97 356 q 132 647 97 561 q 229 797 167 733 q 376 895 292 860 q 560 931 460 931 q 744 895 660 931 q 892 797 829 860 q 989 647 954 733 q 1024 458 1024 561 q 989 269 1024 356 q 892 120 954 183 q 744 22 829 57 q 560 -14 660 -14 m 589 56 q 745 100 678 56 q 851 225 813 144 q 889 415 889 306 q 842 651 889 550 q 715 807 794 751 q 536 863 635 863 q 378 819 447 863 q 271 694 310 775 q 232 504 232 614 q 280 268 232 369 q 408 111 328 167 q 589 56 489 56 z "},"Ǫ":{"ha":1121,"x_min":97,"x_max":1024,"o":"m 585 -333 q 486 -300 525 -333 q 447 -211 447 -267 q 477 -117 447 -164 q 556 -14 507 -69 q 373 23 457 -12 q 227 122 289 58 q 131 271 165 185 q 97 458 97 357 q 132 647 97 561 q 229 797 167 733 q 376 895 292 860 q 560 931 460 931 q 744 895 660 931 q 892 797 829 860 q 989 647 954 733 q 1024 458 1024 561 q 968 225 1024 328 q 816 59 913 122 q 596 -12 719 -4 q 552 -102 565 -61 q 539 -181 539 -143 q 563 -249 539 -228 q 629 -271 586 -271 q 663 -267 644 -271 q 699 -254 681 -264 l 703 -254 l 703 -271 q 654 -317 683 -300 q 585 -333 625 -333 m 589 56 q 745 100 678 56 q 851 225 813 144 q 889 415 889 306 q 842 651 889 550 q 715 807 794 751 q 536 863 635 863 q 378 819 447 863 q 271 694 310 775 q 232 504 232 614 q 280 268 232 369 q 408 111 328 167 q 589 56 489 56 z "},"Ȍ":{"ha":1121,"x_min":97,"x_max":1024,"o":"m 560 -14 q 376 22 460 -14 q 229 120 292 57 q 132 269 167 183 q 97 458 97 356 q 132 647 97 561 q 229 797 167 733 q 376 895 292 860 q 560 931 460 931 q 744 895 660 931 q 892 797 829 860 q 989 647 954 733 q 1024 458 1024 561 q 989 269 1024 356 q 892 120 954 183 q 744 22 829 57 q 560 -14 660 -14 m 589 56 q 745 100 678 56 q 851 225 813 144 q 889 415 889 306 q 842 651 889 550 q 715 807 794 751 q 536 863 635 863 q 378 819 447 863 q 271 694 310 775 q 232 504 232 614 q 280 268 232 369 q 408 111 328 167 q 589 56 489 56 m 454 986 l 311 1110 q 288 1153 289 1129 q 294 1197 288 1176 l 382 1197 l 469 986 l 454 986 m 614 986 l 485 1110 q 462 1154 463 1132 q 468 1197 461 1176 l 556 1197 l 629 986 l 614 986 z "},"Ȏ":{"ha":1121,"x_min":97,"x_max":1024,"o":"m 560 -14 q 376 22 460 -14 q 229 120 292 57 q 132 269 167 183 q 97 458 97 356 q 132 647 97 561 q 229 797 167 733 q 376 895 292 860 q 560 931 460 931 q 744 895 660 931 q 892 797 829 860 q 989 647 954 733 q 1024 458 1024 561 q 989 269 1024 356 q 892 120 954 183 q 744 22 829 57 q 560 -14 660 -14 m 589 56 q 745 100 678 56 q 851 225 813 144 q 889 415 889 306 q 842 651 889 550 q 715 807 794 751 q 536 863 635 863 q 378 819 447 863 q 271 694 310 775 q 232 504 232 614 q 280 268 232 369 q 408 111 328 167 q 589 56 489 56 m 340 986 q 410 1140 365 1083 q 543 1197 454 1197 q 677 1140 632 1197 q 746 986 722 1083 l 731 986 q 680 1061 704 1036 q 623 1095 656 1086 q 543 1104 590 1104 q 464 1095 496 1104 q 407 1061 432 1086 q 356 986 382 1036 l 340 986 z "},"Ȫ":{"ha":1121,"x_min":97,"x_max":1024,"o":"m 560 -14 q 376 22 460 -14 q 229 120 292 57 q 132 269 167 183 q 97 458 97 356 q 132 647 97 561 q 229 797 167 733 q 376 895 292 860 q 560 931 460 931 q 744 895 660 931 q 892 797 829 860 q 989 647 954 733 q 1024 458 1024 561 q 989 269 1024 356 q 892 120 954 183 q 744 22 829 57 q 560 -14 660 -14 m 589 56 q 745 100 678 56 q 851 225 813 144 q 889 415 889 306 q 842 651 889 550 q 715 807 794 751 q 536 863 635 863 q 378 819 447 863 q 271 694 310 775 q 232 504 232 614 q 280 268 232 369 q 408 111 328 167 q 589 56 489 56 z "},"Ȭ":{"ha":1121,"x_min":97,"x_max":1024,"o":"m 560 -14 q 376 22 460 -14 q 229 120 292 57 q 132 269 167 183 q 97 458 97 356 q 132 647 97 561 q 229 797 167 733 q 376 895 292 860 q 560 931 460 931 q 744 895 660 931 q 892 797 829 860 q 989 647 954 733 q 1024 458 1024 561 q 989 269 1024 356 q 892 120 954 183 q 744 22 829 57 q 560 -14 660 -14 m 589 56 q 745 100 678 56 q 851 225 813 144 q 889 415 889 306 q 842 651 889 550 q 715 807 794 751 q 536 863 635 863 q 378 819 447 863 q 271 694 310 775 q 232 504 232 614 q 280 268 232 369 q 408 111 328 167 q 589 56 489 56 z "},"Ȱ":{"ha":1121,"x_min":97,"x_max":1024,"o":"m 560 -14 q 376 22 460 -14 q 229 120 292 57 q 132 269 167 183 q 97 458 97 356 q 132 647 97 561 q 229 797 167 733 q 376 895 292 860 q 560 931 460 931 q 744 895 660 931 q 892 797 829 860 q 989 647 954 733 q 1024 458 1024 561 q 989 269 1024 356 q 892 120 954 183 q 744 22 829 57 q 560 -14 660 -14 m 589 56 q 745 100 678 56 q 851 225 813 144 q 889 415 889 306 q 842 651 889 550 q 715 807 794 751 q 536 863 635 863 q 378 819 447 863 q 271 694 310 775 q 232 504 232 614 q 280 268 232 369 q 408 111 328 167 q 589 56 489 56 z "},"Ố":{"ha":1121,"x_min":97,"x_max":1024,"o":"m 560 -14 q 376 22 460 -14 q 229 120 292 57 q 132 269 167 183 q 97 458 97 356 q 132 647 97 561 q 229 797 167 733 q 376 895 292 860 q 560 931 460 931 q 744 895 660 931 q 892 797 829 860 q 989 647 954 733 q 1024 458 1024 561 q 989 269 1024 356 q 892 120 954 183 q 744 22 829 57 q 560 -14 660 -14 m 589 56 q 745 100 678 56 q 851 225 813 144 q 889 415 889 306 q 842 651 889 550 q 715 807 794 751 q 536 863 635 863 q 378 819 447 863 q 271 694 310 775 q 232 504 232 614 q 280 268 232 369 q 408 111 328 167 q 589 56 489 56 m 693 1118 l 750 1317 l 857 1317 q 825 1251 857 1288 l 704 1118 l 693 1118 m 339 986 l 522 1197 l 564 1197 l 747 986 l 732 986 l 543 1090 l 354 986 l 339 986 z "},"Ộ":{"ha":1121,"x_min":97,"x_max":1024,"o":"m 560 -14 q 376 22 460 -14 q 229 120 292 57 q 132 269 167 183 q 97 458 97 356 q 132 647 97 561 q 229 797 167 733 q 376 895 292 860 q 560 931 460 931 q 744 895 660 931 q 892 797 829 860 q 989 647 954 733 q 1024 458 1024 561 q 989 269 1024 356 q 892 120 954 183 q 744 22 829 57 q 560 -14 660 -14 m 589 56 q 745 100 678 56 q 851 225 813 144 q 889 415 889 306 q 842 651 889 550 q 715 807 794 751 q 536 863 635 863 q 378 819 447 863 q 271 694 310 775 q 232 504 232 614 q 280 268 232 369 q 408 111 328 167 q 589 56 489 56 m 339 986 l 522 1197 l 564 1197 l 747 986 l 732 986 l 543 1090 l 354 986 l 339 986 z "},"Ồ":{"ha":1121,"x_min":97,"x_max":1024,"o":"m 560 -14 q 376 22 460 -14 q 229 120 292 57 q 132 269 167 183 q 97 458 97 356 q 132 647 97 561 q 229 797 167 733 q 376 895 292 860 q 560 931 460 931 q 744 895 660 931 q 892 797 829 860 q 989 647 954 733 q 1024 458 1024 561 q 989 269 1024 356 q 892 120 954 183 q 744 22 829 57 q 560 -14 660 -14 m 589 56 q 745 100 678 56 q 851 225 813 144 q 889 415 889 306 q 842 651 889 550 q 715 807 794 751 q 536 863 635 863 q 378 819 447 863 q 271 694 310 775 q 232 504 232 614 q 280 268 232 369 q 408 111 328 167 q 589 56 489 56 m 382 1118 l 261 1251 q 236 1286 243 1271 q 229 1317 229 1301 l 336 1317 l 393 1118 l 382 1118 m 339 986 l 522 1197 l 564 1197 l 747 986 l 732 986 l 543 1090 l 354 986 l 339 986 z "},"Ổ":{"ha":1121,"x_min":97,"x_max":1024,"o":"m 560 -14 q 376 22 460 -14 q 229 120 292 57 q 132 269 167 183 q 97 458 97 356 q 132 647 97 561 q 229 797 167 733 q 376 895 292 860 q 560 931 460 931 q 744 895 660 931 q 892 797 829 860 q 989 647 954 733 q 1024 458 1024 561 q 989 269 1024 356 q 892 120 954 183 q 744 22 829 57 q 560 -14 660 -14 m 589 56 q 745 100 678 56 q 851 225 813 144 q 889 415 889 306 q 842 651 889 550 q 715 807 794 751 q 536 863 635 863 q 378 819 447 863 q 271 694 310 775 q 232 504 232 614 q 280 268 232 369 q 408 111 328 167 q 589 56 489 56 z "},"Ỗ":{"ha":1121,"x_min":97,"x_max":1024,"o":"m 560 -14 q 376 22 460 -14 q 229 120 292 57 q 132 269 167 183 q 97 458 97 356 q 132 647 97 561 q 229 797 167 733 q 376 895 292 860 q 560 931 460 931 q 744 895 660 931 q 892 797 829 860 q 989 647 954 733 q 1024 458 1024 561 q 989 269 1024 356 q 892 120 954 183 q 744 22 829 57 q 560 -14 660 -14 m 589 56 q 745 100 678 56 q 851 225 813 144 q 889 415 889 306 q 842 651 889 550 q 715 807 794 751 q 536 863 635 863 q 378 819 447 863 q 271 694 310 775 q 232 504 232 614 q 280 268 232 369 q 408 111 328 167 q 589 56 489 56 z "},"Ỏ":{"ha":1121,"x_min":97,"x_max":1024,"o":"m 560 -14 q 376 22 460 -14 q 229 120 292 57 q 132 269 167 183 q 97 458 97 356 q 132 647 97 561 q 229 797 167 733 q 376 895 292 860 q 560 931 460 931 q 744 895 660 931 q 892 797 829 860 q 989 647 954 733 q 1024 458 1024 561 q 989 269 1024 356 q 892 120 954 183 q 744 22 829 57 q 560 -14 660 -14 m 589 56 q 745 100 678 56 q 851 225 813 144 q 889 415 889 306 q 842 651 889 550 q 715 807 794 751 q 536 863 635 863 q 378 819 447 863 q 271 694 310 775 q 232 504 232 614 q 280 268 232 369 q 408 111 328 167 q 589 56 489 56 m 478 985 l 478 986 q 549 1020 524 1003 q 574 1071 574 1038 q 549 1111 574 1094 q 465 1138 525 1128 l 481 1215 q 613 1173 575 1207 q 650 1103 650 1139 q 488 975 650 996 l 478 985 z "},"Ṍ":{"ha":1121,"x_min":97,"x_max":1024,"o":"m 560 -14 q 376 22 460 -14 q 229 120 292 57 q 132 269 167 183 q 97 458 97 356 q 132 647 97 561 q 229 797 167 733 q 376 895 292 860 q 560 931 460 931 q 744 895 660 931 q 892 797 829 860 q 989 647 954 733 q 1024 458 1024 561 q 989 269 1024 356 q 892 120 954 183 q 744 22 829 57 q 560 -14 660 -14 m 589 56 q 745 100 678 56 q 851 225 813 144 q 889 415 889 306 q 842 651 889 550 q 715 807 794 751 q 536 863 635 863 q 378 819 447 863 q 271 694 310 775 q 232 504 232 614 q 280 268 232 369 q 408 111 328 167 q 589 56 489 56 z "},"Ṏ":{"ha":1121,"x_min":97,"x_max":1024,"o":"m 560 -14 q 376 22 460 -14 q 229 120 292 57 q 132 269 167 183 q 97 458 97 356 q 132 647 97 561 q 229 797 167 733 q 376 895 292 860 q 560 931 460 931 q 744 895 660 931 q 892 797 829 860 q 989 647 954 733 q 1024 458 1024 561 q 989 269 1024 356 q 892 120 954 183 q 744 22 829 57 q 560 -14 660 -14 m 589 56 q 745 100 678 56 q 851 225 813 144 q 889 415 889 306 q 842 651 889 550 q 715 807 794 751 q 536 863 635 863 q 378 819 447 863 q 271 694 310 775 q 232 504 232 614 q 280 268 232 369 q 408 111 328 167 q 589 56 489 56 z "},"Ṑ":{"ha":1121,"x_min":97,"x_max":1024,"o":"m 560 -14 q 376 22 460 -14 q 229 120 292 57 q 132 269 167 183 q 97 458 97 356 q 132 647 97 561 q 229 797 167 733 q 376 895 292 860 q 560 931 460 931 q 744 895 660 931 q 892 797 829 860 q 989 647 954 733 q 1024 458 1024 561 q 989 269 1024 356 q 892 120 954 183 q 744 22 829 57 q 560 -14 660 -14 m 589 56 q 745 100 678 56 q 851 225 813 144 q 889 415 889 306 q 842 651 889 550 q 715 807 794 751 q 536 863 635 863 q 378 819 447 863 q 271 694 310 775 q 232 504 232 614 q 280 268 232 369 q 408 111 328 167 q 589 56 489 56 z "},"Ṓ":{"ha":1121,"x_min":97,"x_max":1024,"o":"m 560 -14 q 376 22 460 -14 q 229 120 292 57 q 132 269 167 183 q 97 458 97 356 q 132 647 97 561 q 229 797 167 733 q 376 895 292 860 q 560 931 460 931 q 744 895 660 931 q 892 797 829 860 q 989 647 954 733 q 1024 458 1024 561 q 989 269 1024 356 q 892 120 954 183 q 744 22 829 57 q 560 -14 660 -14 m 589 56 q 745 100 678 56 q 851 225 813 144 q 889 415 889 306 q 842 651 889 550 q 715 807 794 751 q 536 863 635 863 q 378 819 447 863 q 271 694 310 775 q 232 504 232 614 q 280 268 232 369 q 408 111 328 167 q 589 56 489 56 z "},"Ø":{"ha":1121,"x_min":97,"x_max":1024,"o":"m 97 -14 l 222 128 q 130 275 163 190 q 97 458 97 360 q 132 647 97 561 q 229 797 167 733 q 376 895 292 860 q 560 931 460 931 q 715 906 642 931 q 846 838 788 882 l 928 931 l 1024 931 l 899 789 q 991 642 958 726 q 1024 458 1024 557 q 989 269 1024 356 q 892 120 954 183 q 744 22 829 57 q 560 -14 660 -14 q 406 10 478 -14 q 275 79 333 35 l 193 -14 l 97 -14 m 232 504 q 251 349 232 421 q 304 222 271 278 l 774 756 q 666 835 726 807 q 536 863 606 863 q 378 819 447 863 q 271 694 310 775 q 232 504 232 614 m 589 56 q 745 100 678 56 q 851 225 813 144 q 889 415 889 306 q 870 569 889 499 q 818 696 851 640 l 349 164 q 458 83 396 111 q 589 56 519 56 z "},"Ǿ":{"ha":1121,"x_min":97,"x_max":1024,"o":"m 97 -14 l 222 128 q 130 275 163 190 q 97 458 97 360 q 132 647 97 561 q 229 797 167 733 q 376 895 292 860 q 560 931 460 931 q 715 906 642 931 q 846 838 788 882 l 928 931 l 1024 931 l 899 789 q 991 642 958 726 q 1024 458 1024 557 q 989 269 1024 356 q 892 120 954 183 q 744 22 829 57 q 560 -14 660 -14 q 406 10 478 -14 q 275 79 333 35 l 193 -14 l 97 -14 m 232 504 q 251 349 232 421 q 304 222 271 278 l 774 756 q 666 835 726 807 q 536 863 606 863 q 378 819 447 863 q 271 694 310 775 q 232 504 232 614 m 589 56 q 745 100 678 56 q 851 225 813 144 q 889 415 889 306 q 870 569 889 499 q 818 696 851 640 l 349 164 q 458 83 396 111 q 589 56 519 56 m 536 986 l 657 1197 l 771 1197 q 763 1154 771 1176 q 725 1110 756 1132 l 551 986 l 536 986 z "},"Ơ":{"ha":1121,"x_min":97,"x_max":1024,"o":"m 560 -14 q 376 22 460 -14 q 229 120 292 57 q 132 269 167 183 q 97 458 97 356 q 132 647 97 561 q 229 797 167 733 q 376 895 292 860 q 560 931 460 931 q 739 897 656 931 q 781 893 761 893 q 835 913 819 893 q 851 967 851 932 l 851 1038 l 860 1046 l 908 1046 q 938 1038 931 1046 q 946 1003 946 1031 q 905 906 946 943 q 804 868 864 868 l 800 868 q 963 701 903 808 q 1024 458 1024 594 q 989 269 1024 356 q 892 120 954 183 q 744 22 829 57 q 560 -14 660 -14 m 589 56 q 745 100 678 56 q 851 225 813 144 q 889 415 889 306 q 842 651 889 550 q 715 807 794 751 q 536 863 635 863 q 378 819 447 863 q 271 694 310 775 q 232 504 232 614 q 280 268 232 369 q 408 111 328 167 q 589 56 489 56 z "},"Ớ":{"ha":1121,"x_min":97,"x_max":1024,"o":"m 560 -14 q 376 22 460 -14 q 229 120 292 57 q 132 269 167 183 q 97 458 97 356 q 132 647 97 561 q 229 797 167 733 q 376 895 292 860 q 560 931 460 931 q 739 897 656 931 q 781 893 761 893 q 835 913 819 893 q 851 967 851 932 l 851 1038 l 860 1046 l 908 1046 q 938 1038 931 1046 q 946 1003 946 1031 q 905 906 946 943 q 804 868 864 868 l 800 868 q 963 701 903 808 q 1024 458 1024 594 q 989 269 1024 356 q 892 120 954 183 q 744 22 829 57 q 560 -14 660 -14 m 589 56 q 745 100 678 56 q 851 225 813 144 q 889 415 889 306 q 842 651 889 550 q 715 807 794 751 q 536 863 635 863 q 378 819 447 863 q 271 694 310 775 q 232 504 232 614 q 280 268 232 369 q 408 111 328 167 q 589 56 489 56 m 536 986 l 657 1197 l 771 1197 q 763 1154 771 1176 q 725 1110 756 1132 l 551 986 l 536 986 z "},"Ợ":{"ha":1121,"x_min":97,"x_max":1024,"o":"m 560 -14 q 376 22 460 -14 q 229 120 292 57 q 132 269 167 183 q 97 458 97 356 q 132 647 97 561 q 229 797 167 733 q 376 895 292 860 q 560 931 460 931 q 739 897 656 931 q 781 893 761 893 q 835 913 819 893 q 851 967 851 932 l 851 1038 l 860 1046 l 908 1046 q 938 1038 931 1046 q 946 1003 946 1031 q 905 906 946 943 q 804 868 864 868 l 800 868 q 963 701 903 808 q 1024 458 1024 594 q 989 269 1024 356 q 892 120 954 183 q 744 22 829 57 q 560 -14 660 -14 m 589 56 q 745 100 678 56 q 851 225 813 144 q 889 415 889 306 q 842 651 889 550 q 715 807 794 751 q 536 863 635 863 q 378 819 447 863 q 271 694 310 775 q 232 504 232 614 q 280 268 232 369 q 408 111 328 167 q 589 56 489 56 z "},"Ờ":{"ha":1121,"x_min":97,"x_max":1024,"o":"m 560 -14 q 376 22 460 -14 q 229 120 292 57 q 132 269 167 183 q 97 458 97 356 q 132 647 97 561 q 229 797 167 733 q 376 895 292 860 q 560 931 460 931 q 739 897 656 931 q 781 893 761 893 q 835 913 819 893 q 851 967 851 932 l 851 1038 l 860 1046 l 908 1046 q 938 1038 931 1046 q 946 1003 946 1031 q 905 906 946 943 q 804 868 864 868 l 800 868 q 963 701 903 808 q 1024 458 1024 594 q 989 269 1024 356 q 892 120 954 183 q 744 22 829 57 q 560 -14 660 -14 m 589 56 q 745 100 678 56 q 851 225 813 144 q 889 415 889 306 q 842 651 889 550 q 715 807 794 751 q 536 863 635 863 q 378 819 447 863 q 271 694 310 775 q 232 504 232 614 q 280 268 232 369 q 408 111 328 167 q 589 56 489 56 m 535 986 l 361 1110 q 323 1154 331 1132 q 315 1197 315 1176 l 429 1197 l 550 986 l 535 986 z "},"Ở":{"ha":1121,"x_min":97,"x_max":1024,"o":"m 560 -14 q 376 22 460 -14 q 229 120 292 57 q 132 269 167 183 q 97 458 97 356 q 132 647 97 561 q 229 797 167 733 q 376 895 292 860 q 560 931 460 931 q 739 897 656 931 q 781 893 761 893 q 835 913 819 893 q 851 967 851 932 l 851 1038 l 860 1046 l 908 1046 q 938 1038 931 1046 q 946 1003 946 1031 q 905 906 946 943 q 804 868 864 868 l 800 868 q 963 701 903 808 q 1024 458 1024 594 q 989 269 1024 356 q 892 120 954 183 q 744 22 829 57 q 560 -14 660 -14 m 589 56 q 745 100 678 56 q 851 225 813 144 q 889 415 889 306 q 842 651 889 550 q 715 807 794 751 q 536 863 635 863 q 378 819 447 863 q 271 694 310 775 q 232 504 232 614 q 280 268 232 369 q 408 111 328 167 q 589 56 489 56 m 478 985 l 478 986 q 549 1020 524 1003 q 574 1071 574 1038 q 549 1111 574 1094 q 465 1138 525 1128 l 481 1215 q 613 1173 575 1207 q 650 1103 650 1139 q 488 975 650 996 l 478 985 z "},"Ỡ":{"ha":1121,"x_min":97,"x_max":1024,"o":"m 560 -14 q 376 22 460 -14 q 229 120 292 57 q 132 269 167 183 q 97 458 97 356 q 132 647 97 561 q 229 797 167 733 q 376 895 292 860 q 560 931 460 931 q 739 897 656 931 q 781 893 761 893 q 835 913 819 893 q 851 967 851 932 l 851 1038 l 860 1046 l 908 1046 q 938 1038 931 1046 q 946 1003 946 1031 q 905 906 946 943 q 804 868 864 868 l 800 868 q 963 701 903 808 q 1024 458 1024 594 q 989 269 1024 356 q 892 120 954 183 q 744 22 829 57 q 560 -14 660 -14 m 589 56 q 745 100 678 56 q 851 225 813 144 q 889 415 889 306 q 842 651 889 550 q 715 807 794 751 q 536 863 635 863 q 378 819 447 863 q 271 694 310 775 q 232 504 232 614 q 280 268 232 369 q 408 111 328 167 q 589 56 489 56 m 332 1008 q 374 1112 354 1078 q 416 1156 394 1146 q 464 1167 438 1167 q 531 1149 500 1167 q 590 1113 561 1131 q 650 1094 618 1094 q 697 1108 676 1094 q 736 1167 718 1122 l 754 1167 q 712 1063 732 1097 q 670 1019 692 1029 q 622 1008 649 1008 q 556 1026 586 1008 q 497 1063 525 1044 q 436 1081 468 1081 q 389 1067 410 1081 q 350 1008 368 1053 l 332 1008 z "},"Œ":{"ha":1407,"x_min":97,"x_max":1310,"o":"m 579 0 q 320 58 428 1 q 155 215 213 114 q 97 453 97 317 q 161 694 97 589 q 336 858 225 799 q 589 917 447 917 l 1271 917 l 1271 678 l 1249 678 l 1163 840 l 828 840 l 828 511 l 1064 511 l 1133 626 l 1156 626 l 1156 322 l 1133 322 l 1064 435 l 828 435 l 828 76 l 1201 76 l 1288 253 l 1310 253 l 1310 0 l 579 0 m 611 76 l 703 76 l 703 840 l 590 840 q 397 794 478 840 q 273 661 317 747 q 229 458 229 575 q 274 257 229 343 q 403 124 318 171 q 611 76 489 76 z "},"Ŕ":{"ha":918,"x_min":90,"x_max":925,"o":"m 90 0 l 90 22 l 201 78 l 201 839 l 90 894 l 90 917 l 449 917 q 678 856 594 917 q 763 690 763 796 q 710 551 763 613 q 569 457 657 489 l 833 72 l 925 22 l 925 0 l 725 0 l 456 421 l 326 421 l 326 79 l 431 22 l 431 0 l 90 0 m 417 840 l 326 840 l 326 497 l 425 497 q 570 547 513 497 q 628 672 628 596 q 571 795 628 750 q 417 840 514 840 m 433 986 l 554 1197 l 668 1197 q 660 1154 668 1176 q 622 1110 653 1132 l 449 986 l 433 986 z "},"Ř":{"ha":918,"x_min":90,"x_max":925,"o":"m 90 0 l 90 22 l 201 78 l 201 839 l 90 894 l 90 917 l 449 917 q 678 856 594 917 q 763 690 763 796 q 710 551 763 613 q 569 457 657 489 l 833 72 l 925 22 l 925 0 l 725 0 l 456 421 l 326 421 l 326 79 l 431 22 l 431 0 l 90 0 m 417 840 l 326 840 l 326 497 l 425 497 q 570 547 513 497 q 628 672 628 596 q 571 795 628 750 q 417 840 514 840 m 419 986 l 236 1197 l 251 1197 l 440 1093 l 629 1197 l 644 1197 l 461 986 l 419 986 z "},"Ŗ":{"ha":918,"x_min":90,"x_max":925,"o":"m 90 0 l 90 22 l 201 78 l 201 839 l 90 894 l 90 917 l 449 917 q 678 856 594 917 q 763 690 763 796 q 710 551 763 613 q 569 457 657 489 l 833 72 l 925 22 l 925 0 l 725 0 l 456 421 l 326 421 l 326 79 l 431 22 l 431 0 l 90 0 m 417 840 l 326 840 l 326 497 l 425 497 q 570 547 513 497 q 628 672 628 596 q 571 795 628 750 q 417 840 514 840 m 458 -332 q 436 -331 449 -332 q 415 -328 424 -331 l 415 -307 q 433 -310 424 -308 q 450 -311 443 -311 q 509 -298 488 -311 q 531 -257 531 -285 q 502 -210 531 -222 q 414 -199 474 -199 l 414 -137 q 426 -117 414 -125 q 471 -108 439 -108 q 611 -217 611 -108 q 568 -302 611 -272 q 458 -332 525 -332 z "},"Ȑ":{"ha":918,"x_min":90,"x_max":925,"o":"m 90 0 l 90 22 l 201 78 l 201 839 l 90 894 l 90 917 l 449 917 q 678 856 594 917 q 763 690 763 796 q 710 551 763 613 q 569 457 657 489 l 833 72 l 925 22 l 925 0 l 725 0 l 456 421 l 326 421 l 326 79 l 431 22 l 431 0 l 90 0 m 417 840 l 326 840 l 326 497 l 425 497 q 570 547 513 497 q 628 672 628 596 q 571 795 628 750 q 417 840 514 840 m 351 986 l 208 1110 q 185 1153 186 1129 q 192 1197 185 1176 l 279 1197 l 367 986 l 351 986 m 511 986 l 382 1110 q 359 1154 360 1132 q 365 1197 358 1176 l 453 1197 l 526 986 l 511 986 z "},"Ȓ":{"ha":918,"x_min":90,"x_max":925,"o":"m 90 0 l 90 22 l 201 78 l 201 839 l 90 894 l 90 917 l 449 917 q 678 856 594 917 q 763 690 763 796 q 710 551 763 613 q 569 457 657 489 l 833 72 l 925 22 l 925 0 l 725 0 l 456 421 l 326 421 l 326 79 l 431 22 l 431 0 l 90 0 m 417 840 l 326 840 l 326 497 l 425 497 q 570 547 513 497 q 628 672 628 596 q 571 795 628 750 q 417 840 514 840 m 238 986 q 307 1140 263 1083 q 440 1197 351 1197 q 574 1140 529 1197 q 643 986 619 1083 l 628 986 q 577 1061 601 1036 q 520 1095 553 1086 q 440 1104 488 1104 q 361 1095 393 1104 q 304 1061 329 1086 q 253 986 279 1036 l 238 986 z "},"Ṛ":{"ha":918,"x_min":90,"x_max":925,"o":"m 90 0 l 90 22 l 201 78 l 201 839 l 90 894 l 90 917 l 449 917 q 678 856 594 917 q 763 690 763 796 q 710 551 763 613 q 569 457 657 489 l 833 72 l 925 22 l 925 0 l 725 0 l 456 421 l 326 421 l 326 79 l 431 22 l 431 0 l 90 0 m 417 840 l 326 840 l 326 497 l 425 497 q 570 547 513 497 q 628 672 628 596 q 571 795 628 750 q 417 840 514 840 z "},"Ṟ":{"ha":918,"x_min":90,"x_max":925,"o":"m 90 0 l 90 22 l 201 78 l 201 839 l 90 894 l 90 917 l 449 917 q 678 856 594 917 q 763 690 763 796 q 710 551 763 613 q 569 457 657 489 l 833 72 l 925 22 l 925 0 l 725 0 l 456 421 l 326 421 l 326 79 l 431 22 l 431 0 l 90 0 m 417 840 l 326 840 l 326 497 l 425 497 q 570 547 513 497 q 628 672 628 596 q 571 795 628 750 q 417 840 514 840 z "},"ẞ":{"ha":1475,"x_min":83,"x_max":1399,"o":"m 367 -14 q 221 2 281 -14 q 97 50 161 18 l 83 278 l 106 278 l 174 131 q 271 70 224 89 q 367 51 318 51 q 495 94 449 51 q 542 211 542 138 q 515 307 542 272 q 437 369 488 342 q 317 431 386 396 q 206 496 251 464 q 136 570 160 528 q 113 676 113 613 q 135 769 113 724 q 198 851 158 814 q 287 909 238 888 q 389 931 336 931 q 507 915 453 931 q 618 872 561 900 l 632 650 l 610 650 l 546 796 q 461 848 497 832 q 378 864 425 864 q 277 822 317 864 q 238 719 238 781 q 281 609 238 649 q 415 525 324 569 q 554 448 500 483 q 635 367 608 413 q 661 250 661 321 q 633 135 661 185 q 562 53 606 86 q 466 3 518 19 q 367 -14 414 -14 m 1104 -14 q 958 2 1018 -14 q 835 50 899 18 l 821 278 l 843 278 l 911 131 q 1008 70 961 89 q 1104 51 1056 51 q 1233 94 1186 51 q 1279 211 1279 138 q 1252 307 1279 272 q 1174 369 1225 342 q 1054 431 1124 396 q 943 496 989 464 q 874 570 897 528 q 850 676 850 613 q 873 769 850 724 q 935 851 896 814 q 1024 909 975 888 q 1126 931 1074 931 q 1244 915 1190 931 q 1356 872 1299 900 l 1369 650 l 1347 650 l 1283 796 q 1199 848 1235 832 q 1115 864 1163 864 q 1015 822 1054 864 q 975 719 975 781 q 1018 609 975 649 q 1153 525 1061 569 q 1292 448 1238 483 q 1372 367 1346 413 q 1399 250 1399 321 q 1371 135 1399 185 q 1299 53 1343 86 q 1203 3 1256 19 q 1104 -14 1151 -14 z "},"Ś":{"ha":738,"x_min":83,"x_max":661,"o":"m 367 -14 q 221 2 281 -14 q 97 50 161 18 l 83 278 l 106 278 l 174 131 q 271 70 224 89 q 367 51 318 51 q 495 94 449 51 q 542 211 542 138 q 515 307 542 272 q 437 369 488 342 q 317 431 386 396 q 206 496 251 464 q 136 570 160 528 q 113 676 113 613 q 135 769 113 724 q 198 851 158 814 q 287 909 238 888 q 389 931 336 931 q 507 915 453 931 q 618 872 561 900 l 632 650 l 610 650 l 546 796 q 461 848 497 832 q 378 864 425 864 q 277 822 317 864 q 238 719 238 781 q 281 609 238 649 q 415 525 324 569 q 554 448 500 483 q 635 367 608 413 q 661 250 661 321 q 633 135 661 185 q 562 53 606 86 q 466 3 518 19 q 367 -14 414 -14 m 371 986 l 492 1197 l 606 1197 q 598 1154 606 1176 q 560 1110 590 1132 l 386 986 l 371 986 z "},"Ŝ":{"ha":738,"x_min":83,"x_max":661,"o":"m 367 -14 q 221 2 281 -14 q 97 50 161 18 l 83 278 l 106 278 l 174 131 q 271 70 224 89 q 367 51 318 51 q 495 94 449 51 q 542 211 542 138 q 515 307 542 272 q 437 369 488 342 q 317 431 386 396 q 206 496 251 464 q 136 570 160 528 q 113 676 113 613 q 135 769 113 724 q 198 851 158 814 q 287 909 238 888 q 389 931 336 931 q 507 915 453 931 q 618 872 561 900 l 632 650 l 610 650 l 546 796 q 461 848 497 832 q 378 864 425 864 q 277 822 317 864 q 238 719 238 781 q 281 609 238 649 q 415 525 324 569 q 554 448 500 483 q 635 367 608 413 q 661 250 661 321 q 633 135 661 185 q 562 53 606 86 q 466 3 518 19 q 367 -14 414 -14 m 174 986 l 357 1197 l 399 1197 l 582 986 l 567 986 l 378 1090 l 189 986 l 174 986 z "},"Š":{"ha":738,"x_min":83,"x_max":661,"o":"m 367 -14 q 221 2 281 -14 q 97 50 161 18 l 83 278 l 106 278 l 174 131 q 271 70 224 89 q 367 51 318 51 q 495 94 449 51 q 542 211 542 138 q 515 307 542 272 q 437 369 488 342 q 317 431 386 396 q 206 496 251 464 q 136 570 160 528 q 113 676 113 613 q 135 769 113 724 q 198 851 158 814 q 287 909 238 888 q 389 931 336 931 q 507 915 453 931 q 618 872 561 900 l 632 650 l 610 650 l 546 796 q 461 848 497 832 q 378 864 425 864 q 277 822 317 864 q 238 719 238 781 q 281 609 238 649 q 415 525 324 569 q 554 448 500 483 q 635 367 608 413 q 661 250 661 321 q 633 135 661 185 q 562 53 606 86 q 466 3 518 19 q 367 -14 414 -14 m 357 986 l 174 1197 l 189 1197 l 378 1093 l 567 1197 l 582 1197 l 399 986 l 357 986 z "},"Ş":{"ha":738,"x_min":83,"x_max":661,"o":"m 378 -333 q 263 -292 299 -333 l 263 -275 l 267 -275 q 306 -287 286 -283 q 354 -292 326 -292 q 413 -276 396 -292 q 429 -237 429 -260 q 400 -188 429 -207 q 289 -143 371 -169 l 349 -14 q 215 3 271 -12 q 97 50 158 19 l 83 278 l 106 278 l 174 131 q 271 70 224 89 q 367 51 318 51 q 495 94 449 51 q 542 211 542 138 q 515 307 542 272 q 437 369 488 342 q 317 431 386 396 q 206 496 251 464 q 136 570 160 528 q 113 676 113 613 q 135 769 113 724 q 198 851 158 814 q 287 909 238 888 q 389 931 336 931 q 507 915 453 931 q 618 872 561 900 l 632 650 l 610 650 l 546 796 q 462 848 499 832 q 378 864 425 864 q 277 822 317 864 q 238 719 238 781 q 281 609 238 649 q 415 525 324 569 q 554 448 500 483 q 635 367 608 413 q 661 250 661 321 q 621 115 661 171 q 520 26 581 58 q 399 -12 460 -6 l 369 -76 q 481 -131 449 -101 q 513 -215 513 -160 q 478 -299 513 -265 q 378 -333 443 -333 z "},"Ș":{"ha":738,"x_min":83,"x_max":661,"o":"m 367 -14 q 221 2 281 -14 q 97 50 161 18 l 83 278 l 106 278 l 174 131 q 271 70 224 89 q 367 51 318 51 q 495 94 449 51 q 542 211 542 138 q 515 307 542 272 q 437 369 488 342 q 317 431 386 396 q 206 496 251 464 q 136 570 160 528 q 113 676 113 613 q 135 769 113 724 q 198 851 158 814 q 287 909 238 888 q 389 931 336 931 q 507 915 453 931 q 618 872 561 900 l 632 650 l 610 650 l 546 796 q 461 848 497 832 q 378 864 425 864 q 277 822 317 864 q 238 719 238 781 q 281 609 238 649 q 415 525 324 569 q 554 448 500 483 q 635 367 608 413 q 661 250 661 321 q 633 135 661 185 q 562 53 606 86 q 466 3 518 19 q 367 -14 414 -14 z "},"Ṡ":{"ha":738,"x_min":83,"x_max":661,"o":"m 367 -14 q 221 2 281 -14 q 97 50 161 18 l 83 278 l 106 278 l 174 131 q 271 70 224 89 q 367 51 318 51 q 495 94 449 51 q 542 211 542 138 q 515 307 542 272 q 437 369 488 342 q 317 431 386 396 q 206 496 251 464 q 136 570 160 528 q 113 676 113 613 q 135 769 113 724 q 198 851 158 814 q 287 909 238 888 q 389 931 336 931 q 507 915 453 931 q 618 872 561 900 l 632 650 l 610 650 l 546 796 q 461 848 497 832 q 378 864 425 864 q 277 822 317 864 q 238 719 238 781 q 281 609 238 649 q 415 525 324 569 q 554 448 500 483 q 635 367 608 413 q 661 250 661 321 q 633 135 661 185 q 562 53 606 86 q 466 3 518 19 q 367 -14 414 -14 m 378 1008 q 319 1033 343 1008 q 294 1092 294 1057 q 319 1151 294 1126 q 378 1175 343 1175 q 437 1151 413 1175 q 461 1092 461 1126 q 437 1033 461 1057 q 378 1008 413 1008 z "},"Ṣ":{"ha":738,"x_min":83,"x_max":661,"o":"m 367 -14 q 221 2 281 -14 q 97 50 161 18 l 83 278 l 106 278 l 174 131 q 271 70 224 89 q 367 51 318 51 q 495 94 449 51 q 542 211 542 138 q 515 307 542 272 q 437 369 488 342 q 317 431 386 396 q 206 496 251 464 q 136 570 160 528 q 113 676 113 613 q 135 769 113 724 q 198 851 158 814 q 287 909 238 888 q 389 931 336 931 q 507 915 453 931 q 618 872 561 900 l 632 650 l 610 650 l 546 796 q 461 848 497 832 q 378 864 425 864 q 277 822 317 864 q 238 719 238 781 q 281 609 238 649 q 415 525 324 569 q 554 448 500 483 q 635 367 608 413 q 661 250 661 321 q 633 135 661 185 q 562 53 606 86 q 466 3 518 19 q 367 -14 414 -14 z "},"Ṥ":{"ha":738,"x_min":83,"x_max":661,"o":"m 367 -14 q 221 2 281 -14 q 97 50 161 18 l 83 278 l 106 278 l 174 131 q 271 70 224 89 q 367 51 318 51 q 495 94 449 51 q 542 211 542 138 q 515 307 542 272 q 437 369 488 342 q 317 431 386 396 q 206 496 251 464 q 136 570 160 528 q 113 676 113 613 q 135 769 113 724 q 198 851 158 814 q 287 909 238 888 q 389 931 336 931 q 507 915 453 931 q 618 872 561 900 l 632 650 l 610 650 l 546 796 q 461 848 497 832 q 378 864 425 864 q 277 822 317 864 q 238 719 238 781 q 281 609 238 649 q 415 525 324 569 q 554 448 500 483 q 635 367 608 413 q 661 250 661 321 q 633 135 661 185 q 562 53 606 86 q 466 3 518 19 q 367 -14 414 -14 z "},"Ṧ":{"ha":738,"x_min":83,"x_max":661,"o":"m 367 -14 q 221 2 281 -14 q 97 50 161 18 l 83 278 l 106 278 l 174 131 q 271 70 224 89 q 367 51 318 51 q 495 94 449 51 q 542 211 542 138 q 515 307 542 272 q 437 369 488 342 q 317 431 386 396 q 206 496 251 464 q 136 570 160 528 q 113 676 113 613 q 135 769 113 724 q 198 851 158 814 q 287 909 238 888 q 389 931 336 931 q 507 915 453 931 q 618 872 561 900 l 632 650 l 610 650 l 546 796 q 461 848 497 832 q 378 864 425 864 q 277 822 317 864 q 238 719 238 781 q 281 609 238 649 q 415 525 324 569 q 554 448 500 483 q 635 367 608 413 q 661 250 661 321 q 633 135 661 185 q 562 53 606 86 q 466 3 518 19 q 367 -14 414 -14 z "},"Ṩ":{"ha":738,"x_min":83,"x_max":661,"o":"m 367 -14 q 221 2 281 -14 q 97 50 161 18 l 83 278 l 106 278 l 174 131 q 271 70 224 89 q 367 51 318 51 q 495 94 449 51 q 542 211 542 138 q 515 307 542 272 q 437 369 488 342 q 317 431 386 396 q 206 496 251 464 q 136 570 160 528 q 113 676 113 613 q 135 769 113 724 q 198 851 158 814 q 287 909 238 888 q 389 931 336 931 q 507 915 453 931 q 618 872 561 900 l 632 650 l 610 650 l 546 796 q 461 848 497 832 q 378 864 425 864 q 277 822 317 864 q 238 719 238 781 q 281 609 238 649 q 415 525 324 569 q 554 448 500 483 q 635 367 608 413 q 661 250 661 321 q 633 135 661 185 q 562 53 606 86 q 466 3 518 19 q 367 -14 414 -14 m 378 1008 q 319 1033 343 1008 q 294 1092 294 1057 q 319 1151 294 1126 q 378 1175 343 1175 q 437 1151 413 1175 q 461 1092 461 1126 q 437 1033 461 1057 q 378 1008 413 1008 z "},"Ť":{"ha":936,"x_min":63,"x_max":874,"o":"m 267 0 l 267 22 l 406 78 l 406 840 l 179 840 l 85 636 l 63 636 l 63 917 l 874 917 l 874 636 l 851 636 l 757 840 l 531 840 l 531 78 l 669 22 l 669 0 l 267 0 m 447 986 l 264 1197 l 279 1197 l 468 1093 l 657 1197 l 672 1197 l 489 986 l 447 986 z "},"Ț":{"ha":936,"x_min":63,"x_max":874,"o":"m 267 0 l 267 22 l 406 78 l 406 840 l 179 840 l 85 636 l 63 636 l 63 917 l 874 917 l 874 636 l 851 636 l 757 840 l 531 840 l 531 78 l 669 22 l 669 0 l 267 0 z "},"Ŧ":{"ha":936,"x_min":63,"x_max":874,"o":"m 267 0 l 267 22 l 406 78 l 406 440 l 233 440 l 233 510 l 406 510 l 406 840 l 179 840 l 85 636 l 63 636 l 63 917 l 874 917 l 874 636 l 851 636 l 757 840 l 531 840 l 531 510 l 703 510 l 703 440 l 531 440 l 531 78 l 669 22 l 669 0 l 267 0 z "},"Ţ":{"ha":936,"x_min":63,"x_max":874,"o":"m 267 0 l 267 22 l 406 78 l 406 840 l 179 840 l 85 636 l 63 636 l 63 917 l 874 917 l 874 636 l 851 636 l 757 840 l 531 840 l 531 78 l 669 22 l 669 0 l 494 0 l 460 -76 q 571 -131 539 -101 q 603 -215 603 -160 q 568 -299 603 -265 q 468 -333 533 -333 q 353 -292 389 -333 l 353 -275 l 357 -275 q 396 -287 375 -283 q 444 -292 417 -292 q 503 -276 486 -292 q 519 -237 519 -260 q 490 -188 519 -207 q 379 -143 461 -169 l 446 0 l 267 0 z "},"Ṭ":{"ha":936,"x_min":63,"x_max":874,"o":"m 267 0 l 267 22 l 406 78 l 406 840 l 179 840 l 85 636 l 63 636 l 63 917 l 874 917 l 874 636 l 851 636 l 757 840 l 531 840 l 531 78 l 669 22 l 669 0 l 267 0 z "},"Ṯ":{"ha":936,"x_min":63,"x_max":874,"o":"m 267 0 l 267 22 l 406 78 l 406 840 l 179 840 l 85 636 l 63 636 l 63 917 l 874 917 l 874 636 l 851 636 l 757 840 l 531 840 l 531 78 l 669 22 l 669 0 l 267 0 z "},"Ù":{"ha":1124,"x_min":90,"x_max":1033,"o":"m 563 -14 q 377 25 458 -14 q 249 145 296 64 q 201 356 201 226 l 201 839 l 90 894 l 90 917 l 438 917 l 438 894 l 326 839 l 326 376 q 363 193 326 261 q 460 96 399 125 q 599 67 522 67 q 712 93 660 67 q 795 176 764 119 q 826 328 826 233 l 826 842 l 688 894 l 688 917 l 1033 917 l 1033 894 l 924 840 l 924 356 q 876 145 924 226 q 748 25 829 64 q 563 -14 667 -14 m 568 986 l 394 1110 q 356 1154 364 1132 q 349 1197 349 1176 l 463 1197 l 583 986 l 568 986 z "},"Ú":{"ha":1124,"x_min":90,"x_max":1033,"o":"m 563 -14 q 377 25 458 -14 q 249 145 296 64 q 201 356 201 226 l 201 839 l 90 894 l 90 917 l 438 917 l 438 894 l 326 839 l 326 376 q 363 193 326 261 q 460 96 399 125 q 599 67 522 67 q 712 93 660 67 q 795 176 764 119 q 826 328 826 233 l 826 842 l 688 894 l 688 917 l 1033 917 l 1033 894 l 924 840 l 924 356 q 876 145 924 226 q 748 25 829 64 q 563 -14 667 -14 m 569 986 l 690 1197 l 804 1197 q 797 1154 804 1176 q 758 1110 789 1132 l 585 986 l 569 986 z "},"Û":{"ha":1124,"x_min":90,"x_max":1033,"o":"m 563 -14 q 377 25 458 -14 q 249 145 296 64 q 201 356 201 226 l 201 839 l 90 894 l 90 917 l 438 917 l 438 894 l 326 839 l 326 376 q 363 193 326 261 q 460 96 399 125 q 599 67 522 67 q 712 93 660 67 q 795 176 764 119 q 826 328 826 233 l 826 842 l 688 894 l 688 917 l 1033 917 l 1033 894 l 924 840 l 924 356 q 876 145 924 226 q 748 25 829 64 q 563 -14 667 -14 m 372 986 l 556 1197 l 597 1197 l 781 986 l 765 986 l 576 1090 l 388 986 l 372 986 z "},"Ũ":{"ha":1124,"x_min":90,"x_max":1033,"o":"m 563 -14 q 377 25 458 -14 q 249 145 296 64 q 201 356 201 226 l 201 839 l 90 894 l 90 917 l 438 917 l 438 894 l 326 839 l 326 376 q 363 193 326 261 q 460 96 399 125 q 599 67 522 67 q 712 93 660 67 q 795 176 764 119 q 826 328 826 233 l 826 842 l 688 894 l 688 917 l 1033 917 l 1033 894 l 924 840 l 924 356 q 876 145 924 226 q 748 25 829 64 q 563 -14 667 -14 m 365 1008 q 408 1112 388 1078 q 449 1156 428 1146 q 497 1167 471 1167 q 564 1149 533 1167 q 623 1113 594 1131 q 683 1094 651 1094 q 731 1108 710 1094 q 769 1167 751 1122 l 788 1167 q 745 1063 765 1097 q 703 1019 725 1029 q 656 1008 682 1008 q 589 1026 619 1008 q 530 1063 558 1044 q 469 1081 501 1081 q 422 1067 443 1081 q 383 1008 401 1053 l 365 1008 z "},"Ü":{"ha":1124,"x_min":90,"x_max":1033,"o":"m 563 -14 q 377 25 458 -14 q 249 145 296 64 q 201 356 201 226 l 201 839 l 90 894 l 90 917 l 438 917 l 438 894 l 326 839 l 326 376 q 363 193 326 261 q 460 96 399 125 q 599 67 522 67 q 712 93 660 67 q 795 176 764 119 q 826 328 826 233 l 826 842 l 688 894 l 688 917 l 1033 917 l 1033 894 l 924 840 l 924 356 q 876 145 924 226 q 748 25 829 64 q 563 -14 667 -14 m 449 1024 q 400 1043 419 1024 q 381 1092 381 1063 q 400 1140 381 1121 q 449 1160 419 1160 q 497 1140 478 1160 q 517 1092 517 1121 q 497 1043 517 1063 q 449 1024 478 1024 m 704 1024 q 656 1043 675 1024 q 636 1092 636 1063 q 656 1140 636 1121 q 704 1160 675 1160 q 753 1140 733 1160 q 772 1092 772 1121 q 753 1043 772 1063 q 704 1024 733 1024 z "},"Ū":{"ha":1124,"x_min":90,"x_max":1033,"o":"m 563 -14 q 377 25 458 -14 q 249 145 296 64 q 201 356 201 226 l 201 839 l 90 894 l 90 917 l 438 917 l 438 894 l 326 839 l 326 376 q 363 193 326 261 q 460 96 399 125 q 599 67 522 67 q 712 93 660 67 q 795 176 764 119 q 826 328 826 233 l 826 842 l 688 894 l 688 917 l 1033 917 l 1033 894 l 924 840 l 924 356 q 876 145 924 226 q 748 25 829 64 q 563 -14 667 -14 m 392 1061 l 392 1131 l 761 1131 l 761 1061 l 392 1061 z "},"Ŭ":{"ha":1124,"x_min":90,"x_max":1033,"o":"m 563 -14 q 377 25 458 -14 q 249 145 296 64 q 201 356 201 226 l 201 839 l 90 894 l 90 917 l 438 917 l 438 894 l 326 839 l 326 376 q 363 193 326 261 q 460 96 399 125 q 599 67 522 67 q 712 93 660 67 q 795 176 764 119 q 826 328 826 233 l 826 842 l 688 894 l 688 917 l 1033 917 l 1033 894 l 924 840 l 924 356 q 876 145 924 226 q 748 25 829 64 q 563 -14 667 -14 m 576 986 q 442 1043 488 986 q 374 1197 397 1100 l 389 1197 q 440 1122 415 1147 q 497 1088 464 1097 q 576 1079 529 1079 q 656 1088 624 1079 q 713 1122 688 1097 q 764 1197 738 1147 l 779 1197 q 710 1043 754 1100 q 576 986 665 986 z "},"Ů":{"ha":1124,"x_min":90,"x_max":1033,"o":"m 563 -14 q 377 25 458 -14 q 249 145 296 64 q 201 356 201 226 l 201 839 l 90 894 l 90 917 l 438 917 l 438 894 l 326 839 l 326 376 q 363 193 326 261 q 460 96 399 125 q 599 67 522 67 q 712 93 660 67 q 795 176 764 119 q 826 328 826 233 l 826 842 l 688 894 l 688 917 l 1033 917 l 1033 894 l 924 840 l 924 356 q 876 145 924 226 q 748 25 829 64 q 563 -14 667 -14 m 576 986 q 490 1019 524 986 q 457 1101 457 1051 q 490 1183 457 1150 q 576 1217 524 1217 q 663 1183 631 1217 q 696 1101 696 1150 q 663 1019 696 1051 q 576 986 631 986 m 583 1019 q 629 1092 629 1019 q 571 1183 629 1183 q 538 1167 549 1183 q 526 1111 526 1150 q 583 1019 526 1019 z "},"Ű":{"ha":1124,"x_min":90,"x_max":1033,"o":"m 563 -14 q 377 25 458 -14 q 249 145 296 64 q 201 356 201 226 l 201 839 l 90 894 l 90 917 l 438 917 l 438 894 l 326 839 l 326 376 q 363 193 326 261 q 460 96 399 125 q 599 67 522 67 q 712 93 660 67 q 795 176 764 119 q 826 328 826 233 l 826 842 l 688 894 l 688 917 l 1033 917 l 1033 894 l 924 840 l 924 356 q 876 145 924 226 q 748 25 829 64 q 563 -14 667 -14 m 489 986 l 556 1197 l 643 1197 q 649 1154 650 1176 q 626 1110 649 1132 l 504 986 l 489 986 m 647 986 l 728 1197 l 815 1197 q 822 1153 822 1176 q 799 1110 822 1131 l 663 986 l 647 986 z "},"Ų":{"ha":1124,"x_min":90,"x_max":1033,"o":"m 585 -333 q 486 -300 525 -333 q 447 -211 447 -267 q 477 -117 447 -164 q 556 -14 507 -69 q 374 26 454 -12 q 247 147 293 65 q 201 356 201 228 l 201 839 l 90 894 l 90 917 l 438 917 l 438 894 l 326 839 l 326 376 q 363 193 326 261 q 460 96 399 125 q 599 67 522 67 q 712 93 660 67 q 795 176 764 119 q 826 328 826 233 l 826 842 l 688 894 l 688 917 l 1033 917 l 1033 894 l 924 840 l 924 356 q 881 153 924 233 q 765 33 839 74 q 596 -12 690 -7 q 552 -103 565 -62 q 539 -181 539 -143 q 563 -249 539 -228 q 629 -271 586 -271 q 663 -267 644 -271 q 699 -254 681 -264 l 703 -254 l 703 -271 q 654 -317 683 -300 q 585 -333 625 -333 z "},"Ụ":{"ha":1124,"x_min":90,"x_max":1033,"o":"m 563 -14 q 377 25 458 -14 q 249 145 296 64 q 201 356 201 226 l 201 839 l 90 894 l 90 917 l 438 917 l 438 894 l 326 839 l 326 376 q 363 193 326 261 q 460 96 399 125 q 599 67 522 67 q 712 93 660 67 q 795 176 764 119 q 826 328 826 233 l 826 842 l 688 894 l 688 917 l 1033 917 l 1033 894 l 924 840 l 924 356 q 876 145 924 226 q 748 25 829 64 q 563 -14 667 -14 z "},"Ȕ":{"ha":1124,"x_min":90,"x_max":1033,"o":"m 563 -14 q 377 25 458 -14 q 249 145 296 64 q 201 356 201 226 l 201 839 l 90 894 l 90 917 l 438 917 l 438 894 l 326 839 l 326 376 q 363 193 326 261 q 460 96 399 125 q 599 67 522 67 q 712 93 660 67 q 795 176 764 119 q 826 328 826 233 l 826 842 l 688 894 l 688 917 l 1033 917 l 1033 894 l 924 840 l 924 356 q 876 145 924 226 q 748 25 829 64 q 563 -14 667 -14 m 488 986 l 344 1110 q 322 1153 322 1129 q 328 1197 321 1176 l 415 1197 l 503 986 l 488 986 m 647 986 l 518 1110 q 495 1154 496 1132 q 501 1197 494 1176 l 589 1197 l 663 986 l 647 986 z "},"Ȗ":{"ha":1124,"x_min":90,"x_max":1033,"o":"m 563 -14 q 377 25 458 -14 q 249 145 296 64 q 201 356 201 226 l 201 839 l 90 894 l 90 917 l 438 917 l 438 894 l 326 839 l 326 376 q 363 193 326 261 q 460 96 399 125 q 599 67 522 67 q 712 93 660 67 q 795 176 764 119 q 826 328 826 233 l 826 842 l 688 894 l 688 917 l 1033 917 l 1033 894 l 924 840 l 924 356 q 876 145 924 226 q 748 25 829 64 q 563 -14 667 -14 m 374 986 q 443 1140 399 1083 q 576 1197 488 1197 q 710 1140 665 1197 q 779 986 756 1083 l 764 986 q 713 1061 738 1036 q 656 1095 689 1086 q 576 1104 624 1104 q 497 1095 529 1104 q 440 1061 465 1086 q 389 986 415 1036 l 374 986 z "},"Ủ":{"ha":1124,"x_min":90,"x_max":1033,"o":"m 563 -14 q 377 25 458 -14 q 249 145 296 64 q 201 356 201 226 l 201 839 l 90 894 l 90 917 l 438 917 l 438 894 l 326 839 l 326 376 q 363 193 326 261 q 460 96 399 125 q 599 67 522 67 q 712 93 660 67 q 795 176 764 119 q 826 328 826 233 l 826 842 l 688 894 l 688 917 l 1033 917 l 1033 894 l 924 840 l 924 356 q 876 145 924 226 q 748 25 829 64 q 563 -14 667 -14 m 511 985 l 511 986 q 582 1020 557 1003 q 607 1071 607 1038 q 583 1111 607 1094 q 499 1138 558 1128 l 514 1215 q 646 1173 608 1207 q 683 1103 683 1139 q 521 975 683 996 l 511 985 z "},"Ṹ":{"ha":1124,"x_min":90,"x_max":1033,"o":"m 563 -14 q 377 25 458 -14 q 249 145 296 64 q 201 356 201 226 l 201 839 l 90 894 l 90 917 l 438 917 l 438 894 l 326 839 l 326 376 q 363 193 326 261 q 460 96 399 125 q 599 67 522 67 q 712 93 660 67 q 795 176 764 119 q 826 328 826 233 l 826 842 l 688 894 l 688 917 l 1033 917 l 1033 894 l 924 840 l 924 356 q 876 145 924 226 q 748 25 829 64 q 563 -14 667 -14 z "},"Ṻ":{"ha":1124,"x_min":90,"x_max":1033,"o":"m 563 -14 q 377 25 458 -14 q 249 145 296 64 q 201 356 201 226 l 201 839 l 90 894 l 90 917 l 438 917 l 438 894 l 326 839 l 326 376 q 363 193 326 261 q 460 96 399 125 q 599 67 522 67 q 712 93 660 67 q 795 176 764 119 q 826 328 826 233 l 826 842 l 688 894 l 688 917 l 1033 917 l 1033 894 l 924 840 l 924 356 q 876 145 924 226 q 748 25 829 64 q 563 -14 667 -14 z "},"Ư":{"ha":1124,"x_min":90,"x_max":1207,"o":"m 563 -14 q 377 25 458 -14 q 249 145 296 64 q 201 356 201 226 l 201 839 l 90 894 l 90 917 l 438 917 l 438 894 l 326 839 l 326 376 q 363 193 326 261 q 460 96 399 125 q 599 67 522 67 q 712 93 660 67 q 795 176 764 119 q 826 328 826 233 l 826 842 l 688 894 l 688 917 l 1042 917 q 1097 936 1081 917 q 1113 990 1113 956 l 1113 1038 l 1121 1046 l 1169 1046 q 1199 1038 1192 1046 q 1207 1003 1207 1031 q 1166 917 1207 943 q 1065 892 1125 892 l 1028 892 l 924 840 l 924 356 q 876 145 924 226 q 748 25 829 64 q 563 -14 667 -14 z "},"Ứ":{"ha":1124,"x_min":90,"x_max":1207,"o":"m 563 -14 q 377 25 458 -14 q 249 145 296 64 q 201 356 201 226 l 201 839 l 90 894 l 90 917 l 438 917 l 438 894 l 326 839 l 326 376 q 363 193 326 261 q 460 96 399 125 q 599 67 522 67 q 712 93 660 67 q 795 176 764 119 q 826 328 826 233 l 826 842 l 688 894 l 688 917 l 1042 917 q 1097 936 1081 917 q 1113 990 1113 956 l 1113 1038 l 1121 1046 l 1169 1046 q 1199 1038 1192 1046 q 1207 1003 1207 1031 q 1166 917 1207 943 q 1065 892 1125 892 l 1028 892 l 924 840 l 924 356 q 876 145 924 226 q 748 25 829 64 q 563 -14 667 -14 m 569 986 l 690 1197 l 804 1197 q 797 1154 804 1176 q 758 1110 789 1132 l 585 986 l 569 986 z "},"Ự":{"ha":1124,"x_min":90,"x_max":1207,"o":"m 563 -14 q 377 25 458 -14 q 249 145 296 64 q 201 356 201 226 l 201 839 l 90 894 l 90 917 l 438 917 l 438 894 l 326 839 l 326 376 q 363 193 326 261 q 460 96 399 125 q 599 67 522 67 q 712 93 660 67 q 795 176 764 119 q 826 328 826 233 l 826 842 l 688 894 l 688 917 l 1042 917 q 1097 936 1081 917 q 1113 990 1113 956 l 1113 1038 l 1121 1046 l 1169 1046 q 1199 1038 1192 1046 q 1207 1003 1207 1031 q 1166 917 1207 943 q 1065 892 1125 892 l 1028 892 l 924 840 l 924 356 q 876 145 924 226 q 748 25 829 64 q 563 -14 667 -14 z "},"Ừ":{"ha":1124,"x_min":90,"x_max":1207,"o":"m 563 -14 q 377 25 458 -14 q 249 145 296 64 q 201 356 201 226 l 201 839 l 90 894 l 90 917 l 438 917 l 438 894 l 326 839 l 326 376 q 363 193 326 261 q 460 96 399 125 q 599 67 522 67 q 712 93 660 67 q 795 176 764 119 q 826 328 826 233 l 826 842 l 688 894 l 688 917 l 1042 917 q 1097 936 1081 917 q 1113 990 1113 956 l 1113 1038 l 1121 1046 l 1169 1046 q 1199 1038 1192 1046 q 1207 1003 1207 1031 q 1166 917 1207 943 q 1065 892 1125 892 l 1028 892 l 924 840 l 924 356 q 876 145 924 226 q 748 25 829 64 q 563 -14 667 -14 m 568 986 l 394 1110 q 356 1154 364 1132 q 349 1197 349 1176 l 463 1197 l 583 986 l 568 986 z "},"Ử":{"ha":1124,"x_min":90,"x_max":1207,"o":"m 563 -14 q 377 25 458 -14 q 249 145 296 64 q 201 356 201 226 l 201 839 l 90 894 l 90 917 l 438 917 l 438 894 l 326 839 l 326 376 q 363 193 326 261 q 460 96 399 125 q 599 67 522 67 q 712 93 660 67 q 795 176 764 119 q 826 328 826 233 l 826 842 l 688 894 l 688 917 l 1042 917 q 1097 936 1081 917 q 1113 990 1113 956 l 1113 1038 l 1121 1046 l 1169 1046 q 1199 1038 1192 1046 q 1207 1003 1207 1031 q 1166 917 1207 943 q 1065 892 1125 892 l 1028 892 l 924 840 l 924 356 q 876 145 924 226 q 748 25 829 64 q 563 -14 667 -14 m 511 985 l 511 986 q 582 1020 557 1003 q 607 1071 607 1038 q 583 1111 607 1094 q 499 1138 558 1128 l 514 1215 q 646 1173 608 1207 q 683 1103 683 1139 q 521 975 683 996 l 511 985 z "},"Ữ":{"ha":1124,"x_min":90,"x_max":1207,"o":"m 563 -14 q 377 25 458 -14 q 249 145 296 64 q 201 356 201 226 l 201 839 l 90 894 l 90 917 l 438 917 l 438 894 l 326 839 l 326 376 q 363 193 326 261 q 460 96 399 125 q 599 67 522 67 q 712 93 660 67 q 795 176 764 119 q 826 328 826 233 l 826 842 l 688 894 l 688 917 l 1042 917 q 1097 936 1081 917 q 1113 990 1113 956 l 1113 1038 l 1121 1046 l 1169 1046 q 1199 1038 1192 1046 q 1207 1003 1207 1031 q 1166 917 1207 943 q 1065 892 1125 892 l 1028 892 l 924 840 l 924 356 q 876 145 924 226 q 748 25 829 64 q 563 -14 667 -14 m 365 1008 q 408 1112 388 1078 q 449 1156 428 1146 q 497 1167 471 1167 q 564 1149 533 1167 q 623 1113 594 1131 q 683 1094 651 1094 q 731 1108 710 1094 q 769 1167 751 1122 l 788 1167 q 745 1063 765 1097 q 703 1019 725 1029 q 656 1008 682 1008 q 589 1026 619 1008 q 530 1063 558 1044 q 469 1081 501 1081 q 422 1067 443 1081 q 383 1008 401 1053 l 365 1008 z "},"Ẁ":{"ha":1363,"x_min":21,"x_max":1342,"o":"m 381 -7 l 125 844 l 21 894 l 21 917 l 374 917 l 374 894 l 256 843 l 429 242 l 436 242 l 676 924 l 728 924 l 974 242 l 982 242 l 1153 842 l 1035 894 l 1035 917 l 1342 917 l 1342 894 l 1249 843 l 990 -7 l 942 -7 l 689 674 l 682 674 l 429 -7 l 381 -7 m 694 986 l 521 1110 q 483 1154 490 1132 q 475 1197 475 1176 l 589 1197 l 710 986 l 694 986 z "},"Ẃ":{"ha":1363,"x_min":21,"x_max":1342,"o":"m 381 -7 l 125 844 l 21 894 l 21 917 l 374 917 l 374 894 l 256 843 l 429 242 l 436 242 l 676 924 l 728 924 l 974 242 l 982 242 l 1153 842 l 1035 894 l 1035 917 l 1342 917 l 1342 894 l 1249 843 l 990 -7 l 942 -7 l 689 674 l 682 674 l 429 -7 l 381 -7 m 696 986 l 817 1197 l 931 1197 q 923 1154 931 1176 q 885 1110 915 1132 l 711 986 l 696 986 z "},"Ŵ":{"ha":1363,"x_min":21,"x_max":1342,"o":"m 381 -7 l 125 844 l 21 894 l 21 917 l 374 917 l 374 894 l 256 843 l 429 242 l 436 242 l 676 924 l 728 924 l 974 242 l 982 242 l 1153 842 l 1035 894 l 1035 917 l 1342 917 l 1342 894 l 1249 843 l 990 -7 l 942 -7 l 689 674 l 682 674 l 429 -7 l 381 -7 m 499 986 l 682 1197 l 724 1197 l 907 986 l 892 986 l 703 1090 l 514 986 l 499 986 z "},"Ẅ":{"ha":1363,"x_min":21,"x_max":1342,"o":"m 381 -7 l 125 844 l 21 894 l 21 917 l 374 917 l 374 894 l 256 843 l 429 242 l 436 242 l 676 924 l 728 924 l 974 242 l 982 242 l 1153 842 l 1035 894 l 1035 917 l 1342 917 l 1342 894 l 1249 843 l 990 -7 l 942 -7 l 689 674 l 682 674 l 429 -7 l 381 -7 m 575 1024 q 526 1043 546 1024 q 507 1092 507 1063 q 526 1140 507 1121 q 575 1160 546 1160 q 624 1140 604 1160 q 643 1092 643 1121 q 624 1043 643 1063 q 575 1024 604 1024 m 831 1024 q 782 1043 801 1024 q 763 1092 763 1063 q 782 1140 763 1121 q 831 1160 801 1160 q 879 1140 860 1160 q 899 1092 899 1121 q 879 1043 899 1063 q 831 1024 860 1024 z "},"Ỳ":{"ha":997,"x_min":49,"x_max":949,"o":"m 317 0 l 317 22 l 442 78 l 442 428 l 133 849 l 49 894 l 49 917 l 385 917 l 385 894 l 283 846 l 283 840 l 532 503 l 756 839 l 756 844 l 654 894 l 654 917 l 949 917 l 949 894 l 860 849 l 567 429 l 567 78 l 692 22 l 692 0 l 317 0 m 511 986 l 338 1110 q 299 1154 307 1132 q 292 1197 292 1176 l 406 1197 l 526 986 l 511 986 z "},"Ý":{"ha":997,"x_min":49,"x_max":949,"o":"m 317 0 l 317 22 l 442 78 l 442 428 l 133 849 l 49 894 l 49 917 l 385 917 l 385 894 l 283 846 l 283 840 l 532 503 l 756 839 l 756 844 l 654 894 l 654 917 l 949 917 l 949 894 l 860 849 l 567 429 l 567 78 l 692 22 l 692 0 l 317 0 m 513 986 l 633 1197 l 747 1197 q 740 1154 747 1176 q 701 1110 732 1132 l 528 986 l 513 986 z "},"Ŷ":{"ha":997,"x_min":49,"x_max":949,"o":"m 317 0 l 317 22 l 442 78 l 442 428 l 133 849 l 49 894 l 49 917 l 385 917 l 385 894 l 283 846 l 283 840 l 532 503 l 756 839 l 756 844 l 654 894 l 654 917 l 949 917 l 949 894 l 860 849 l 567 429 l 567 78 l 692 22 l 692 0 l 317 0 m 315 986 l 499 1197 l 540 1197 l 724 986 l 708 986 l 519 1090 l 331 986 l 315 986 z "},"Ÿ":{"ha":997,"x_min":49,"x_max":949,"o":"m 317 0 l 317 22 l 442 78 l 442 428 l 133 849 l 49 894 l 49 917 l 385 917 l 385 894 l 283 846 l 283 840 l 532 503 l 756 839 l 756 844 l 654 894 l 654 917 l 949 917 l 949 894 l 860 849 l 567 429 l 567 78 l 692 22 l 692 0 l 317 0 m 392 1024 q 343 1043 363 1024 q 324 1092 324 1063 q 343 1140 324 1121 q 392 1160 363 1160 q 440 1140 421 1160 q 460 1092 460 1121 q 440 1043 460 1063 q 392 1024 421 1024 m 647 1024 q 599 1043 618 1024 q 579 1092 579 1063 q 599 1140 579 1121 q 647 1160 618 1160 q 696 1140 676 1160 q 715 1092 715 1121 q 696 1043 715 1063 q 647 1024 676 1024 z "},"Ỹ":{"ha":997,"x_min":49,"x_max":949,"o":"m 317 0 l 317 22 l 442 78 l 442 428 l 133 849 l 49 894 l 49 917 l 385 917 l 385 894 l 283 846 l 283 840 l 532 503 l 756 839 l 756 844 l 654 894 l 654 917 l 949 917 l 949 894 l 860 849 l 567 429 l 567 78 l 692 22 l 692 0 l 317 0 m 308 1008 q 351 1112 331 1078 q 392 1156 371 1146 q 440 1167 414 1167 q 507 1149 476 1167 q 566 1113 538 1131 q 626 1094 594 1094 q 674 1108 653 1094 q 713 1167 694 1122 l 731 1167 q 688 1063 708 1097 q 647 1019 668 1029 q 599 1008 625 1008 q 532 1026 563 1008 q 473 1063 501 1044 q 413 1081 444 1081 q 365 1067 386 1081 q 326 1008 344 1053 l 308 1008 z "},"Ȳ":{"ha":997,"x_min":49,"x_max":949,"o":"m 317 0 l 317 22 l 442 78 l 442 428 l 133 849 l 49 894 l 49 917 l 385 917 l 385 894 l 283 846 l 283 840 l 532 503 l 756 839 l 756 844 l 654 894 l 654 917 l 949 917 l 949 894 l 860 849 l 567 429 l 567 78 l 692 22 l 692 0 l 317 0 m 335 1061 l 335 1131 l 704 1131 l 704 1061 l 335 1061 z "},"Ỵ":{"ha":997,"x_min":49,"x_max":949,"o":"m 317 0 l 317 22 l 442 78 l 442 428 l 133 849 l 49 894 l 49 917 l 385 917 l 385 894 l 283 846 l 283 840 l 532 503 l 756 839 l 756 844 l 654 894 l 654 917 l 949 917 l 949 894 l 860 849 l 567 429 l 567 78 l 692 22 l 692 0 l 317 0 z "},"Ỷ":{"ha":997,"x_min":49,"x_max":949,"o":"m 317 0 l 317 22 l 442 78 l 442 428 l 133 849 l 49 894 l 49 917 l 385 917 l 385 894 l 283 846 l 283 840 l 532 503 l 756 839 l 756 844 l 654 894 l 654 917 l 949 917 l 949 894 l 860 849 l 567 429 l 567 78 l 692 22 l 692 0 l 317 0 m 454 985 l 454 986 q 525 1020 500 1003 q 550 1071 550 1038 q 526 1111 550 1094 q 442 1138 501 1128 l 457 1215 q 589 1173 551 1207 q 626 1103 626 1139 q 464 975 626 996 l 454 985 z "},"Ẏ":{"ha":997,"x_min":49,"x_max":949,"o":"m 317 0 l 317 22 l 442 78 l 442 428 l 133 849 l 49 894 l 49 917 l 385 917 l 385 894 l 283 846 l 283 840 l 532 503 l 756 839 l 756 844 l 654 894 l 654 917 l 949 917 l 949 894 l 860 849 l 567 429 l 567 78 l 692 22 l 692 0 l 317 0 m 519 1008 q 460 1033 485 1008 q 436 1092 436 1057 q 460 1151 436 1126 q 519 1175 485 1175 q 578 1151 554 1175 q 603 1092 603 1126 q 578 1033 603 1057 q 519 1008 554 1008 z "},"Ź":{"ha":897,"x_min":125,"x_max":772,"o":"m 125 0 l 125 35 l 599 840 l 250 840 l 164 664 l 142 664 l 142 917 l 757 917 l 757 882 l 282 76 l 664 76 l 750 267 l 772 267 l 772 0 l 125 0 m 456 986 l 576 1197 l 690 1197 q 683 1154 690 1176 q 644 1110 675 1132 l 471 986 l 456 986 z "},"Ž":{"ha":897,"x_min":125,"x_max":772,"o":"m 125 0 l 125 35 l 599 840 l 250 840 l 164 664 l 142 664 l 142 917 l 757 917 l 757 882 l 282 76 l 664 76 l 750 267 l 772 267 l 772 0 l 125 0 m 442 986 l 258 1197 l 274 1197 l 463 1093 l 651 1197 l 667 1197 l 483 986 l 442 986 z "},"Ż":{"ha":897,"x_min":125,"x_max":772,"o":"m 125 0 l 125 35 l 599 840 l 250 840 l 164 664 l 142 664 l 142 917 l 757 917 l 757 882 l 282 76 l 664 76 l 750 267 l 772 267 l 772 0 l 125 0 m 463 1008 q 403 1033 428 1008 q 379 1092 379 1057 q 403 1151 379 1126 q 463 1175 428 1175 q 522 1151 497 1175 q 546 1092 546 1126 q 522 1033 546 1057 q 463 1008 497 1008 z "},"Ẓ":{"ha":897,"x_min":125,"x_max":772,"o":"m 125 0 l 125 35 l 599 840 l 250 840 l 164 664 l 142 664 l 142 917 l 757 917 l 757 882 l 282 76 l 664 76 l 750 267 l 772 267 l 772 0 l 125 0 z "},"Ə":{"ha":965,"x_min":97,"x_max":868,"o":"m 446 -14 q 193 96 288 -14 q 99 406 99 206 l 110 415 l 738 415 q 738 431 738 422 q 659 710 738 608 q 406 813 581 813 q 245 784 315 813 q 103 710 175 756 l 97 710 l 97 726 q 235 872 144 814 q 449 931 326 931 q 672 877 578 931 q 817 726 767 824 q 868 499 868 629 q 814 233 868 349 q 665 51 760 117 q 446 -14 569 -14 m 461 61 q 733 346 703 61 l 219 346 q 260 201 229 265 q 342 99 292 136 q 461 61 393 61 z "},"Ŋ":{"ha":1110,"x_min":83,"x_max":1026,"o":"m 83 0 l 83 22 l 194 78 l 194 836 l 85 894 l 85 917 l 289 917 l 819 251 l 819 842 l 681 894 l 681 917 l 1026 917 l 1026 894 l 917 840 l 917 -36 q 892 -190 917 -133 q 826 -278 867 -246 q 749 -319 794 -306 q 654 -333 703 -333 q 609 -325 622 -333 q 596 -293 596 -317 l 596 -224 l 601 -218 l 665 -218 q 788 -183 756 -218 q 819 -64 819 -149 l 819 50 l 292 708 l 292 76 l 431 22 l 431 0 l 83 0 z "},"Ð":{"ha":1076,"x_min":90,"x_max":979,"o":"m 90 0 l 90 22 l 201 78 l 201 440 l 90 440 l 90 510 l 201 510 l 201 839 l 90 894 l 90 917 l 497 917 q 758 863 650 917 q 923 714 867 808 q 979 500 979 619 q 942 300 979 392 q 839 142 906 208 q 683 38 772 75 q 488 0 593 0 l 90 0 m 569 440 l 326 440 l 326 76 l 486 76 q 678 123 597 76 q 803 255 760 169 q 847 457 847 340 q 803 659 847 572 q 673 793 758 746 q 465 840 588 840 l 326 840 l 326 510 l 569 510 l 569 440 z "},"Þ":{"ha":886,"x_min":90,"x_max":814,"o":"m 90 0 l 90 22 l 201 78 l 201 839 l 90 894 l 90 917 l 438 917 l 438 894 l 326 839 l 326 750 l 451 750 q 715 690 615 750 q 814 501 814 631 q 762 366 814 425 q 620 272 710 307 q 418 238 531 238 l 326 238 l 326 78 l 438 22 l 438 0 l 90 0 m 435 674 l 326 674 l 326 314 l 444 314 q 617 363 554 314 q 679 490 679 413 q 616 631 679 588 q 435 674 553 674 z "},"Ǆ":{"ha":1946,"x_min":90,"x_max":1821,"o":"m 90 0 l 90 22 l 201 78 l 201 839 l 90 894 l 90 917 l 497 917 q 758 863 650 917 q 923 714 867 808 q 979 500 979 619 q 942 300 979 392 q 839 142 906 208 q 683 38 772 75 q 488 0 593 0 l 90 0 m 465 840 l 326 840 l 326 76 l 486 76 q 678 123 597 76 q 803 255 760 169 q 847 457 847 340 q 803 659 847 572 q 673 793 758 746 q 465 840 588 840 m 1174 0 l 1174 35 l 1647 840 l 1299 840 l 1213 664 l 1190 664 l 1190 917 l 1806 917 l 1806 882 l 1331 76 l 1713 76 l 1799 267 l 1821 267 l 1821 0 l 1174 0 m 1490 986 l 1307 1197 l 1322 1197 l 1511 1093 l 1700 1197 l 1715 1197 l 1532 986 l 1490 986 z "},"Ǉ":{"ha":1419,"x_min":90,"x_max":1322,"o":"m 90 0 l 90 22 l 201 78 l 201 839 l 90 894 l 90 917 l 451 917 l 451 894 l 326 839 l 326 76 l 664 76 l 758 308 l 781 308 l 781 0 l 90 0 m 942 -240 q 910 -232 924 -240 q 896 -201 896 -224 q 898 -187 896 -199 q 910 -126 900 -176 l 918 -126 q 956 -136 942 -133 q 989 -139 969 -139 q 1041 -125 1019 -139 q 1074 -67 1063 -111 q 1086 71 1086 -22 l 1086 839 l 975 894 l 975 917 l 1322 917 l 1322 894 l 1211 839 l 1211 333 q 1186 53 1211 178 q 1101 -137 1161 -71 q 1036 -204 1061 -182 q 990 -233 1011 -226 q 942 -240 969 -240 z "},"Ǌ":{"ha":1651,"x_min":83,"x_max":1554,"o":"m 83 0 l 83 22 l 194 78 l 194 836 l 85 894 l 85 917 l 289 917 l 819 250 l 819 842 l 681 894 l 681 917 l 1026 917 l 1026 894 l 917 840 l 917 -7 l 865 -7 l 292 717 l 292 76 l 431 22 l 431 0 l 83 0 m 1174 -240 q 1142 -232 1156 -240 q 1128 -201 1128 -224 q 1130 -187 1128 -199 q 1142 -126 1132 -176 l 1150 -126 q 1188 -136 1174 -133 q 1221 -139 1201 -139 q 1273 -125 1251 -139 q 1306 -67 1294 -111 q 1318 71 1318 -22 l 1318 839 l 1207 894 l 1207 917 l 1554 917 l 1554 894 l 1443 839 l 1443 333 q 1418 53 1443 178 q 1333 -137 1393 -71 q 1268 -204 1293 -182 q 1222 -233 1243 -226 q 1174 -240 1201 -240 z "},"Ђ":{"ha":1092,"x_min":63,"x_max":994,"o":"m 239 0 l 239 22 l 378 78 l 378 840 l 179 840 l 85 636 l 63 636 l 63 917 l 860 917 l 860 650 l 838 650 l 743 840 l 503 840 l 503 444 q 617 516 550 490 q 760 542 685 542 q 878 519 825 542 q 963 439 931 497 q 994 271 994 381 q 983 115 994 193 q 947 -31 971 36 q 885 -137 922 -97 q 819 -204 844 -182 q 774 -233 794 -226 q 725 -240 753 -240 q 693 -232 707 -240 q 679 -201 679 -224 q 681 -187 679 -199 q 693 -126 683 -176 l 701 -126 q 739 -136 725 -133 q 772 -139 753 -139 q 824 -125 803 -139 q 858 -67 846 -111 q 869 71 869 -22 l 869 231 q 826 392 869 344 q 679 439 782 439 q 585 424 632 439 q 503 382 539 410 l 503 78 l 642 22 l 642 0 l 239 0 z "},"Є":{"ha":1008,"x_min":97,"x_max":881,"o":"m 556 -14 q 311 44 414 -14 q 153 203 208 103 q 97 433 97 304 q 135 622 97 532 q 240 781 174 711 q 392 890 306 850 q 576 931 479 931 q 694 922 646 931 q 781 898 743 913 q 858 864 819 883 l 865 621 l 840 621 l 756 790 q 663 844 703 828 q 574 861 624 861 q 403 817 479 861 q 281 693 328 772 q 228 511 235 614 l 542 511 l 611 626 l 633 626 l 633 322 l 611 322 l 542 435 l 228 435 q 280 231 235 315 q 396 101 325 146 q 553 57 467 57 q 681 78 629 57 q 774 126 733 100 l 857 275 l 881 275 l 865 54 q 783 18 825 33 q 686 -6 740 3 q 556 -14 632 -14 z "},"Ѕ":{"ha":738,"x_min":83,"x_max":661,"o":"m 367 -14 q 221 2 281 -14 q 97 50 161 18 l 83 278 l 106 278 l 174 131 q 271 70 224 89 q 367 51 318 51 q 495 94 449 51 q 542 211 542 138 q 515 307 542 272 q 437 369 488 342 q 317 431 386 396 q 206 496 251 464 q 136 570 160 528 q 113 676 113 613 q 135 769 113 724 q 198 851 158 814 q 287 909 238 888 q 389 931 336 931 q 507 915 453 931 q 618 872 561 900 l 632 650 l 610 650 l 546 796 q 461 848 497 832 q 378 864 425 864 q 277 822 317 864 q 238 719 238 781 q 281 609 238 649 q 415 525 324 569 q 554 448 500 483 q 635 367 608 413 q 661 250 661 321 q 633 135 661 185 q 562 53 606 86 q 466 3 518 19 q 367 -14 414 -14 z "},"І":{"ha":542,"x_min":97,"x_max":444,"o":"m 97 0 l 97 22 l 208 78 l 208 839 l 97 894 l 97 917 l 444 917 l 444 894 l 333 839 l 333 78 l 444 22 l 444 0 l 97 0 z "},"Ї":{"ha":542,"x_min":75,"x_max":467,"o":"m 97 0 l 97 22 l 208 78 l 208 839 l 97 894 l 97 917 l 444 917 l 444 894 l 333 839 l 333 78 l 444 22 l 444 0 l 97 0 m 143 1024 q 94 1043 114 1024 q 75 1092 75 1063 q 94 1140 75 1121 q 143 1160 114 1160 q 192 1140 172 1160 q 211 1092 211 1121 q 192 1043 211 1063 q 143 1024 172 1024 m 399 1024 q 350 1043 369 1024 q 331 1092 331 1063 q 350 1140 331 1121 q 399 1160 369 1160 q 447 1140 428 1160 q 467 1092 467 1121 q 447 1043 467 1063 q 399 1024 428 1024 z "},"Ј":{"ha":542,"x_min":18,"x_max":444,"o":"m 64 -240 q 32 -232 46 -240 q 18 -201 18 -224 q 20 -187 18 -199 q 32 -126 22 -176 l 40 -126 q 78 -136 64 -133 q 111 -139 92 -139 q 163 -125 142 -139 q 197 -67 185 -111 q 208 71 208 -22 l 208 839 l 97 894 l 97 917 l 444 917 l 444 894 l 333 839 l 333 333 q 308 53 333 178 q 224 -137 283 -71 q 158 -204 183 -182 q 113 -233 133 -226 q 64 -240 92 -240 z "},"Љ":{"ha":1331,"x_min":51,"x_max":1286,"o":"m 340 772 q 323 387 340 542 q 263 126 306 232 q 182 14 226 42 q 99 -14 138 -14 q 59 -6 67 -14 q 51 26 51 3 l 51 103 l 57 108 l 71 108 q 185 189 144 108 q 242 419 226 269 q 257 772 257 568 l 257 839 l 146 894 l 146 917 l 896 917 l 896 894 l 757 839 l 757 539 l 906 539 q 1108 507 1022 539 q 1240 417 1193 475 q 1286 281 1286 358 q 1239 137 1286 200 q 1106 37 1192 74 q 904 0 1021 0 l 521 0 l 521 22 l 632 78 l 632 840 l 340 840 l 340 772 m 893 463 l 757 463 l 757 76 l 903 76 q 1090 130 1029 76 q 1151 269 1151 183 q 1090 417 1151 371 q 893 463 1028 463 z "},"Њ":{"ha":1442,"x_min":90,"x_max":1397,"o":"m 90 0 l 90 22 l 201 78 l 201 839 l 90 894 l 90 917 l 438 917 l 438 894 l 326 839 l 326 525 l 743 525 l 743 839 l 632 894 l 632 917 l 1007 917 l 1007 894 l 868 839 l 868 525 l 1017 525 q 1219 494 1133 525 q 1351 406 1304 463 q 1397 274 1397 350 q 1350 133 1397 194 q 1217 35 1303 71 q 1015 0 1132 0 l 632 0 l 632 22 l 743 78 l 743 449 l 326 449 l 326 78 l 438 22 l 438 0 l 90 0 m 1004 449 l 868 449 l 868 76 l 1014 76 q 1201 128 1140 76 q 1263 263 1263 181 q 1201 405 1263 361 q 1004 449 1139 449 z "},"Ћ":{"ha":1140,"x_min":63,"x_max":1106,"o":"m 239 0 l 239 22 l 378 78 l 378 840 l 179 840 l 85 636 l 63 636 l 63 917 l 860 917 l 860 650 l 838 650 l 743 840 l 503 840 l 503 444 q 616 516 550 490 q 751 542 682 542 q 878 515 824 542 q 964 429 933 489 q 994 271 994 369 l 994 78 l 1106 22 l 1106 0 l 869 0 l 869 231 q 826 392 869 344 q 679 439 782 439 q 585 424 632 439 q 503 382 539 410 l 503 78 l 642 22 l 642 0 l 239 0 z "},"Џ":{"ha":1083,"x_min":90,"x_max":993,"o":"m 464 0 l 90 0 l 90 22 l 201 78 l 201 839 l 90 894 l 90 917 l 438 917 l 438 894 l 326 839 l 326 76 l 757 76 l 757 839 l 646 894 l 646 917 l 993 917 l 993 894 l 882 839 l 882 78 l 993 22 l 993 0 l 619 0 l 553 -232 l 531 -232 l 464 0 z "},"А":{"ha":1042,"x_min":46,"x_max":996,"o":"m 46 0 l 46 22 l 135 68 l 490 924 l 553 924 l 903 72 l 996 22 l 996 0 l 651 0 l 651 22 l 774 69 l 669 326 l 332 326 l 229 69 l 346 22 l 346 0 l 46 0 m 364 403 l 639 403 l 501 744 l 364 403 z "},"Б":{"ha":928,"x_min":90,"x_max":856,"o":"m 474 0 l 90 0 l 90 22 l 201 78 l 201 839 l 90 894 l 90 917 l 776 917 l 776 636 l 754 636 l 660 840 l 326 840 l 326 539 l 475 539 q 677 507 592 539 q 809 417 763 475 q 856 281 856 358 q 808 137 856 200 q 676 37 761 74 q 474 0 590 0 m 463 463 l 326 463 l 326 76 l 472 76 q 660 130 599 76 q 721 269 721 183 q 659 417 721 371 q 463 463 597 463 z "},"В":{"ha":914,"x_min":90,"x_max":842,"o":"m 90 0 l 90 22 l 201 78 l 201 839 l 90 894 l 90 917 l 442 917 q 606 894 533 917 q 721 826 679 871 q 763 711 763 781 q 715 581 763 640 q 579 497 668 522 q 772 420 703 481 q 842 267 842 360 q 794 130 842 190 q 663 35 746 69 q 474 0 579 0 l 90 0 m 410 840 l 326 840 l 326 511 l 418 511 q 572 553 517 511 q 628 672 628 596 q 410 840 628 840 m 463 435 l 326 435 l 326 76 l 472 76 q 644 126 582 76 q 707 256 707 176 q 644 392 707 350 q 463 435 581 435 z "},"Г":{"ha":825,"x_min":90,"x_max":756,"o":"m 90 0 l 90 22 l 201 78 l 201 839 l 90 894 l 90 917 l 756 917 l 756 678 l 733 678 l 647 840 l 326 840 l 326 78 l 451 22 l 451 0 l 90 0 z "},"Ѓ":{"ha":825,"x_min":90,"x_max":756,"o":"m 90 0 l 90 22 l 201 78 l 201 839 l 90 894 l 90 917 l 756 917 l 756 678 l 733 678 l 647 840 l 326 840 l 326 78 l 451 22 l 451 0 l 90 0 z "},"Ғ":{"ha":825,"x_min":90,"x_max":756,"o":"m 90 0 l 90 22 l 201 78 l 201 440 l 90 440 l 90 510 l 201 510 l 201 839 l 90 894 l 90 917 l 756 917 l 756 678 l 733 678 l 647 840 l 326 840 l 326 510 l 569 510 l 569 440 l 326 440 l 326 78 l 451 22 l 451 0 l 90 0 z "},"Д":{"ha":1006,"x_min":35,"x_max":929,"o":"m 132 894 l 132 917 l 910 917 l 910 894 l 799 839 l 799 76 l 929 76 l 929 -232 l 907 -232 l 799 0 l 165 0 l 57 -232 l 35 -232 l 35 76 l 139 76 q 201 277 178 174 q 233 501 224 381 q 243 772 243 622 l 243 839 l 132 894 m 674 76 l 674 840 l 326 840 l 326 772 q 317 500 326 621 q 287 276 308 379 q 228 76 265 174 l 674 76 z "},"Е":{"ha":906,"x_min":90,"x_max":808,"o":"m 90 0 l 90 22 l 201 78 l 201 839 l 90 894 l 90 917 l 769 917 l 769 678 l 747 678 l 661 840 l 326 840 l 326 511 l 563 511 l 632 626 l 654 626 l 654 322 l 632 322 l 563 435 l 326 435 l 326 76 l 700 76 l 786 253 l 808 253 l 808 0 l 90 0 z "},"Ё":{"ha":906,"x_min":90,"x_max":808,"o":"m 90 0 l 90 22 l 201 78 l 201 839 l 90 894 l 90 917 l 769 917 l 769 678 l 747 678 l 661 840 l 326 840 l 326 511 l 563 511 l 632 626 l 654 626 l 654 322 l 632 322 l 563 435 l 326 435 l 326 76 l 700 76 l 786 253 l 808 253 l 808 0 l 90 0 m 338 1024 q 289 1043 308 1024 q 269 1092 269 1063 q 289 1140 269 1121 q 338 1160 308 1160 q 386 1140 367 1160 q 406 1092 406 1121 q 386 1043 406 1063 q 338 1024 367 1024 m 593 1024 q 544 1043 564 1024 q 525 1092 525 1063 q 544 1140 525 1121 q 593 1160 564 1160 q 642 1140 622 1160 q 661 1092 661 1121 q 642 1043 661 1063 q 593 1024 622 1024 z "},"Ж":{"ha":1400,"x_min":21,"x_max":1379,"o":"m 519 0 l 519 22 l 631 78 l 631 839 l 519 894 l 519 917 l 867 917 l 867 894 l 756 839 l 756 78 l 867 22 l 867 0 l 519 0 m 757 469 l 1128 847 l 1029 894 l 1029 917 l 1335 917 l 1335 894 l 1233 858 l 882 501 l 1296 58 l 1379 22 l 1379 0 l 1179 0 l 757 469 m 629 469 l 207 0 l 21 0 l 21 22 l 104 58 l 504 493 l 144 858 l 43 894 l 43 917 l 357 917 l 357 894 l 258 847 l 629 469 z "},"З":{"ha":901,"x_min":125,"x_max":808,"o":"m 449 931 q 603 906 533 931 q 715 834 674 882 q 756 718 756 786 q 706 581 756 644 q 563 490 656 517 q 744 412 679 472 q 808 263 808 351 q 763 123 808 186 q 637 23 718 60 q 447 -14 556 -14 q 269 6 338 -14 q 140 54 200 25 l 125 275 l 149 275 l 233 125 q 316 82 269 101 q 446 63 363 63 q 617 117 561 63 q 674 251 674 171 q 432 435 674 435 l 307 435 l 307 511 l 406 511 q 565 557 508 511 q 621 679 621 603 q 578 812 621 763 q 443 861 536 861 q 349 850 390 861 q 268 806 308 839 l 178 625 l 153 625 l 160 868 q 281 913 217 896 q 449 931 344 931 z "},"И":{"ha":1139,"x_min":90,"x_max":1049,"o":"m 90 0 l 90 22 l 201 78 l 201 839 l 90 894 l 90 917 l 438 917 l 438 894 l 326 839 l 326 221 l 813 781 l 813 839 l 701 894 l 701 917 l 1049 917 l 1049 894 l 938 839 l 938 78 l 1049 22 l 1049 0 l 701 0 l 701 22 l 813 78 l 813 683 l 326 124 l 326 78 l 438 22 l 438 0 l 90 0 z "},"Й":{"ha":1139,"x_min":90,"x_max":1049,"o":"m 90 0 l 90 22 l 201 78 l 201 839 l 90 894 l 90 917 l 438 917 l 438 894 l 326 839 l 326 221 l 813 781 l 813 839 l 701 894 l 701 917 l 1049 917 l 1049 894 l 938 839 l 938 78 l 1049 22 l 1049 0 l 701 0 l 701 22 l 813 78 l 813 683 l 326 124 l 326 78 l 438 22 l 438 0 l 90 0 m 576 986 q 400 1048 460 986 q 340 1197 340 1110 l 460 1197 q 486 1088 460 1132 q 576 1043 513 1043 q 667 1088 640 1043 q 693 1197 693 1132 l 813 1197 q 753 1048 813 1110 q 576 986 693 986 z "},"Ӣ":{"ha":1139,"x_min":90,"x_max":1049,"o":"m 90 0 l 90 22 l 201 78 l 201 839 l 90 894 l 90 917 l 438 917 l 438 894 l 326 839 l 326 221 l 813 781 l 813 839 l 701 894 l 701 917 l 1049 917 l 1049 894 l 938 839 l 938 78 l 1049 22 l 1049 0 l 701 0 l 701 22 l 813 78 l 813 683 l 326 124 l 326 78 l 438 22 l 438 0 l 90 0 z "},"К":{"ha":999,"x_min":90,"x_max":978,"o":"m 90 0 l 90 22 l 201 78 l 201 839 l 90 894 l 90 917 l 438 917 l 438 894 l 326 839 l 326 78 l 438 22 l 438 0 l 90 0 m 328 469 l 713 847 l 614 894 l 614 917 l 906 917 l 906 894 l 819 861 l 454 503 l 893 58 l 978 22 l 978 0 l 778 0 l 328 469 z "},"Ќ":{"ha":999,"x_min":90,"x_max":978,"o":"m 90 0 l 90 22 l 201 78 l 201 839 l 90 894 l 90 917 l 438 917 l 438 894 l 326 839 l 326 78 l 438 22 l 438 0 l 90 0 m 328 469 l 713 847 l 614 894 l 614 917 l 906 917 l 906 894 l 819 861 l 454 503 l 893 58 l 978 22 l 978 0 l 778 0 l 328 469 z "},"Л":{"ha":1000,"x_min":51,"x_max":910,"o":"m 563 0 l 563 22 l 674 78 l 674 840 l 340 840 l 340 772 q 323 387 340 542 q 263 126 306 232 q 182 14 226 42 q 99 -14 138 -14 q 59 -6 67 -14 q 51 26 51 3 l 51 103 l 57 108 l 71 108 q 185 189 144 108 q 242 419 226 269 q 257 772 257 568 l 257 839 l 146 894 l 146 917 l 910 917 l 910 894 l 799 839 l 799 78 l 910 22 l 910 0 l 563 0 z "},"М":{"ha":1332,"x_min":83,"x_max":1249,"o":"m 83 0 l 83 22 l 193 78 l 222 838 l 103 894 l 103 917 l 360 917 l 681 178 l 1000 917 l 1244 917 l 1244 894 l 1128 839 l 1151 78 l 1249 22 l 1249 0 l 929 0 l 929 22 l 1032 76 l 1018 761 l 686 -7 l 624 -7 l 297 751 l 279 76 l 392 22 l 392 0 l 83 0 z "},"Н":{"ha":1125,"x_min":90,"x_max":1035,"o":"m 90 0 l 90 22 l 201 78 l 201 839 l 90 894 l 90 917 l 438 917 l 438 894 l 326 839 l 326 511 l 799 511 l 799 839 l 688 894 l 688 917 l 1035 917 l 1035 894 l 924 839 l 924 78 l 1035 22 l 1035 0 l 688 0 l 688 22 l 799 78 l 799 435 l 326 435 l 326 78 l 438 22 l 438 0 l 90 0 z "},"О":{"ha":1121,"x_min":97,"x_max":1024,"o":"m 560 -14 q 376 22 460 -14 q 229 120 292 57 q 132 269 167 183 q 97 458 97 356 q 132 647 97 561 q 229 797 167 733 q 376 895 292 860 q 560 931 460 931 q 744 895 660 931 q 892 797 829 860 q 989 647 954 733 q 1024 458 1024 561 q 989 269 1024 356 q 892 120 954 183 q 744 22 829 57 q 560 -14 660 -14 m 589 56 q 745 100 678 56 q 851 225 813 144 q 889 415 889 306 q 842 651 889 550 q 715 807 794 751 q 536 863 635 863 q 378 819 447 863 q 271 694 310 775 q 232 504 232 614 q 280 268 232 369 q 408 111 328 167 q 589 56 489 56 z "},"П":{"ha":1083,"x_min":90,"x_max":993,"o":"m 90 0 l 90 22 l 201 78 l 201 839 l 90 894 l 90 917 l 993 917 l 993 894 l 882 839 l 882 78 l 993 22 l 993 0 l 646 0 l 646 22 l 757 78 l 757 840 l 326 840 l 326 78 l 438 22 l 438 0 l 90 0 z "},"Р":{"ha":886,"x_min":90,"x_max":814,"o":"m 90 0 l 90 22 l 201 78 l 201 839 l 90 894 l 90 917 l 451 917 q 715 857 615 917 q 814 668 814 797 q 762 533 814 592 q 620 439 710 474 q 418 404 531 404 l 326 404 l 326 78 l 451 22 l 451 0 l 90 0 m 326 840 l 326 481 l 444 481 q 617 530 554 481 q 679 657 679 579 q 616 797 679 754 q 435 840 553 840 l 326 840 z "},"С":{"ha":1008,"x_min":97,"x_max":881,"o":"m 556 -14 q 311 44 414 -14 q 153 203 208 103 q 97 433 97 304 q 135 622 97 532 q 240 781 174 711 q 392 890 306 850 q 576 931 479 931 q 694 922 646 931 q 781 898 743 913 q 858 864 819 883 l 865 621 l 840 621 l 756 790 q 663 844 703 828 q 574 861 624 861 q 395 811 474 861 q 272 674 317 761 q 226 475 226 588 q 270 249 226 343 q 388 106 314 156 q 553 57 463 57 q 681 78 629 57 q 774 126 733 100 l 857 275 l 881 275 l 865 54 q 783 18 825 33 q 686 -6 740 3 q 556 -14 632 -14 z "},"Т":{"ha":936,"x_min":63,"x_max":874,"o":"m 267 0 l 267 22 l 406 78 l 406 840 l 179 840 l 85 636 l 63 636 l 63 917 l 874 917 l 874 636 l 851 636 l 757 840 l 531 840 l 531 78 l 669 22 l 669 0 l 267 0 z "},"У":{"ha":986,"x_min":49,"x_max":951,"o":"m 450 60 q 369 -2 407 10 q 299 -14 331 -14 q 259 -6 267 -14 q 251 26 251 3 l 251 103 l 257 108 l 271 108 q 389 135 346 108 q 463 218 432 163 l 147 843 l 49 894 l 49 917 l 396 917 l 396 894 l 276 843 l 276 836 l 515 360 l 539 360 l 774 842 l 774 847 l 660 894 l 660 917 l 951 917 l 951 894 l 868 850 l 586 281 q 517 152 549 204 q 450 60 485 100 z "},"Ў":{"ha":986,"x_min":49,"x_max":951,"o":"m 450 60 q 369 -2 407 10 q 299 -14 331 -14 q 259 -6 267 -14 q 251 26 251 3 l 251 103 l 257 108 l 271 108 q 389 135 346 108 q 463 218 432 163 l 147 843 l 49 894 l 49 917 l 396 917 l 396 894 l 276 843 l 276 836 l 515 360 l 539 360 l 774 842 l 774 847 l 660 894 l 660 917 l 951 917 l 951 894 l 868 850 l 586 281 q 517 152 549 204 q 450 60 485 100 m 533 986 q 357 1048 417 986 q 297 1197 297 1110 l 417 1197 q 443 1088 417 1132 q 533 1043 469 1043 q 624 1088 597 1043 q 650 1197 650 1132 l 769 1197 q 710 1048 769 1110 q 533 986 650 986 z "},"Ӯ":{"ha":986,"x_min":49,"x_max":951,"o":"m 450 60 q 369 -2 407 10 q 299 -14 331 -14 q 259 -6 267 -14 q 251 26 251 3 l 251 103 l 257 108 l 271 108 q 389 135 346 108 q 463 218 432 163 l 147 843 l 49 894 l 49 917 l 396 917 l 396 894 l 276 843 l 276 836 l 515 360 l 539 360 l 774 842 l 774 847 l 660 894 l 660 917 l 951 917 l 951 894 l 868 850 l 586 281 q 517 152 549 204 q 450 60 485 100 z "},"Ф":{"ha":1165,"x_min":42,"x_max":1124,"o":"m 411 -28 l 411 -6 l 522 50 l 522 111 q 263 158 371 115 q 99 274 156 200 q 42 444 42 347 q 99 622 42 542 q 263 752 156 703 q 522 806 371 801 l 522 867 l 411 922 l 411 944 l 758 944 l 758 922 l 647 867 l 647 806 q 1003 709 883 800 q 1124 472 1124 618 q 1070 295 1124 375 q 911 166 1017 215 q 647 111 806 117 l 647 50 l 758 -6 l 758 -28 l 411 -28 m 522 738 q 263 667 349 738 q 176 490 176 597 q 267 274 176 354 q 522 182 358 193 l 522 738 m 989 429 q 904 645 989 565 q 647 736 819 725 l 647 181 q 847 213 772 181 q 956 301 922 246 q 989 429 989 357 z "},"Х":{"ha":1028,"x_min":49,"x_max":979,"o":"m 49 0 l 49 22 l 150 74 l 444 457 l 157 846 l 69 894 l 69 917 l 417 917 l 417 894 l 306 843 l 306 836 l 528 543 l 758 838 l 758 843 l 653 894 l 653 917 l 944 917 l 944 894 l 857 843 l 575 481 l 882 76 l 979 22 l 979 0 l 625 0 l 625 22 l 726 72 l 726 78 l 490 396 l 249 78 l 249 72 l 361 22 l 361 0 l 49 0 z "},"Ц":{"ha":1089,"x_min":90,"x_max":1013,"o":"m 882 0 l 90 0 l 90 22 l 201 78 l 201 839 l 90 894 l 90 917 l 438 917 l 438 894 l 326 839 l 326 76 l 757 76 l 757 839 l 646 894 l 646 917 l 993 917 l 993 894 l 882 839 l 882 76 l 1013 76 l 1013 -232 l 990 -232 l 882 0 z "},"Ч":{"ha":1014,"x_min":24,"x_max":924,"o":"m 560 0 l 560 22 l 688 78 l 688 421 q 584 394 640 406 q 454 383 528 383 q 288 410 360 383 q 177 503 217 436 q 138 694 138 571 l 138 836 l 24 894 l 24 917 l 374 917 l 374 894 l 263 836 l 263 686 q 285 551 263 600 q 360 481 308 501 q 496 460 411 460 q 594 466 544 460 q 688 492 643 472 l 688 836 l 576 894 l 576 917 l 924 917 l 924 894 l 813 836 l 813 78 l 924 22 l 924 0 l 560 0 z "},"Ш":{"ha":1472,"x_min":90,"x_max":1382,"o":"m 438 917 l 438 894 l 326 839 l 326 76 l 674 76 l 674 839 l 563 894 l 563 917 l 910 917 l 910 894 l 799 839 l 799 78 l 794 76 l 1146 76 l 1146 839 l 1035 894 l 1035 917 l 1382 917 l 1382 894 l 1271 839 l 1271 78 l 1382 22 l 1382 0 l 90 0 l 90 22 l 201 78 l 201 839 l 90 894 l 90 917 l 438 917 z "},"Щ":{"ha":1478,"x_min":90,"x_max":1401,"o":"m 438 917 l 438 894 l 326 839 l 326 76 l 674 76 l 674 839 l 563 894 l 563 917 l 910 917 l 910 894 l 799 839 l 799 78 l 794 76 l 1146 76 l 1146 839 l 1035 894 l 1035 917 l 1382 917 l 1382 894 l 1271 839 l 1271 76 l 1401 76 l 1401 -232 l 1379 -232 l 1271 0 l 90 0 l 90 22 l 201 78 l 201 839 l 90 894 l 90 917 l 438 917 z "},"Ъ":{"ha":1011,"x_min":35,"x_max":967,"o":"m 585 0 l 201 0 l 201 22 l 313 78 l 313 840 l 151 840 l 57 636 l 35 636 l 35 917 l 576 917 l 576 894 l 438 839 l 438 539 l 586 539 q 788 507 703 539 q 920 417 874 475 q 967 281 967 358 q 919 137 967 200 q 787 37 872 74 q 585 0 701 0 m 574 463 l 438 463 l 438 76 l 583 76 q 771 130 710 76 q 832 269 832 183 q 770 417 832 371 q 574 463 708 463 z "},"Ы":{"ha":1442,"x_min":90,"x_max":1344,"o":"m 474 0 l 90 0 l 90 22 l 201 78 l 201 839 l 90 894 l 90 917 l 465 917 l 465 894 l 326 839 l 326 539 l 475 539 q 677 507 592 539 q 809 417 763 475 q 856 281 856 358 q 808 137 856 200 q 676 37 761 74 q 474 0 590 0 m 463 463 l 326 463 l 326 76 l 472 76 q 660 130 599 76 q 721 269 721 183 q 659 417 721 371 q 463 463 597 463 m 997 0 l 997 22 l 1108 78 l 1108 839 l 997 894 l 997 917 l 1344 917 l 1344 894 l 1233 839 l 1233 78 l 1344 22 l 1344 0 l 997 0 z "},"Ь":{"ha":900,"x_min":90,"x_max":856,"o":"m 474 0 l 90 0 l 90 22 l 201 78 l 201 839 l 90 894 l 90 917 l 465 917 l 465 894 l 326 839 l 326 539 l 475 539 q 677 507 592 539 q 809 417 763 475 q 856 281 856 358 q 808 137 856 200 q 676 37 761 74 q 474 0 590 0 m 463 463 l 326 463 l 326 76 l 472 76 q 660 130 599 76 q 721 269 721 183 q 659 417 721 371 q 463 463 597 463 z "},"Э":{"ha":1022,"x_min":125,"x_max":925,"o":"m 476 58 q 636 102 565 58 q 749 226 707 146 q 790 415 790 306 q 790 435 790 425 l 439 435 l 369 322 l 347 322 l 347 626 l 369 626 l 439 511 l 783 511 q 718 698 767 619 q 597 819 669 776 q 438 861 524 861 q 344 850 385 861 q 263 806 303 839 l 172 625 l 147 625 l 154 868 q 284 913 211 896 q 461 931 357 931 q 646 895 561 931 q 793 797 731 860 q 890 647 856 733 q 925 458 925 561 q 867 215 925 322 q 706 47 810 108 q 461 -14 601 -14 q 274 5 347 -14 q 140 54 201 24 l 125 275 l 149 275 l 232 128 q 330 79 274 100 q 476 58 386 58 z "},"Ю":{"ha":1482,"x_min":90,"x_max":1385,"o":"m 90 0 l 90 22 l 201 78 l 201 839 l 90 894 l 90 917 l 438 917 l 438 894 l 326 839 l 326 511 l 489 511 q 560 728 500 633 q 718 876 621 822 q 935 931 815 931 q 1114 895 1032 931 q 1257 797 1196 860 q 1351 647 1318 733 q 1385 458 1385 561 q 1351 269 1385 356 q 1257 120 1318 183 q 1114 22 1196 57 q 935 -14 1032 -14 q 710 44 810 -14 q 551 203 611 101 q 486 435 492 304 l 326 435 l 326 78 l 438 22 l 438 0 l 90 0 m 964 56 q 1113 100 1049 56 q 1214 225 1178 144 q 1250 415 1250 306 q 1205 651 1250 550 q 1083 807 1160 751 q 911 863 1006 863 q 761 819 826 863 q 658 694 696 775 q 621 504 621 614 q 667 268 621 369 q 791 111 713 167 q 964 56 869 56 z "},"Я":{"ha":967,"x_min":49,"x_max":876,"o":"m 239 0 l 49 0 l 49 22 l 140 72 l 392 417 q 222 510 281 443 q 163 654 163 578 q 256 849 163 782 q 553 917 350 917 l 876 917 l 876 894 l 765 839 l 765 78 l 876 22 l 876 0 l 529 0 l 529 22 l 640 79 l 640 393 l 508 393 l 239 0 m 542 469 l 640 469 l 640 840 l 551 840 q 359 792 421 840 q 297 658 297 743 q 360 523 297 576 q 542 469 422 469 z "},"Ґ":{"ha":783,"x_min":90,"x_max":756,"o":"m 90 0 l 90 22 l 201 78 l 201 839 l 90 894 l 90 917 l 625 917 l 733 1149 l 756 1149 l 756 840 l 326 840 l 326 78 l 451 22 l 451 0 l 90 0 z "},"Қ":{"ha":1013,"x_min":90,"x_max":1006,"o":"m 90 0 l 90 22 l 201 78 l 201 839 l 90 894 l 90 917 l 438 917 l 438 894 l 326 839 l 326 78 l 438 22 l 438 0 l 90 0 m 328 469 l 713 847 l 614 894 l 614 917 l 906 917 l 906 894 l 819 861 l 454 503 l 875 76 l 1006 76 l 1006 -232 l 983 -232 l 875 0 l 778 0 l 328 469 z "},"Җ":{"ha":1415,"x_min":21,"x_max":1408,"o":"m 519 0 l 519 22 l 631 78 l 631 839 l 519 894 l 519 917 l 867 917 l 867 894 l 756 839 l 756 78 l 867 22 l 867 0 l 519 0 m 757 469 l 1128 847 l 1029 894 l 1029 917 l 1335 917 l 1335 894 l 1233 858 l 882 501 l 1279 76 l 1408 76 l 1408 -232 l 1386 -232 l 1278 0 l 1179 0 l 757 469 m 629 469 l 207 0 l 21 0 l 21 22 l 104 58 l 504 493 l 144 858 l 43 894 l 43 917 l 357 917 l 357 894 l 258 847 l 629 469 z "},"Ҳ":{"ha":1018,"x_min":49,"x_max":1011,"o":"m 49 0 l 49 22 l 150 74 l 444 457 l 157 846 l 69 894 l 69 917 l 417 917 l 417 894 l 306 843 l 306 836 l 528 543 l 758 838 l 758 843 l 653 894 l 653 917 l 944 917 l 944 894 l 857 843 l 575 481 l 881 76 l 1011 76 l 1011 -232 l 989 -232 l 881 0 l 625 0 l 625 22 l 726 72 l 726 78 l 490 396 l 249 78 l 249 72 l 361 22 l 361 0 l 49 0 z "},"Ң":{"ha":1131,"x_min":90,"x_max":1054,"o":"m 90 0 l 90 22 l 201 78 l 201 839 l 90 894 l 90 917 l 438 917 l 438 894 l 326 839 l 326 511 l 799 511 l 799 839 l 688 894 l 688 917 l 1035 917 l 1035 894 l 924 839 l 924 76 l 1054 76 l 1054 -232 l 1032 -232 l 924 0 l 688 0 l 688 22 l 799 78 l 799 435 l 326 435 l 326 78 l 438 22 l 438 0 l 90 0 z "},"Ҷ":{"ha":1019,"x_min":24,"x_max":943,"o":"m 138 694 l 138 836 l 24 894 l 24 917 l 374 917 l 374 894 l 263 836 l 263 686 q 285 551 263 600 q 360 481 308 501 q 496 460 411 460 q 594 466 544 460 q 688 492 643 472 l 688 836 l 576 894 l 576 917 l 924 917 l 924 894 l 813 836 l 813 76 l 943 76 l 943 -232 l 921 -232 l 813 0 l 560 0 l 560 22 l 688 78 l 688 421 q 584 394 640 406 q 454 383 528 383 q 288 410 360 383 q 177 503 217 436 q 138 694 138 571 z "},"Ү":{"ha":997,"x_min":49,"x_max":949,"o":"m 317 0 l 317 22 l 442 78 l 442 428 l 133 849 l 49 894 l 49 917 l 385 917 l 385 894 l 283 846 l 283 840 l 532 503 l 756 839 l 756 844 l 654 894 l 654 917 l 949 917 l 949 894 l 860 849 l 567 429 l 567 78 l 692 22 l 692 0 l 317 0 z "},"Ұ":{"ha":997,"x_min":49,"x_max":949,"o":"m 317 0 l 317 22 l 442 78 l 442 360 l 238 360 l 238 429 l 440 429 l 133 849 l 49 894 l 49 917 l 385 917 l 385 894 l 283 846 l 283 840 l 532 503 l 756 839 l 756 844 l 654 894 l 654 917 l 949 917 l 949 894 l 860 849 l 567 429 l 771 429 l 771 360 l 567 360 l 567 78 l 692 22 l 692 0 l 317 0 z "},"Һ":{"ha":1014,"x_min":90,"x_max":990,"o":"m 454 917 l 454 894 l 326 839 l 326 496 q 430 522 374 511 q 560 533 486 533 q 726 507 654 533 q 837 413 797 481 q 876 222 876 346 l 876 81 l 990 22 l 990 0 l 640 0 l 640 22 l 751 81 l 751 231 q 728 366 751 317 q 654 436 706 415 q 518 457 603 457 q 420 451 469 457 q 326 425 371 444 l 326 81 l 438 22 l 438 0 l 90 0 l 90 22 l 201 81 l 201 839 l 90 894 l 90 917 l 454 917 z "},"Ӏ":{"ha":542,"x_min":97,"x_max":444,"o":"m 97 0 l 97 22 l 208 78 l 208 839 l 97 894 l 97 917 l 444 917 l 444 894 l 333 839 l 333 78 l 444 22 l 444 0 l 97 0 z "},"Ә":{"ha":965,"x_min":97,"x_max":868,"o":"m 446 -14 q 193 96 288 -14 q 99 406 99 206 l 110 415 l 738 415 q 738 431 738 422 q 659 710 738 608 q 406 813 581 813 q 245 784 315 813 q 103 710 175 756 l 97 710 l 97 726 q 235 872 144 814 q 449 931 326 931 q 672 877 578 931 q 817 726 767 824 q 868 499 868 629 q 814 233 868 349 q 665 51 760 117 q 446 -14 569 -14 m 461 61 q 733 346 703 61 l 219 346 q 260 201 229 265 q 342 99 292 136 q 461 61 393 61 z "},"Ө":{"ha":1121,"x_min":97,"x_max":1024,"o":"m 560 -14 q 376 22 460 -14 q 229 120 292 57 q 132 269 167 183 q 97 458 97 356 q 132 647 97 561 q 229 797 167 733 q 376 895 292 860 q 560 931 460 931 q 744 895 660 931 q 892 797 829 860 q 989 647 954 733 q 1024 458 1024 561 q 989 269 1024 356 q 892 120 954 183 q 744 22 829 57 q 560 -14 660 -14 m 536 863 q 378 819 447 863 q 271 696 310 775 q 232 510 232 617 l 882 510 q 817 697 867 618 q 695 819 768 776 q 536 863 622 863 m 589 56 q 745 100 678 56 q 851 225 813 144 q 889 415 889 306 q 889 440 889 428 l 235 440 q 296 237 246 324 q 422 103 346 150 q 589 56 497 56 z "},"Ѣ":{"ha":1007,"x_min":35,"x_max":963,"o":"m 581 0 l 197 0 l 197 22 l 308 78 l 308 676 l 151 676 l 57 528 l 35 528 l 35 753 l 308 753 l 308 839 l 197 894 l 197 917 l 544 917 l 544 894 l 433 839 l 433 753 l 749 753 l 749 528 l 726 528 l 632 676 l 433 676 l 433 483 l 582 483 q 784 455 699 483 q 916 374 869 426 q 963 253 963 322 q 916 123 963 181 q 783 33 869 65 q 581 0 697 0 m 569 407 l 433 407 l 433 76 l 579 76 q 767 123 706 76 q 828 242 828 169 q 766 367 828 328 q 569 407 704 407 z "},"Ѳ":{"ha":1121,"x_min":97,"x_max":1024,"o":"m 560 -14 q 376 22 460 -14 q 229 120 292 57 q 132 269 167 183 q 97 458 97 356 q 132 647 97 561 q 229 797 167 733 q 376 895 292 860 q 560 931 460 931 q 744 895 660 931 q 892 797 829 860 q 989 647 954 733 q 1024 458 1024 561 q 989 269 1024 356 q 892 120 954 183 q 744 22 829 57 q 560 -14 660 -14 m 232 504 q 232 478 232 490 q 383 531 307 522 q 531 528 458 539 q 669 501 603 517 q 790 480 735 485 q 883 496 844 475 q 821 691 869 608 q 699 818 772 774 q 536 863 625 863 q 378 819 447 863 q 271 694 310 775 q 232 504 232 614 m 589 56 q 745 100 678 56 q 851 225 813 144 q 889 415 889 306 q 889 443 889 429 q 751 389 821 397 q 613 392 682 381 q 476 422 543 404 q 349 444 410 439 q 236 428 289 450 q 299 231 250 314 q 424 101 349 147 q 589 56 500 56 z "},"Ѵ":{"ha":1028,"x_min":49,"x_max":1026,"o":"m 719 638 q 779 769 750 715 q 836 856 808 822 q 917 919 881 908 q 979 931 953 931 q 1019 922 1011 931 q 1026 890 1026 914 l 1026 814 l 1021 808 l 1007 808 q 887 767 926 808 q 818 656 847 726 l 543 -7 l 494 -7 l 144 846 l 49 894 l 49 917 l 396 917 l 396 894 l 276 843 l 276 836 l 536 200 l 543 200 l 719 638 z "},"ȷ":{"ha":436,"x_min":75,"x_max":274,"o":"m 274 0 q 231 -185 274 -106 q 75 -319 189 -264 l 75 -297 q 126 -231 107 -267 q 154 -144 146 -196 q 163 -14 163 -92 l 163 481 l 79 553 l 79 563 l 265 639 l 274 639 l 274 0 z "},"ĸ":{"ha":775,"x_min":67,"x_max":736,"o":"m 67 0 l 67 22 l 154 67 l 154 481 l 71 553 l 71 563 l 257 639 l 265 639 l 265 354 l 489 544 l 489 553 l 421 603 l 421 625 l 685 625 l 685 603 l 596 554 l 367 378 l 647 69 l 736 22 l 736 0 l 553 0 l 500 72 l 265 333 l 265 63 l 364 22 l 364 0 l 67 0 z "},"ẗ":{"ha":492,"x_min":19,"x_max":450,"o":"m 289 -14 q 183 22 228 -14 q 139 124 139 58 l 139 560 l 25 560 l 25 568 l 143 625 l 242 778 l 250 778 l 250 625 l 433 625 l 433 560 l 250 560 l 250 147 q 282 94 250 111 q 357 78 314 78 q 406 81 383 78 q 446 88 429 83 l 450 88 l 450 74 q 395 14 436 42 q 289 -14 354 -14 m 88 928 q 39 947 58 928 q 19 996 19 967 q 39 1044 19 1025 q 88 1064 58 1064 q 136 1044 117 1064 q 156 996 156 1025 q 136 947 156 967 q 88 928 117 928 m 343 928 q 294 947 314 928 q 275 996 275 967 q 294 1044 275 1025 q 343 1064 314 1064 q 392 1044 372 1064 q 411 996 411 1025 q 392 947 411 967 q 343 928 372 928 z "},"a":{"ha":917,"x_min":46,"x_max":871,"o":"m 46 0 l 46 22 l 117 58 l 425 785 l 483 785 l 790 60 l 871 22 l 871 0 l 568 0 l 568 22 l 665 61 l 578 272 l 289 272 l 201 58 l 304 22 l 304 0 l 46 0 m 318 342 l 549 342 l 432 622 l 318 342 z "},"b":{"ha":814,"x_min":90,"x_max":742,"o":"m 90 0 l 90 22 l 189 68 l 189 710 l 90 756 l 90 778 l 374 778 q 594 733 518 778 q 669 599 669 689 q 629 483 669 532 q 518 415 589 435 q 682 350 622 400 q 742 224 742 300 q 701 109 742 160 q 585 29 660 58 q 414 0 511 0 l 90 0 m 356 708 l 307 708 l 307 438 l 358 438 q 495 470 442 438 q 549 576 549 503 q 499 675 549 642 q 356 708 450 708 m 401 368 l 307 368 l 307 69 l 411 69 q 560 105 503 69 q 618 218 618 140 q 560 335 618 303 q 401 368 501 368 z "},"c":{"ha":919,"x_min":97,"x_max":792,"o":"m 510 -14 q 297 36 390 -14 q 151 173 204 86 q 97 369 97 260 q 132 539 97 461 q 226 674 167 617 q 364 762 286 731 q 529 793 442 793 q 672 776 619 793 q 774 735 724 758 l 778 542 l 756 542 l 683 674 q 608 713 646 701 q 526 724 571 724 q 366 681 436 724 q 256 563 296 638 q 215 397 215 489 q 301 144 215 232 q 529 56 386 56 q 610 63 575 56 q 676 86 644 69 l 769 229 l 792 229 l 781 46 q 666 3 729 19 q 510 -14 603 -14 z "},"d":{"ha":956,"x_min":90,"x_max":858,"o":"m 90 0 l 90 22 l 190 68 l 190 710 l 90 756 l 90 778 l 425 778 q 660 733 564 778 q 808 609 757 689 q 858 424 858 529 q 806 199 858 294 q 653 52 753 104 q 417 0 554 0 l 90 0 m 407 708 l 308 708 l 308 69 l 415 69 q 653 158 571 69 q 736 393 736 247 q 651 628 736 547 q 407 708 567 708 z "},"e":{"ha":815,"x_min":90,"x_max":718,"o":"m 90 0 l 90 22 l 189 68 l 189 710 l 90 756 l 90 778 l 683 778 l 683 581 l 661 581 l 594 708 l 307 708 l 307 438 l 517 438 l 558 532 l 581 532 l 581 275 l 558 275 l 517 368 l 307 368 l 307 69 l 626 69 l 696 219 l 718 219 l 718 0 l 90 0 z "},"f":{"ha":779,"x_min":90,"x_max":682,"o":"m 90 0 l 90 22 l 190 68 l 190 710 l 92 756 l 92 778 l 682 778 l 682 581 l 660 581 l 597 707 l 308 707 l 308 438 l 517 438 l 558 532 l 581 532 l 581 275 l 558 275 l 517 368 l 308 368 l 308 68 l 424 22 l 424 0 l 90 0 z "},"g":{"ha":951,"x_min":97,"x_max":882,"o":"m 501 -14 q 294 35 385 -14 q 150 171 203 85 q 97 367 97 257 q 131 535 97 458 q 222 670 164 613 q 358 760 281 728 q 522 792 435 792 q 671 776 617 792 q 776 735 725 760 l 783 538 l 764 538 l 686 671 q 601 719 636 706 q 519 732 565 732 q 357 692 428 732 q 245 583 286 653 q 204 426 204 514 q 248 226 204 308 q 365 99 292 143 q 529 56 439 56 q 612 61 572 56 q 693 85 651 67 l 693 278 l 586 325 l 586 344 l 882 344 l 882 325 l 800 274 l 800 86 q 713 33 764 56 q 607 -1 663 11 q 501 -14 551 -14 z "},"h":{"ha":1028,"x_min":90,"x_max":938,"o":"m 90 0 l 90 22 l 189 68 l 189 710 l 90 756 l 90 778 l 410 778 l 410 756 l 307 710 l 307 438 l 722 438 l 722 710 l 619 756 l 619 778 l 938 778 l 938 756 l 840 710 l 840 68 l 938 22 l 938 0 l 619 0 l 619 22 l 722 68 l 722 368 l 307 368 l 307 68 l 410 22 l 410 0 l 90 0 z "},"i":{"ha":499,"x_min":97,"x_max":401,"o":"m 97 0 l 97 22 l 189 68 l 189 710 l 97 756 l 97 778 l 401 778 l 401 756 l 307 710 l 307 68 l 401 22 l 401 0 l 97 0 z "},"ı":{"ha":499,"x_min":97,"x_max":401,"o":"m 97 0 l 97 22 l 189 68 l 189 710 l 97 756 l 97 778 l 401 778 l 401 756 l 307 710 l 307 68 l 401 22 l 401 0 l 97 0 z "},"j":{"ha":490,"x_min":18,"x_max":393,"o":"m 63 -204 q 32 -197 46 -204 q 18 -167 18 -189 q 22 -148 18 -164 q 31 -101 25 -132 l 39 -101 q 69 -110 58 -107 q 96 -112 81 -112 q 141 -99 122 -112 q 169 -46 160 -86 q 179 72 179 -6 l 179 710 l 83 757 l 83 778 l 393 778 l 393 757 l 297 710 l 297 261 q 269 22 297 117 q 197 -118 240 -72 q 125 -185 153 -167 q 63 -204 97 -204 z "},"k":{"ha":943,"x_min":90,"x_max":894,"o":"m 90 0 l 90 22 l 190 68 l 190 710 l 90 756 l 90 778 l 407 778 l 407 756 l 308 710 l 308 68 l 407 22 l 407 0 l 90 0 m 699 0 l 308 397 l 631 717 l 544 756 l 544 778 l 821 778 l 821 756 l 740 725 l 431 428 l 796 60 l 894 22 l 894 0 l 699 0 z "},"l":{"ha":810,"x_min":90,"x_max":713,"o":"m 90 0 l 90 22 l 189 68 l 189 710 l 90 756 l 90 778 l 419 778 l 419 756 l 307 710 l 307 69 l 608 69 l 690 267 l 713 267 l 713 0 l 90 0 z "},"m":{"ha":1214,"x_min":83,"x_max":1131,"o":"m 83 0 l 83 22 l 182 68 l 208 710 l 101 756 l 101 778 l 350 778 l 614 189 l 889 778 l 1125 778 l 1125 756 l 1022 717 l 1042 68 l 1131 22 l 1131 0 l 829 0 l 829 22 l 921 67 l 908 647 l 604 -6 l 568 -6 l 278 647 l 264 67 l 365 22 l 365 0 l 83 0 z "},"n":{"ha":1006,"x_min":83,"x_max":922,"o":"m 83 0 l 83 22 l 182 68 l 182 711 l 83 756 l 83 778 l 278 778 l 749 207 l 749 711 l 631 756 l 631 778 l 922 778 l 922 756 l 825 711 l 825 -6 l 771 -6 l 258 611 l 258 72 l 378 22 l 378 0 l 83 0 z "},"o":{"ha":989,"x_min":97,"x_max":892,"o":"m 493 -14 q 290 38 379 -14 q 149 181 200 90 q 97 389 97 272 q 149 597 97 506 q 290 741 200 689 q 493 793 379 793 q 698 741 608 793 q 840 597 788 689 q 892 389 892 506 q 840 181 892 272 q 698 38 788 90 q 493 -14 608 -14 m 517 56 q 704 138 636 56 q 772 354 772 219 q 735 547 772 464 q 630 677 697 631 q 475 724 563 724 q 286 643 356 724 q 217 428 217 563 q 255 233 217 317 q 360 102 293 149 q 517 56 428 56 z "},"p":{"ha":789,"x_min":90,"x_max":717,"o":"m 90 0 l 90 22 l 190 68 l 190 710 l 90 756 l 90 778 l 399 778 q 717 557 717 778 q 674 435 717 486 q 555 356 631 383 q 381 329 479 329 l 308 329 l 308 68 l 422 22 l 422 0 l 90 0 m 308 708 l 308 399 l 385 399 q 537 440 481 399 q 593 556 593 481 q 535 673 593 638 q 376 708 478 708 l 308 708 z "},"q":{"ha":1017,"x_min":97,"x_max":1017,"o":"m 843 -207 q 732 -193 789 -207 q 601 -136 675 -179 q 422 -8 526 -93 q 254 62 328 7 q 139 201 181 117 q 97 389 97 285 q 149 597 97 506 q 290 741 200 689 q 493 793 379 793 q 698 741 608 793 q 840 597 788 689 q 892 389 892 506 q 854 210 892 290 q 751 74 817 129 q 597 -1 685 19 q 730 -96 672 -61 q 835 -145 788 -131 q 928 -160 882 -160 q 979 -156 957 -160 q 1017 -147 1001 -153 l 1017 -169 q 940 -197 985 -186 q 843 -207 894 -207 m 517 56 q 704 138 636 56 q 772 354 772 219 q 735 547 772 464 q 630 677 697 631 q 475 724 563 724 q 286 643 356 724 q 217 428 217 563 q 255 233 217 317 q 360 102 293 149 q 517 56 428 56 z "},"r":{"ha":817,"x_min":90,"x_max":824,"o":"m 90 0 l 90 22 l 190 68 l 190 710 l 90 756 l 90 778 l 399 778 q 602 725 528 778 q 676 581 676 672 q 634 464 676 513 q 517 388 592 415 l 732 64 l 824 22 l 824 0 l 626 0 l 401 354 l 307 354 l 307 69 l 399 22 l 399 0 l 90 0 m 379 708 l 307 708 l 307 424 l 386 424 q 506 462 461 424 q 551 567 551 500 q 506 673 551 638 q 379 708 461 708 z "},"s":{"ha":682,"x_min":83,"x_max":606,"o":"m 332 -14 q 205 1 258 -14 q 96 43 151 17 l 83 231 l 106 231 l 171 106 q 253 63 211 75 q 340 51 296 51 q 462 84 419 51 q 504 183 504 117 q 478 260 504 233 q 401 310 451 288 q 276 368 350 333 q 151 453 189 410 q 113 572 113 496 q 147 681 113 631 q 238 762 182 731 q 363 793 294 793 q 468 778 419 793 q 564 742 517 764 l 574 561 l 551 561 l 499 675 q 435 715 465 703 q 364 728 404 728 q 255 693 294 728 q 215 601 215 658 q 233 539 215 564 q 290 492 251 514 q 389 442 328 471 q 515 373 468 404 q 584 303 563 342 q 606 204 606 264 q 570 91 606 140 q 473 14 535 42 q 332 -14 411 -14 z "},"t":{"ha":853,"x_min":63,"x_max":790,"o":"m 243 0 l 243 22 l 367 68 l 367 708 l 153 708 l 85 546 l 63 546 l 63 778 l 790 778 l 790 546 l 768 546 l 699 708 l 485 708 l 485 68 l 610 22 l 610 0 l 243 0 z "},"u":{"ha":1024,"x_min":90,"x_max":933,"o":"m 515 -14 q 349 17 422 -14 q 233 117 275 49 q 190 297 190 186 l 190 710 l 90 756 l 90 778 l 408 778 l 408 756 l 308 710 l 308 307 q 369 115 308 169 q 535 60 431 60 q 646 83 596 60 q 726 155 696 107 q 756 278 756 203 l 756 713 l 636 756 l 636 778 l 933 778 l 933 756 l 835 711 l 835 297 q 793 117 835 186 q 680 17 751 49 q 515 -14 608 -14 z "},"v":{"ha":904,"x_min":49,"x_max":856,"o":"m 431 -7 l 128 719 l 49 756 l 49 778 l 356 778 l 356 756 l 258 717 l 258 713 l 476 175 l 483 175 l 700 713 l 700 717 l 599 756 l 599 778 l 856 778 l 856 756 l 786 718 l 481 -7 l 431 -7 z "},"w":{"ha":1226,"x_min":21,"x_max":1206,"o":"m 336 -6 l 114 715 l 21 756 l 21 778 l 343 778 l 343 756 l 239 717 l 390 208 l 399 208 l 624 783 l 675 783 l 888 208 l 894 208 l 1036 714 l 932 756 l 932 778 l 1206 778 l 1206 756 l 1124 715 l 904 -6 l 846 -6 l 626 571 l 619 571 l 393 -6 l 336 -6 z "},"x":{"ha":943,"x_min":49,"x_max":894,"o":"m 49 0 l 49 22 l 149 65 l 406 393 l 160 718 l 68 756 l 68 778 l 397 778 l 397 756 l 301 711 l 301 706 l 486 464 l 665 706 l 665 710 l 575 756 l 575 778 l 856 778 l 856 756 l 769 715 l 528 410 l 789 67 l 894 22 l 894 0 l 561 0 l 561 22 l 650 64 l 650 69 l 449 338 l 250 71 l 250 67 l 347 22 l 347 0 l 49 0 z "},"y":{"ha":896,"x_min":49,"x_max":847,"o":"m 285 0 l 285 22 l 393 68 l 393 371 l 139 714 l 49 756 l 49 778 l 361 778 l 361 756 l 278 714 l 278 708 l 479 440 l 663 707 l 663 711 l 575 756 l 575 778 l 847 778 l 847 756 l 756 713 l 511 365 l 511 68 l 619 22 l 619 0 l 285 0 z "},"z":{"ha":840,"x_min":125,"x_max":715,"o":"m 125 0 l 125 28 l 544 708 l 228 708 l 161 558 l 139 558 l 139 778 l 701 778 l 701 750 l 281 69 l 624 69 l 693 232 l 715 232 l 715 0 l 125 0 z "},"à":{"ha":917,"x_min":46,"x_max":871,"o":"m 46 0 l 46 22 l 117 58 l 425 785 l 483 785 l 790 60 l 871 22 l 871 0 l 568 0 l 568 22 l 665 61 l 578 272 l 289 272 l 201 58 l 304 22 l 304 0 l 46 0 m 318 342 l 549 342 l 432 622 l 318 342 m 447 882 l 274 1040 q 237 1086 246 1065 q 228 1128 228 1107 l 342 1128 l 463 882 l 447 882 z "},"á":{"ha":917,"x_min":46,"x_max":871,"o":"m 46 0 l 46 22 l 117 58 l 425 785 l 483 785 l 790 60 l 871 22 l 871 0 l 568 0 l 568 22 l 665 61 l 578 272 l 289 272 l 201 58 l 304 22 l 304 0 l 46 0 m 318 342 l 549 342 l 432 622 l 318 342 m 454 882 l 575 1128 l 689 1128 q 680 1086 689 1107 q 643 1040 671 1065 l 469 882 l 454 882 z "},"â":{"ha":917,"x_min":46,"x_max":871,"o":"m 46 0 l 46 22 l 117 58 l 425 785 l 483 785 l 790 60 l 871 22 l 871 0 l 568 0 l 568 22 l 665 61 l 578 272 l 289 272 l 201 58 l 304 22 l 304 0 l 46 0 m 318 342 l 549 342 l 432 622 l 318 342 m 250 882 l 433 1128 l 475 1128 l 658 882 l 643 882 l 454 1014 l 265 882 l 250 882 z "},"ã":{"ha":917,"x_min":46,"x_max":871,"o":"m 46 0 l 46 22 l 117 58 l 425 785 l 483 785 l 790 60 l 871 22 l 871 0 l 568 0 l 568 22 l 665 61 l 578 272 l 289 272 l 201 58 l 304 22 l 304 0 l 46 0 m 318 342 l 549 342 l 432 622 l 318 342 m 243 918 q 288 1030 268 993 q 328 1078 307 1067 q 375 1090 349 1090 q 426 1076 401 1090 q 472 1045 450 1063 q 516 1014 494 1028 q 561 1000 538 1000 q 606 1019 588 1000 q 647 1090 625 1038 l 665 1090 q 621 978 640 1015 q 581 930 601 942 q 533 918 560 918 q 483 932 507 918 q 436 963 458 946 q 392 994 414 981 q 347 1008 371 1008 q 302 990 321 1008 q 261 918 283 971 l 243 918 z "},"ä":{"ha":917,"x_min":46,"x_max":871,"o":"m 46 0 l 46 22 l 117 58 l 425 785 l 483 785 l 790 60 l 871 22 l 871 0 l 568 0 l 568 22 l 665 61 l 578 272 l 289 272 l 201 58 l 304 22 l 304 0 l 46 0 m 318 342 l 549 342 l 432 622 l 318 342 m 326 935 q 278 954 297 935 q 258 1003 258 974 q 278 1051 258 1032 q 326 1071 297 1071 q 375 1051 356 1071 q 394 1003 394 1032 q 375 954 394 974 q 326 935 356 935 m 582 935 q 533 954 553 935 q 514 1003 514 974 q 533 1051 514 1032 q 582 1071 553 1071 q 631 1051 611 1071 q 650 1003 650 1032 q 631 954 650 974 q 582 935 611 935 z "},"ā":{"ha":917,"x_min":46,"x_max":871,"o":"m 46 0 l 46 22 l 117 58 l 425 785 l 483 785 l 790 60 l 871 22 l 871 0 l 568 0 l 568 22 l 665 61 l 578 272 l 289 272 l 201 58 l 304 22 l 304 0 l 46 0 m 318 342 l 549 342 l 432 622 l 318 342 m 269 968 l 269 1038 l 639 1038 l 639 968 l 269 968 z "},"ă":{"ha":917,"x_min":46,"x_max":871,"o":"m 46 0 l 46 22 l 117 58 l 425 785 l 483 785 l 790 60 l 871 22 l 871 0 l 568 0 l 568 22 l 665 61 l 578 272 l 289 272 l 201 58 l 304 22 l 304 0 l 46 0 m 318 342 l 549 342 l 432 622 l 318 342 m 454 896 q 322 953 365 896 q 251 1128 278 1011 l 267 1128 q 323 1035 296 1065 q 381 997 350 1006 q 454 989 413 989 q 526 997 496 989 q 585 1035 557 1006 q 642 1128 613 1065 l 657 1128 q 586 953 629 1011 q 454 896 543 896 z "},"å":{"ha":917,"x_min":46,"x_max":871,"o":"m 46 0 l 46 22 l 117 58 l 425 785 l 483 785 l 790 60 l 871 22 l 871 0 l 568 0 l 568 22 l 665 61 l 578 272 l 289 272 l 201 58 l 304 22 l 304 0 l 46 0 m 318 342 l 549 342 l 432 622 l 318 342 m 454 1119 q 541 1086 508 1119 q 574 1004 574 1053 q 541 922 574 954 q 454 889 508 889 q 368 922 401 889 q 335 1004 335 954 q 368 1086 335 1053 q 454 1119 401 1119 m 449 1086 q 415 1069 426 1086 q 404 1014 404 1053 q 461 922 404 922 q 507 994 507 922 q 449 1086 507 1086 z "},"ǻ":{"ha":917,"x_min":46,"x_max":871,"o":"m 46 0 l 46 22 l 117 58 l 425 785 l 483 785 l 790 60 l 871 22 l 871 0 l 568 0 l 568 22 l 665 61 l 578 272 l 289 272 l 201 58 l 304 22 l 304 0 l 46 0 m 318 342 l 549 342 l 432 622 l 318 342 m 454 1119 q 541 1086 508 1119 q 574 1004 574 1053 q 541 922 574 954 q 454 889 508 889 q 368 922 401 889 q 335 1004 335 954 q 368 1086 335 1053 q 454 1119 401 1119 m 449 1086 q 415 1069 426 1086 q 404 1014 404 1053 q 461 922 404 922 q 507 994 507 922 q 449 1086 507 1086 m 454 1192 l 575 1438 l 689 1438 q 680 1396 689 1417 q 643 1350 671 1375 l 469 1192 l 454 1192 z "},"ạ":{"ha":917,"x_min":46,"x_max":871,"o":"m 46 0 l 46 22 l 117 58 l 425 785 l 483 785 l 790 60 l 871 22 l 871 0 l 568 0 l 568 22 l 665 61 l 578 272 l 289 272 l 201 58 l 304 22 l 304 0 l 46 0 m 318 342 l 549 342 l 432 622 l 318 342 m 454 -294 q 395 -270 419 -294 q 371 -211 371 -246 q 395 -152 371 -176 q 454 -128 419 -128 q 513 -152 489 -128 q 538 -211 538 -176 q 513 -270 538 -246 q 454 -294 489 -294 z "},"ą":{"ha":917,"x_min":46,"x_max":871,"o":"m 46 0 l 46 22 l 117 58 l 425 785 l 483 785 l 790 60 l 871 22 l 871 0 l 767 0 q 718 -97 733 -53 q 703 -181 703 -140 q 726 -249 703 -228 q 793 -271 750 -271 q 826 -267 808 -271 q 863 -254 844 -264 l 867 -254 l 867 -271 q 818 -317 847 -300 q 749 -333 789 -333 q 650 -300 689 -333 q 611 -211 611 -267 q 644 -111 611 -161 q 731 0 678 -61 l 568 0 l 568 22 l 665 61 l 578 272 l 289 272 l 201 58 l 304 22 l 304 0 l 46 0 m 318 342 l 549 342 l 432 622 l 318 342 z "},"ȁ":{"ha":917,"x_min":46,"x_max":871,"o":"m 46 0 l 46 22 l 117 58 l 425 785 l 483 785 l 790 60 l 871 22 l 871 0 l 568 0 l 568 22 l 665 61 l 578 272 l 289 272 l 201 58 l 304 22 l 304 0 l 46 0 m 318 342 l 549 342 l 432 622 l 318 342 m 367 882 l 224 1040 q 201 1085 203 1063 q 207 1128 200 1107 l 294 1128 l 382 882 l 367 882 m 525 882 l 396 1040 q 374 1086 376 1065 q 379 1128 372 1107 l 467 1128 l 540 882 l 525 882 z "},"ȃ":{"ha":917,"x_min":46,"x_max":871,"o":"m 46 0 l 46 22 l 117 58 l 425 785 l 483 785 l 790 60 l 871 22 l 871 0 l 568 0 l 568 22 l 665 61 l 578 272 l 289 272 l 201 58 l 304 22 l 304 0 l 46 0 m 318 342 l 549 342 l 432 622 l 318 342 m 251 896 q 322 1070 279 1013 q 454 1128 365 1128 q 587 1070 543 1128 q 657 896 631 1013 l 642 896 q 585 989 613 960 q 527 1026 558 1018 q 454 1035 496 1035 q 382 1026 413 1035 q 324 989 351 1018 q 267 896 296 960 l 251 896 z "},"ắ":{"ha":917,"x_min":46,"x_max":871,"o":"m 46 0 l 46 22 l 117 58 l 425 785 l 483 785 l 790 60 l 871 22 l 871 0 l 568 0 l 568 22 l 665 61 l 578 272 l 289 272 l 201 58 l 304 22 l 304 0 l 46 0 m 318 342 l 549 342 l 432 622 l 318 342 z "},"ặ":{"ha":917,"x_min":46,"x_max":871,"o":"m 46 0 l 46 22 l 117 58 l 425 785 l 483 785 l 790 60 l 871 22 l 871 0 l 568 0 l 568 22 l 665 61 l 578 272 l 289 272 l 201 58 l 304 22 l 304 0 l 46 0 m 318 342 l 549 342 l 432 622 l 318 342 m 454 896 q 322 953 365 896 q 251 1128 278 1011 l 267 1128 q 323 1035 296 1065 q 381 997 350 1006 q 454 989 413 989 q 526 997 496 989 q 585 1035 557 1006 q 642 1128 613 1065 l 657 1128 q 586 953 629 1011 q 454 896 543 896 m 454 -294 q 395 -270 419 -294 q 371 -211 371 -246 q 395 -152 371 -176 q 454 -128 419 -128 q 513 -152 489 -128 q 538 -211 538 -176 q 513 -270 538 -246 q 454 -294 489 -294 z "},"ằ":{"ha":917,"x_min":46,"x_max":871,"o":"m 46 0 l 46 22 l 117 58 l 425 785 l 483 785 l 790 60 l 871 22 l 871 0 l 568 0 l 568 22 l 665 61 l 578 272 l 289 272 l 201 58 l 304 22 l 304 0 l 46 0 m 318 342 l 549 342 l 432 622 l 318 342 z "},"ẳ":{"ha":917,"x_min":46,"x_max":871,"o":"m 46 0 l 46 22 l 117 58 l 425 785 l 483 785 l 790 60 l 871 22 l 871 0 l 568 0 l 568 22 l 665 61 l 578 272 l 289 272 l 201 58 l 304 22 l 304 0 l 46 0 m 318 342 l 549 342 l 432 622 l 318 342 z "},"ẵ":{"ha":917,"x_min":46,"x_max":871,"o":"m 46 0 l 46 22 l 117 58 l 425 785 l 483 785 l 790 60 l 871 22 l 871 0 l 568 0 l 568 22 l 665 61 l 578 272 l 289 272 l 201 58 l 304 22 l 304 0 l 46 0 m 318 342 l 549 342 l 432 622 l 318 342 z "},"ấ":{"ha":917,"x_min":46,"x_max":871,"o":"m 46 0 l 46 22 l 117 58 l 425 785 l 483 785 l 790 60 l 871 22 l 871 0 l 568 0 l 568 22 l 665 61 l 578 272 l 289 272 l 201 58 l 304 22 l 304 0 l 46 0 m 318 342 l 549 342 l 432 622 l 318 342 m 604 1031 l 661 1229 l 768 1229 q 761 1199 768 1214 q 736 1164 754 1183 l 615 1031 l 604 1031 m 250 882 l 433 1128 l 475 1128 l 658 882 l 643 882 l 454 1014 l 265 882 l 250 882 z "},"ậ":{"ha":917,"x_min":46,"x_max":871,"o":"m 46 0 l 46 22 l 117 58 l 425 785 l 483 785 l 790 60 l 871 22 l 871 0 l 568 0 l 568 22 l 665 61 l 578 272 l 289 272 l 201 58 l 304 22 l 304 0 l 46 0 m 318 342 l 549 342 l 432 622 l 318 342 m 250 882 l 433 1128 l 475 1128 l 658 882 l 643 882 l 454 1014 l 265 882 l 250 882 m 454 -294 q 395 -270 419 -294 q 371 -211 371 -246 q 395 -152 371 -176 q 454 -128 419 -128 q 513 -152 489 -128 q 538 -211 538 -176 q 513 -270 538 -246 q 454 -294 489 -294 z "},"ầ":{"ha":917,"x_min":46,"x_max":871,"o":"m 46 0 l 46 22 l 117 58 l 425 785 l 483 785 l 790 60 l 871 22 l 871 0 l 568 0 l 568 22 l 665 61 l 578 272 l 289 272 l 201 58 l 304 22 l 304 0 l 46 0 m 318 342 l 549 342 l 432 622 l 318 342 m 293 1031 l 172 1164 q 147 1199 154 1183 q 140 1229 140 1214 l 247 1229 l 304 1031 l 293 1031 m 250 882 l 433 1128 l 475 1128 l 658 882 l 643 882 l 454 1014 l 265 882 l 250 882 z "},"ẩ":{"ha":917,"x_min":46,"x_max":871,"o":"m 46 0 l 46 22 l 117 58 l 425 785 l 483 785 l 790 60 l 871 22 l 871 0 l 568 0 l 568 22 l 665 61 l 578 272 l 289 272 l 201 58 l 304 22 l 304 0 l 46 0 m 318 342 l 549 342 l 432 622 l 318 342 z "},"ẫ":{"ha":917,"x_min":46,"x_max":871,"o":"m 46 0 l 46 22 l 117 58 l 425 785 l 483 785 l 790 60 l 871 22 l 871 0 l 568 0 l 568 22 l 665 61 l 578 272 l 289 272 l 201 58 l 304 22 l 304 0 l 46 0 m 318 342 l 549 342 l 432 622 l 318 342 z "},"ả":{"ha":917,"x_min":46,"x_max":871,"o":"m 46 0 l 46 22 l 117 58 l 425 785 l 483 785 l 790 60 l 871 22 l 871 0 l 568 0 l 568 22 l 665 61 l 578 272 l 289 272 l 201 58 l 304 22 l 304 0 l 46 0 m 318 342 l 549 342 l 432 622 l 318 342 m 388 897 l 388 899 q 458 933 433 915 q 483 983 483 950 q 459 1024 483 1007 q 375 1050 435 1040 l 390 1128 q 522 1085 485 1119 q 560 1015 560 1051 q 397 888 560 908 l 388 897 z "},"æ":{"ha":1188,"x_min":46,"x_max":1090,"o":"m 46 0 l 46 22 l 118 58 l 556 778 l 1056 778 l 1056 581 l 1033 581 l 967 708 l 679 708 l 679 438 l 889 438 l 931 532 l 953 532 l 953 275 l 931 275 l 889 368 l 679 368 l 679 69 l 999 69 l 1068 219 l 1090 219 l 1090 0 l 463 0 l 463 22 l 561 68 l 561 272 l 333 272 l 204 57 l 300 22 l 300 0 l 46 0 m 375 342 l 561 342 l 561 653 l 375 342 z "},"ǽ":{"ha":1188,"x_min":46,"x_max":1090,"o":"m 46 0 l 46 22 l 118 58 l 556 778 l 1056 778 l 1056 581 l 1033 581 l 967 708 l 679 708 l 679 438 l 889 438 l 931 532 l 953 532 l 953 275 l 931 275 l 889 368 l 679 368 l 679 69 l 999 69 l 1068 219 l 1090 219 l 1090 0 l 463 0 l 463 22 l 561 68 l 561 272 l 333 272 l 204 57 l 300 22 l 300 0 l 46 0 m 375 342 l 561 342 l 561 653 l 375 342 m 647 882 l 768 1128 l 882 1128 q 873 1086 882 1107 q 836 1040 864 1065 l 663 882 l 647 882 z "},"ć":{"ha":919,"x_min":97,"x_max":792,"o":"m 510 -14 q 297 36 390 -14 q 151 173 204 86 q 97 369 97 260 q 132 539 97 461 q 226 674 167 617 q 364 762 286 731 q 529 793 442 793 q 672 776 619 793 q 774 735 724 758 l 778 542 l 756 542 l 683 674 q 608 713 646 701 q 526 724 571 724 q 366 681 436 724 q 256 563 296 638 q 215 397 215 489 q 301 144 215 232 q 529 56 386 56 q 610 63 575 56 q 676 86 644 69 l 769 229 l 792 229 l 781 46 q 666 3 729 19 q 510 -14 603 -14 m 499 882 l 619 1128 l 733 1128 q 724 1086 733 1107 q 688 1040 715 1065 l 514 882 l 499 882 z "},"ĉ":{"ha":919,"x_min":97,"x_max":792,"o":"m 510 -14 q 297 36 390 -14 q 151 173 204 86 q 97 369 97 260 q 132 539 97 461 q 226 674 167 617 q 364 762 286 731 q 529 793 442 793 q 672 776 619 793 q 774 735 724 758 l 778 542 l 756 542 l 683 674 q 608 713 646 701 q 526 724 571 724 q 366 681 436 724 q 256 563 296 638 q 215 397 215 489 q 301 144 215 232 q 529 56 386 56 q 610 63 575 56 q 676 86 644 69 l 769 229 l 792 229 l 781 46 q 666 3 729 19 q 510 -14 603 -14 m 294 882 l 478 1128 l 519 1128 l 703 882 l 688 882 l 499 1014 l 310 882 l 294 882 z "},"č":{"ha":919,"x_min":97,"x_max":792,"o":"m 510 -14 q 297 36 390 -14 q 151 173 204 86 q 97 369 97 260 q 132 539 97 461 q 226 674 167 617 q 364 762 286 731 q 529 793 442 793 q 672 776 619 793 q 774 735 724 758 l 778 542 l 756 542 l 683 674 q 608 713 646 701 q 526 724 571 724 q 366 681 436 724 q 256 563 296 638 q 215 397 215 489 q 301 144 215 232 q 529 56 386 56 q 610 63 575 56 q 676 86 644 69 l 769 229 l 792 229 l 781 46 q 666 3 729 19 q 510 -14 603 -14 m 478 882 l 294 1128 l 310 1128 l 499 996 l 688 1128 l 703 1128 l 519 882 l 478 882 z "},"ċ":{"ha":919,"x_min":97,"x_max":792,"o":"m 510 -14 q 297 36 390 -14 q 151 173 204 86 q 97 369 97 260 q 132 539 97 461 q 226 674 167 617 q 364 762 286 731 q 529 793 442 793 q 672 776 619 793 q 774 735 724 758 l 778 542 l 756 542 l 683 674 q 608 713 646 701 q 526 724 571 724 q 366 681 436 724 q 256 563 296 638 q 215 397 215 489 q 301 144 215 232 q 529 56 386 56 q 610 63 575 56 q 676 86 644 69 l 769 229 l 792 229 l 781 46 q 666 3 729 19 q 510 -14 603 -14 m 499 921 q 440 945 464 921 q 415 1004 415 969 q 440 1063 415 1039 q 499 1088 464 1088 q 558 1063 533 1088 q 582 1004 582 1039 q 558 945 582 969 q 499 921 533 921 z "},"ç":{"ha":919,"x_min":97,"x_max":792,"o":"m 510 -333 q 394 -292 431 -333 l 394 -275 l 399 -275 q 438 -287 417 -283 q 486 -292 458 -292 q 544 -276 528 -292 q 561 -237 561 -260 q 532 -188 561 -207 q 421 -143 503 -169 l 481 -12 q 283 44 369 -7 q 147 180 196 96 q 97 369 97 264 q 132 539 97 461 q 226 674 167 617 q 364 762 286 731 q 529 793 442 793 q 672 776 619 793 q 774 735 724 758 l 778 542 l 756 542 l 683 674 q 608 713 646 701 q 526 724 571 724 q 366 681 436 724 q 256 563 296 638 q 215 397 215 489 q 301 144 215 232 q 529 56 386 56 q 610 63 575 56 q 676 86 644 69 l 769 229 l 792 229 l 781 46 q 674 4 732 21 q 529 -14 615 -12 l 501 -76 q 613 -131 581 -101 q 644 -215 644 -160 q 610 -299 644 -265 q 510 -333 575 -333 z "},"ḉ":{"ha":919,"x_min":97,"x_max":792,"o":"m 499 882 l 619 1128 l 733 1128 q 724 1086 733 1107 q 688 1040 715 1065 l 514 882 l 499 882 m 510 -333 q 394 -292 431 -333 l 394 -275 l 399 -275 q 438 -287 417 -283 q 486 -292 458 -292 q 544 -276 528 -292 q 561 -237 561 -260 q 532 -188 561 -207 q 421 -143 503 -169 l 481 -12 q 283 44 369 -7 q 147 180 196 96 q 97 369 97 264 q 132 539 97 461 q 226 674 167 617 q 364 762 286 731 q 529 793 442 793 q 672 776 619 793 q 774 735 724 758 l 778 542 l 756 542 l 683 674 q 608 713 646 701 q 526 724 571 724 q 366 681 436 724 q 256 563 296 638 q 215 397 215 489 q 301 144 215 232 q 529 56 386 56 q 610 63 575 56 q 676 86 644 69 l 769 229 l 792 229 l 781 46 q 674 4 732 21 q 529 -14 615 -12 l 501 -76 q 613 -131 581 -101 q 644 -215 644 -160 q 610 -299 644 -265 q 510 -333 575 -333 z "},"ď":{"ha":956,"x_min":90,"x_max":858,"o":"m 90 0 l 90 22 l 190 68 l 190 710 l 90 756 l 90 778 l 425 778 q 660 733 564 778 q 808 609 757 689 q 858 424 858 529 q 806 199 858 294 q 653 52 753 104 q 417 0 554 0 l 90 0 m 407 708 l 308 708 l 308 69 l 415 69 q 653 158 571 69 q 736 393 736 247 q 651 628 736 547 q 407 708 567 708 m 460 882 l 276 1128 l 292 1128 l 481 996 l 669 1128 l 685 1128 l 501 882 l 460 882 z "},"đ":{"ha":956,"x_min":90,"x_max":858,"o":"m 90 0 l 90 22 l 190 68 l 190 374 l 96 374 l 96 433 l 190 433 l 190 710 l 90 756 l 90 778 l 425 778 q 660 733 564 778 q 808 609 757 689 q 858 424 858 529 q 806 199 858 294 q 653 52 753 104 q 417 0 554 0 l 90 0 m 511 374 l 308 374 l 308 69 l 415 69 q 653 158 571 69 q 736 393 736 247 q 651 628 736 547 q 407 708 567 708 l 308 708 l 308 433 l 511 433 l 511 374 z "},"ḍ":{"ha":956,"x_min":90,"x_max":858,"o":"m 90 0 l 90 22 l 190 68 l 190 710 l 90 756 l 90 778 l 425 778 q 660 733 564 778 q 808 609 757 689 q 858 424 858 529 q 806 199 858 294 q 653 52 753 104 q 417 0 554 0 l 90 0 m 407 708 l 308 708 l 308 69 l 415 69 q 653 158 571 69 q 736 393 736 247 q 651 628 736 547 q 407 708 567 708 m 481 -294 q 422 -270 446 -294 q 397 -211 397 -246 q 422 -152 397 -176 q 481 -128 446 -128 q 540 -152 515 -128 q 564 -211 564 -176 q 540 -270 564 -246 q 481 -294 515 -294 z "},"ḏ":{"ha":956,"x_min":90,"x_max":858,"o":"m 90 0 l 90 22 l 190 68 l 190 710 l 90 756 l 90 778 l 425 778 q 660 733 564 778 q 808 609 757 689 q 858 424 858 529 q 806 199 858 294 q 653 52 753 104 q 417 0 554 0 l 90 0 m 407 708 l 308 708 l 308 69 l 415 69 q 653 158 571 69 q 736 393 736 247 q 651 628 736 547 q 407 708 567 708 m 296 -242 l 296 -172 l 665 -172 l 665 -242 l 296 -242 z "},"è":{"ha":815,"x_min":90,"x_max":718,"o":"m 90 0 l 90 22 l 189 68 l 189 710 l 90 756 l 90 778 l 683 778 l 683 581 l 661 581 l 594 708 l 307 708 l 307 438 l 517 438 l 558 532 l 581 532 l 581 275 l 558 275 l 517 368 l 307 368 l 307 69 l 626 69 l 696 219 l 718 219 l 718 0 l 90 0 m 411 882 l 238 1040 q 201 1086 210 1065 q 192 1128 192 1107 l 306 1128 l 426 882 l 411 882 z "},"é":{"ha":815,"x_min":90,"x_max":718,"o":"m 90 0 l 90 22 l 189 68 l 189 710 l 90 756 l 90 778 l 683 778 l 683 581 l 661 581 l 594 708 l 307 708 l 307 438 l 517 438 l 558 532 l 581 532 l 581 275 l 558 275 l 517 368 l 307 368 l 307 69 l 626 69 l 696 219 l 718 219 l 718 0 l 90 0 m 418 882 l 539 1128 l 653 1128 q 644 1086 653 1107 q 607 1040 635 1065 l 433 882 l 418 882 z "},"ê":{"ha":815,"x_min":90,"x_max":718,"o":"m 90 0 l 90 22 l 189 68 l 189 710 l 90 756 l 90 778 l 683 778 l 683 581 l 661 581 l 594 708 l 307 708 l 307 438 l 517 438 l 558 532 l 581 532 l 581 275 l 558 275 l 517 368 l 307 368 l 307 69 l 626 69 l 696 219 l 718 219 l 718 0 l 90 0 m 214 882 l 397 1128 l 439 1128 l 622 882 l 607 882 l 418 1014 l 229 882 l 214 882 z "},"ě":{"ha":815,"x_min":90,"x_max":718,"o":"m 90 0 l 90 22 l 189 68 l 189 710 l 90 756 l 90 778 l 683 778 l 683 581 l 661 581 l 594 708 l 307 708 l 307 438 l 517 438 l 558 532 l 581 532 l 581 275 l 558 275 l 517 368 l 307 368 l 307 69 l 626 69 l 696 219 l 718 219 l 718 0 l 90 0 m 397 882 l 214 1128 l 229 1128 l 418 996 l 607 1128 l 622 1128 l 439 882 l 397 882 z "},"ẽ":{"ha":815,"x_min":90,"x_max":718,"o":"m 90 0 l 90 22 l 189 68 l 189 710 l 90 756 l 90 778 l 683 778 l 683 581 l 661 581 l 594 708 l 307 708 l 307 438 l 517 438 l 558 532 l 581 532 l 581 275 l 558 275 l 517 368 l 307 368 l 307 69 l 626 69 l 696 219 l 718 219 l 718 0 l 90 0 m 207 918 q 251 1030 232 993 q 292 1078 271 1067 q 339 1090 313 1090 q 390 1076 365 1090 q 436 1045 414 1063 q 480 1014 458 1028 q 525 1000 501 1000 q 570 1019 551 1000 q 611 1090 589 1038 l 629 1090 q 585 978 604 1015 q 544 930 565 942 q 497 918 524 918 q 447 932 471 918 q 400 963 422 946 q 356 994 378 981 q 311 1008 335 1008 q 266 990 285 1008 q 225 918 247 971 l 207 918 z "},"ë":{"ha":815,"x_min":90,"x_max":718,"o":"m 90 0 l 90 22 l 189 68 l 189 710 l 90 756 l 90 778 l 683 778 l 683 581 l 661 581 l 594 708 l 307 708 l 307 438 l 517 438 l 558 532 l 581 532 l 581 275 l 558 275 l 517 368 l 307 368 l 307 69 l 626 69 l 696 219 l 718 219 l 718 0 l 90 0 m 290 935 q 242 954 261 935 q 222 1003 222 974 q 242 1051 222 1032 q 290 1071 261 1071 q 339 1051 319 1071 q 358 1003 358 1032 q 339 954 358 974 q 290 935 319 935 m 546 935 q 497 954 517 935 q 478 1003 478 974 q 497 1051 478 1032 q 546 1071 517 1071 q 594 1051 575 1071 q 614 1003 614 1032 q 594 954 614 974 q 546 935 575 935 z "},"ē":{"ha":815,"x_min":90,"x_max":718,"o":"m 90 0 l 90 22 l 189 68 l 189 710 l 90 756 l 90 778 l 683 778 l 683 581 l 661 581 l 594 708 l 307 708 l 307 438 l 517 438 l 558 532 l 581 532 l 581 275 l 558 275 l 517 368 l 307 368 l 307 69 l 626 69 l 696 219 l 718 219 l 718 0 l 90 0 m 233 968 l 233 1038 l 603 1038 l 603 968 l 233 968 z "},"ĕ":{"ha":815,"x_min":90,"x_max":718,"o":"m 90 0 l 90 22 l 189 68 l 189 710 l 90 756 l 90 778 l 683 778 l 683 581 l 661 581 l 594 708 l 307 708 l 307 438 l 517 438 l 558 532 l 581 532 l 581 275 l 558 275 l 517 368 l 307 368 l 307 69 l 626 69 l 696 219 l 718 219 l 718 0 l 90 0 m 418 896 q 285 953 329 896 q 215 1128 242 1011 l 231 1128 q 287 1035 260 1065 q 345 997 314 1006 q 418 989 376 989 q 490 997 460 989 q 549 1035 521 1006 q 606 1128 576 1065 l 621 1128 q 550 953 593 1011 q 418 896 507 896 z "},"ė":{"ha":815,"x_min":90,"x_max":718,"o":"m 90 0 l 90 22 l 189 68 l 189 710 l 90 756 l 90 778 l 683 778 l 683 581 l 661 581 l 594 708 l 307 708 l 307 438 l 517 438 l 558 532 l 581 532 l 581 275 l 558 275 l 517 368 l 307 368 l 307 69 l 626 69 l 696 219 l 718 219 l 718 0 l 90 0 m 418 921 q 359 945 383 921 q 335 1004 335 969 q 359 1063 335 1039 q 418 1088 383 1088 q 477 1063 453 1088 q 501 1004 501 1039 q 477 945 501 969 q 418 921 453 921 z "},"ę":{"ha":815,"x_min":90,"x_max":718,"o":"m 90 0 l 90 22 l 189 68 l 189 710 l 90 756 l 90 778 l 683 778 l 683 581 l 661 581 l 594 708 l 307 708 l 307 438 l 517 438 l 558 532 l 581 532 l 581 275 l 558 275 l 517 368 l 307 368 l 307 69 l 626 69 l 696 219 l 718 219 l 718 0 l 617 0 q 568 -97 583 -53 q 553 -181 553 -140 q 576 -249 553 -228 q 643 -271 600 -271 q 676 -267 658 -271 q 713 -254 694 -264 l 717 -254 l 717 -271 q 668 -317 697 -300 q 599 -333 639 -333 q 500 -300 539 -333 q 461 -211 461 -267 q 494 -111 461 -161 q 581 0 528 -61 l 90 0 z "},"ẹ":{"ha":815,"x_min":90,"x_max":718,"o":"m 90 0 l 90 22 l 189 68 l 189 710 l 90 756 l 90 778 l 683 778 l 683 581 l 661 581 l 594 708 l 307 708 l 307 438 l 517 438 l 558 532 l 581 532 l 581 275 l 558 275 l 517 368 l 307 368 l 307 69 l 626 69 l 696 219 l 718 219 l 718 0 l 90 0 m 436 -294 q 377 -270 401 -294 q 353 -211 353 -246 q 377 -152 353 -176 q 436 -128 401 -128 q 495 -152 471 -128 q 519 -211 519 -176 q 495 -270 519 -246 q 436 -294 471 -294 z "},"ȅ":{"ha":815,"x_min":90,"x_max":718,"o":"m 90 0 l 90 22 l 189 68 l 189 710 l 90 756 l 90 778 l 683 778 l 683 581 l 661 581 l 594 708 l 307 708 l 307 438 l 517 438 l 558 532 l 581 532 l 581 275 l 558 275 l 517 368 l 307 368 l 307 69 l 626 69 l 696 219 l 718 219 l 718 0 l 90 0 m 331 882 l 188 1040 q 165 1085 167 1063 q 171 1128 164 1107 l 258 1128 l 346 882 l 331 882 m 489 882 l 360 1040 q 338 1086 340 1065 q 343 1128 336 1107 l 431 1128 l 504 882 l 489 882 z "},"ȇ":{"ha":815,"x_min":90,"x_max":718,"o":"m 90 0 l 90 22 l 189 68 l 189 710 l 90 756 l 90 778 l 683 778 l 683 581 l 661 581 l 594 708 l 307 708 l 307 438 l 517 438 l 558 532 l 581 532 l 581 275 l 558 275 l 517 368 l 307 368 l 307 69 l 626 69 l 696 219 l 718 219 l 718 0 l 90 0 m 215 896 q 286 1070 243 1013 q 418 1128 329 1128 q 551 1070 507 1128 q 621 896 594 1013 l 606 896 q 549 989 576 960 q 491 1026 522 1018 q 418 1035 460 1035 q 346 1026 376 1035 q 288 989 315 1018 q 231 896 260 960 l 215 896 z "},"ế":{"ha":815,"x_min":90,"x_max":732,"o":"m 90 0 l 90 22 l 189 68 l 189 710 l 90 756 l 90 778 l 683 778 l 683 581 l 661 581 l 594 708 l 307 708 l 307 438 l 517 438 l 558 532 l 581 532 l 581 275 l 558 275 l 517 368 l 307 368 l 307 69 l 626 69 l 696 219 l 718 219 l 718 0 l 90 0 m 568 1031 l 625 1229 l 732 1229 q 725 1199 732 1214 q 700 1164 718 1183 l 579 1031 l 568 1031 m 214 882 l 397 1128 l 439 1128 l 622 882 l 607 882 l 418 1014 l 229 882 l 214 882 z "},"ệ":{"ha":815,"x_min":90,"x_max":718,"o":"m 90 0 l 90 22 l 189 68 l 189 710 l 90 756 l 90 778 l 683 778 l 683 581 l 661 581 l 594 708 l 307 708 l 307 438 l 517 438 l 558 532 l 581 532 l 581 275 l 558 275 l 517 368 l 307 368 l 307 69 l 626 69 l 696 219 l 718 219 l 718 0 l 90 0 m 214 882 l 397 1128 l 439 1128 l 622 882 l 607 882 l 418 1014 l 229 882 l 214 882 m 436 -294 q 377 -270 401 -294 q 353 -211 353 -246 q 377 -152 353 -176 q 436 -128 401 -128 q 495 -152 471 -128 q 519 -211 519 -176 q 495 -270 519 -246 q 436 -294 471 -294 z "},"ề":{"ha":815,"x_min":90,"x_max":718,"o":"m 90 0 l 90 22 l 189 68 l 189 710 l 90 756 l 90 778 l 683 778 l 683 581 l 661 581 l 594 708 l 307 708 l 307 438 l 517 438 l 558 532 l 581 532 l 581 275 l 558 275 l 517 368 l 307 368 l 307 69 l 626 69 l 696 219 l 718 219 l 718 0 l 90 0 m 257 1031 l 136 1164 q 111 1199 118 1183 q 104 1229 104 1214 l 211 1229 l 268 1031 l 257 1031 m 214 882 l 397 1128 l 439 1128 l 622 882 l 607 882 l 418 1014 l 229 882 l 214 882 z "},"ể":{"ha":815,"x_min":90,"x_max":718,"o":"m 90 0 l 90 22 l 189 68 l 189 710 l 90 756 l 90 778 l 683 778 l 683 581 l 661 581 l 594 708 l 307 708 l 307 438 l 517 438 l 558 532 l 581 532 l 581 275 l 558 275 l 517 368 l 307 368 l 307 69 l 626 69 l 696 219 l 718 219 l 718 0 l 90 0 z "},"ễ":{"ha":815,"x_min":90,"x_max":718,"o":"m 90 0 l 90 22 l 189 68 l 189 710 l 90 756 l 90 778 l 683 778 l 683 581 l 661 581 l 594 708 l 307 708 l 307 438 l 517 438 l 558 532 l 581 532 l 581 275 l 558 275 l 517 368 l 307 368 l 307 69 l 626 69 l 696 219 l 718 219 l 718 0 l 90 0 z "},"ẻ":{"ha":815,"x_min":90,"x_max":718,"o":"m 90 0 l 90 22 l 189 68 l 189 710 l 90 756 l 90 778 l 683 778 l 683 581 l 661 581 l 594 708 l 307 708 l 307 438 l 517 438 l 558 532 l 581 532 l 581 275 l 558 275 l 517 368 l 307 368 l 307 69 l 626 69 l 696 219 l 718 219 l 718 0 l 90 0 m 351 897 l 351 899 q 422 933 397 915 q 447 983 447 950 q 423 1024 447 1007 q 339 1050 399 1040 l 354 1128 q 486 1085 449 1119 q 524 1015 524 1051 q 361 888 524 908 l 351 897 z "},"ḕ":{"ha":815,"x_min":90,"x_max":718,"o":"m 90 0 l 90 22 l 189 68 l 189 710 l 90 756 l 90 778 l 683 778 l 683 581 l 661 581 l 594 708 l 307 708 l 307 438 l 517 438 l 558 532 l 581 532 l 581 275 l 558 275 l 517 368 l 307 368 l 307 69 l 626 69 l 696 219 l 718 219 l 718 0 l 90 0 z "},"ḗ":{"ha":815,"x_min":90,"x_max":718,"o":"m 90 0 l 90 22 l 189 68 l 189 710 l 90 756 l 90 778 l 683 778 l 683 581 l 661 581 l 594 708 l 307 708 l 307 438 l 517 438 l 558 532 l 581 532 l 581 275 l 558 275 l 517 368 l 307 368 l 307 69 l 626 69 l 696 219 l 718 219 l 718 0 l 90 0 z "},"ḝ":{"ha":815,"x_min":90,"x_max":718,"o":"m 418 896 q 285 953 328 896 q 215 1128 242 1011 l 231 1128 q 287 1035 260 1064 q 346 997 314 1006 q 418 989 378 989 q 490 997 458 989 q 548 1035 521 1006 q 606 1128 575 1064 l 621 1128 q 551 953 594 1011 q 418 896 508 896 m 90 0 l 90 22 l 189 68 l 189 710 l 90 756 l 90 778 l 683 778 l 683 581 l 661 581 l 594 708 l 307 708 l 307 438 l 517 438 l 558 532 l 581 532 l 581 275 l 558 275 l 517 368 l 307 368 l 307 69 l 626 69 l 696 219 l 718 219 l 718 0 l 463 0 l 428 -76 q 539 -131 507 -101 q 571 -215 571 -160 q 536 -299 571 -265 q 436 -333 501 -333 q 321 -292 357 -333 l 321 -275 l 325 -275 q 365 -287 344 -283 q 413 -292 385 -292 q 471 -276 454 -292 q 488 -237 488 -260 q 458 -188 488 -207 q 347 -143 429 -169 l 414 0 l 90 0 z "},"ĝ":{"ha":951,"x_min":97,"x_max":882,"o":"m 501 -14 q 294 35 385 -14 q 150 171 203 85 q 97 367 97 257 q 131 535 97 458 q 222 670 164 613 q 358 760 281 728 q 522 792 435 792 q 671 776 617 792 q 776 735 725 760 l 783 538 l 764 538 l 686 671 q 601 719 636 706 q 519 732 565 732 q 357 692 428 732 q 245 583 286 653 q 204 426 204 514 q 248 226 204 308 q 365 99 292 143 q 529 56 439 56 q 612 61 572 56 q 693 85 651 67 l 693 278 l 586 325 l 586 344 l 882 344 l 882 325 l 800 274 l 800 86 q 713 33 764 56 q 607 -1 663 11 q 501 -14 551 -14 m 288 882 l 471 1128 l 513 1128 l 696 882 l 681 882 l 492 1014 l 303 882 l 288 882 z "},"ğ":{"ha":951,"x_min":97,"x_max":882,"o":"m 501 -14 q 294 35 385 -14 q 150 171 203 85 q 97 367 97 257 q 131 535 97 458 q 222 670 164 613 q 358 760 281 728 q 522 792 435 792 q 671 776 617 792 q 776 735 725 760 l 783 538 l 764 538 l 686 671 q 601 719 636 706 q 519 732 565 732 q 357 692 428 732 q 245 583 286 653 q 204 426 204 514 q 248 226 204 308 q 365 99 292 143 q 529 56 439 56 q 612 61 572 56 q 693 85 651 67 l 693 278 l 586 325 l 586 344 l 882 344 l 882 325 l 800 274 l 800 86 q 713 33 764 56 q 607 -1 663 11 q 501 -14 551 -14 m 492 896 q 359 953 403 896 q 289 1128 315 1011 l 304 1128 q 360 1035 333 1065 q 419 997 388 1006 q 492 989 450 989 q 564 997 533 989 q 622 1035 594 1006 q 679 1128 650 1065 l 694 1128 q 624 953 667 1011 q 492 896 581 896 z "},"ġ":{"ha":951,"x_min":97,"x_max":882,"o":"m 501 -14 q 294 35 385 -14 q 150 171 203 85 q 97 367 97 257 q 131 535 97 458 q 222 670 164 613 q 358 760 281 728 q 522 792 435 792 q 671 776 617 792 q 776 735 725 760 l 783 538 l 764 538 l 686 671 q 601 719 636 706 q 519 732 565 732 q 357 692 428 732 q 245 583 286 653 q 204 426 204 514 q 248 226 204 308 q 365 99 292 143 q 529 56 439 56 q 612 61 572 56 q 693 85 651 67 l 693 278 l 586 325 l 586 344 l 882 344 l 882 325 l 800 274 l 800 86 q 713 33 764 56 q 607 -1 663 11 q 501 -14 551 -14 m 492 921 q 433 945 457 921 q 408 1004 408 969 q 433 1063 408 1039 q 492 1088 457 1088 q 551 1063 526 1088 q 575 1004 575 1039 q 551 945 575 969 q 492 921 526 921 z "},"ģ":{"ha":951,"x_min":97,"x_max":882,"o":"m 501 -14 q 294 35 385 -14 q 150 171 203 85 q 97 367 97 257 q 131 535 97 458 q 222 670 164 613 q 358 760 281 728 q 522 792 435 792 q 671 776 617 792 q 776 735 725 760 l 783 538 l 764 538 l 686 671 q 601 719 636 706 q 519 732 565 732 q 357 692 428 732 q 245 583 286 653 q 204 426 204 514 q 248 226 204 308 q 365 99 292 143 q 529 56 439 56 q 612 61 572 56 q 693 85 651 67 l 693 278 l 586 325 l 586 344 l 882 344 l 882 325 l 800 274 l 800 86 q 713 33 764 56 q 607 -1 663 11 q 501 -14 551 -14 m 519 893 q 379 1001 379 893 q 422 1087 379 1057 q 532 1117 465 1117 q 553 1116 542 1117 q 574 1113 565 1115 l 574 1092 q 540 1096 557 1096 q 481 1083 503 1096 q 460 1042 460 1069 q 488 995 460 1007 q 575 983 515 983 l 575 922 q 563 901 575 910 q 519 893 550 893 z "},"ǧ":{"ha":951,"x_min":97,"x_max":882,"o":"m 501 -14 q 294 35 385 -14 q 150 171 203 85 q 97 367 97 257 q 131 535 97 458 q 222 670 164 613 q 358 760 281 728 q 522 792 435 792 q 671 776 617 792 q 776 735 725 760 l 783 538 l 764 538 l 686 671 q 601 719 636 706 q 519 732 565 732 q 357 692 428 732 q 245 583 286 653 q 204 426 204 514 q 248 226 204 308 q 365 99 292 143 q 529 56 439 56 q 612 61 572 56 q 693 85 651 67 l 693 278 l 586 325 l 586 344 l 882 344 l 882 325 l 800 274 l 800 86 q 713 33 764 56 q 607 -1 663 11 q 501 -14 551 -14 m 471 882 l 288 1128 l 303 1128 l 492 996 l 681 1128 l 696 1128 l 513 882 l 471 882 z "},"ḡ":{"ha":951,"x_min":97,"x_max":882,"o":"m 501 -14 q 294 35 385 -14 q 150 171 203 85 q 97 367 97 257 q 131 535 97 458 q 222 670 164 613 q 358 760 281 728 q 522 792 435 792 q 671 776 617 792 q 776 735 725 760 l 783 538 l 764 538 l 686 671 q 601 719 636 706 q 519 732 565 732 q 357 692 428 732 q 245 583 286 653 q 204 426 204 514 q 248 226 204 308 q 365 99 292 143 q 529 56 439 56 q 612 61 572 56 q 693 85 651 67 l 693 278 l 586 325 l 586 344 l 882 344 l 882 325 l 800 274 l 800 86 q 713 33 764 56 q 607 -1 663 11 q 501 -14 551 -14 m 307 968 l 307 1038 l 676 1038 l 676 968 l 307 968 z "},"ĥ":{"ha":1028,"x_min":90,"x_max":938,"o":"m 90 0 l 90 22 l 189 68 l 189 710 l 90 756 l 90 778 l 410 778 l 410 756 l 307 710 l 307 438 l 722 438 l 722 710 l 619 756 l 619 778 l 938 778 l 938 756 l 840 710 l 840 68 l 938 22 l 938 0 l 619 0 l 619 22 l 722 68 l 722 368 l 307 368 l 307 68 l 410 22 l 410 0 l 90 0 m 311 882 l 494 1128 l 536 1128 l 719 882 l 704 882 l 515 1014 l 326 882 l 311 882 z "},"ħ":{"ha":1028,"x_min":90,"x_max":938,"o":"m 90 0 l 90 22 l 189 68 l 189 554 l 90 554 l 90 614 l 189 614 l 189 710 l 90 756 l 90 778 l 410 778 l 410 756 l 307 710 l 307 614 l 722 614 l 722 710 l 619 756 l 619 778 l 938 778 l 938 756 l 840 710 l 840 614 l 938 614 l 938 554 l 840 554 l 840 68 l 938 22 l 938 0 l 619 0 l 619 22 l 722 68 l 722 368 l 307 368 l 307 68 l 410 22 l 410 0 l 90 0 m 307 438 l 722 438 l 722 554 l 307 554 l 307 438 z "},"ḥ":{"ha":1028,"x_min":90,"x_max":938,"o":"m 90 0 l 90 22 l 189 68 l 189 710 l 90 756 l 90 778 l 410 778 l 410 756 l 307 710 l 307 438 l 722 438 l 722 710 l 619 756 l 619 778 l 938 778 l 938 756 l 840 710 l 840 68 l 938 22 l 938 0 l 619 0 l 619 22 l 722 68 l 722 368 l 307 368 l 307 68 l 410 22 l 410 0 l 90 0 m 515 -294 q 456 -270 481 -294 q 432 -211 432 -246 q 456 -152 432 -176 q 515 -128 481 -128 q 574 -152 550 -128 q 599 -211 599 -176 q 574 -270 599 -246 q 515 -294 550 -294 z "},"ḫ":{"ha":1028,"x_min":90,"x_max":938,"o":"m 90 0 l 90 22 l 189 68 l 189 710 l 90 756 l 90 778 l 410 778 l 410 756 l 307 710 l 307 438 l 722 438 l 722 710 l 619 756 l 619 778 l 938 778 l 938 756 l 840 710 l 840 68 l 938 22 l 938 0 l 619 0 l 619 22 l 722 68 l 722 368 l 307 368 l 307 68 l 410 22 l 410 0 l 90 0 m 515 -333 q 383 -276 426 -333 q 313 -101 339 -218 l 328 -101 q 384 -194 357 -164 q 442 -232 411 -224 q 515 -240 474 -240 q 588 -232 557 -240 q 646 -194 618 -224 q 703 -101 674 -164 l 718 -101 q 647 -276 690 -218 q 515 -333 604 -333 z "},"ì":{"ha":499,"x_min":24,"x_max":401,"o":"m 97 0 l 97 22 l 189 68 l 189 710 l 97 756 l 97 778 l 401 778 l 401 756 l 307 710 l 307 68 l 401 22 l 401 0 l 97 0 m 243 882 l 69 1040 q 33 1086 42 1065 q 24 1128 24 1107 l 138 1128 l 258 882 l 243 882 z "},"í":{"ha":499,"x_min":97,"x_max":485,"o":"m 97 0 l 97 22 l 189 68 l 189 710 l 97 756 l 97 778 l 401 778 l 401 756 l 307 710 l 307 68 l 401 22 l 401 0 l 97 0 m 250 882 l 371 1128 l 485 1128 q 476 1086 485 1107 q 439 1040 467 1065 l 265 882 l 250 882 z "},"î":{"ha":499,"x_min":46,"x_max":454,"o":"m 97 0 l 97 22 l 189 68 l 189 710 l 97 756 l 97 778 l 401 778 l 401 756 l 307 710 l 307 68 l 401 22 l 401 0 l 97 0 m 46 882 l 229 1128 l 271 1128 l 454 882 l 439 882 l 250 1014 l 61 882 l 46 882 z "},"ĩ":{"ha":499,"x_min":39,"x_max":461,"o":"m 97 0 l 97 22 l 189 68 l 189 710 l 97 756 l 97 778 l 401 778 l 401 756 l 307 710 l 307 68 l 401 22 l 401 0 l 97 0 m 39 918 q 83 1030 64 993 q 124 1078 103 1067 q 171 1090 144 1090 q 222 1076 197 1090 q 268 1045 246 1063 q 312 1014 290 1028 q 357 1000 333 1000 q 402 1019 383 1000 q 443 1090 421 1038 l 461 1090 q 417 978 436 1015 q 376 930 397 942 q 329 918 356 918 q 278 932 303 918 q 232 963 254 946 q 188 994 210 981 q 143 1008 167 1008 q 98 990 117 1008 q 57 918 79 971 l 39 918 z "},"ï":{"ha":499,"x_min":54,"x_max":446,"o":"m 97 0 l 97 22 l 189 68 l 189 710 l 97 756 l 97 778 l 401 778 l 401 756 l 307 710 l 307 68 l 401 22 l 401 0 l 97 0 m 122 935 q 74 954 93 935 q 54 1003 54 974 q 74 1051 54 1032 q 122 1071 93 1071 q 171 1051 151 1071 q 190 1003 190 1032 q 171 954 190 974 q 122 935 151 935 m 378 935 q 329 954 349 935 q 310 1003 310 974 q 329 1051 310 1032 q 378 1071 349 1071 q 426 1051 407 1071 q 446 1003 446 1032 q 426 954 446 974 q 378 935 407 935 z "},"ī":{"ha":499,"x_min":65,"x_max":435,"o":"m 97 0 l 97 22 l 189 68 l 189 710 l 97 756 l 97 778 l 401 778 l 401 756 l 307 710 l 307 68 l 401 22 l 401 0 l 97 0 m 65 968 l 65 1038 l 435 1038 l 435 968 l 65 968 z "},"ĭ":{"ha":499,"x_min":47,"x_max":453,"o":"m 97 0 l 97 22 l 189 68 l 189 710 l 97 756 l 97 778 l 401 778 l 401 756 l 307 710 l 307 68 l 401 22 l 401 0 l 97 0 m 250 896 q 117 953 161 896 q 47 1128 74 1011 l 63 1128 q 119 1035 92 1065 q 177 997 146 1006 q 250 989 208 989 q 322 997 292 989 q 381 1035 353 1006 q 438 1128 408 1065 l 453 1128 q 382 953 425 1011 q 250 896 339 896 z "},"į":{"ha":499,"x_min":97,"x_max":401,"o":"m 97 0 l 97 22 l 189 68 l 189 710 l 97 756 l 97 778 l 401 778 l 401 756 l 307 710 l 307 68 l 401 22 l 401 0 l 276 0 q 228 -97 243 -53 q 213 -181 213 -140 q 236 -249 213 -228 q 303 -271 260 -271 q 335 -267 318 -271 q 372 -254 353 -264 l 376 -254 l 376 -271 q 328 -317 358 -300 q 258 -333 299 -333 q 159 -300 197 -333 q 121 -211 121 -267 q 154 -111 121 -161 q 240 0 188 -61 l 97 0 z "},"ị":{"ha":499,"x_min":97,"x_max":401,"o":"m 97 0 l 97 22 l 189 68 l 189 710 l 97 756 l 97 778 l 401 778 l 401 756 l 307 710 l 307 68 l 401 22 l 401 0 l 97 0 m 250 -294 q 191 -270 215 -294 q 167 -211 167 -246 q 191 -152 167 -176 q 250 -128 215 -128 q 309 -152 285 -128 q 333 -211 333 -176 q 309 -270 333 -246 q 250 -294 285 -294 z "},"ȉ":{"ha":499,"x_min":-4,"x_max":401,"o":"m 97 0 l 97 22 l 189 68 l 189 710 l 97 756 l 97 778 l 401 778 l 401 756 l 307 710 l 307 68 l 401 22 l 401 0 l 97 0 m 163 882 l 19 1040 q -3 1085 -1 1063 q 3 1128 -4 1107 l 90 1128 l 178 882 l 163 882 m 321 882 l 192 1040 q 170 1086 172 1065 q 175 1128 168 1107 l 263 1128 l 336 882 l 321 882 z "},"ȋ":{"ha":499,"x_min":47,"x_max":453,"o":"m 97 0 l 97 22 l 189 68 l 189 710 l 97 756 l 97 778 l 401 778 l 401 756 l 307 710 l 307 68 l 401 22 l 401 0 l 97 0 m 47 896 q 118 1070 75 1013 q 250 1128 161 1128 q 383 1070 339 1128 q 453 896 426 1013 l 438 896 q 381 989 408 960 q 323 1026 354 1018 q 250 1035 292 1035 q 178 1026 208 1035 q 119 989 147 1018 q 63 896 92 960 l 47 896 z "},"ỉ":{"ha":499,"x_min":97,"x_max":401,"o":"m 97 0 l 97 22 l 189 68 l 189 710 l 97 756 l 97 778 l 401 778 l 401 756 l 307 710 l 307 68 l 401 22 l 401 0 l 97 0 m 183 897 l 183 899 q 254 933 229 915 q 279 983 279 950 q 255 1024 279 1007 q 171 1050 231 1040 l 186 1128 q 318 1085 281 1119 q 356 1015 356 1051 q 193 888 356 908 l 183 897 z "},"ḯ":{"ha":499,"x_min":54,"x_max":475,"o":"m 97 0 l 97 22 l 189 68 l 189 710 l 97 756 l 97 778 l 401 778 l 401 756 l 307 710 l 307 68 l 401 22 l 401 0 l 97 0 z "},"ĳ":{"ha":989,"x_min":97,"x_max":892,"o":"m 97 0 l 97 22 l 189 68 l 189 710 l 97 756 l 97 778 l 401 778 l 401 756 l 307 710 l 307 68 l 401 22 l 401 0 l 97 0 m 561 -204 q 531 -197 544 -204 q 517 -167 517 -189 q 520 -148 517 -164 q 529 -101 524 -132 l 538 -101 q 568 -110 557 -107 q 594 -112 579 -112 q 640 -99 621 -112 q 668 -46 658 -86 q 678 72 678 -6 l 678 710 l 582 757 l 582 778 l 892 778 l 892 757 l 796 710 l 796 261 q 767 22 796 117 q 696 -118 739 -72 q 624 -185 651 -167 q 561 -204 596 -204 z "},"ĵ":{"ha":490,"x_min":18,"x_max":428,"o":"m 63 -204 q 32 -197 46 -204 q 18 -167 18 -189 q 22 -148 18 -164 q 31 -101 25 -132 l 39 -101 q 69 -110 58 -107 q 96 -112 81 -112 q 141 -99 122 -112 q 169 -46 160 -86 q 179 72 179 -6 l 179 710 l 83 757 l 83 778 l 393 778 l 393 757 l 297 710 l 297 261 q 269 22 297 117 q 197 -118 240 -72 q 125 -185 153 -167 q 63 -204 97 -204 m 19 882 l 203 1128 l 244 1128 l 428 882 l 413 882 l 224 1014 l 35 882 l 19 882 z "},"ķ":{"ha":943,"x_min":90,"x_max":894,"o":"m 90 0 l 90 22 l 190 68 l 190 710 l 90 756 l 90 778 l 407 778 l 407 756 l 308 710 l 308 68 l 407 22 l 407 0 l 90 0 m 699 0 l 308 397 l 631 717 l 544 756 l 544 778 l 821 778 l 821 756 l 740 725 l 431 428 l 796 60 l 894 22 l 894 0 l 699 0 m 432 -332 q 410 -331 422 -332 q 389 -328 397 -331 l 389 -307 q 407 -310 397 -308 q 424 -311 417 -311 q 483 -298 461 -311 q 504 -257 504 -285 q 476 -210 504 -222 q 388 -199 447 -199 l 388 -137 q 400 -117 388 -125 q 444 -108 413 -108 q 585 -217 585 -108 q 542 -302 585 -272 q 432 -332 499 -332 z "},"ĺ":{"ha":810,"x_min":90,"x_max":713,"o":"m 90 0 l 90 22 l 189 68 l 189 710 l 90 756 l 90 778 l 419 778 l 419 756 l 307 710 l 307 69 l 608 69 l 690 267 l 713 267 l 713 0 l 90 0 m 246 882 l 367 1128 l 481 1128 q 472 1086 481 1107 q 435 1040 463 1065 l 261 882 l 246 882 z "},"ľ":{"ha":810,"x_min":90,"x_max":713,"o":"m 90 0 l 90 22 l 189 68 l 189 710 l 90 756 l 90 778 l 419 778 l 419 756 l 307 710 l 307 69 l 608 69 l 690 267 l 713 267 l 713 0 l 90 0 m 526 518 l 556 778 l 660 778 q 663 738 664 758 q 644 688 663 717 l 542 518 l 526 518 z "},"ļ":{"ha":810,"x_min":90,"x_max":713,"o":"m 90 0 l 90 22 l 189 68 l 189 710 l 90 756 l 90 778 l 419 778 l 419 756 l 307 710 l 307 69 l 608 69 l 690 267 l 713 267 l 713 0 l 90 0 m 400 -332 q 378 -331 390 -332 q 357 -328 365 -331 l 357 -307 q 375 -310 365 -308 q 392 -311 385 -311 q 451 -298 429 -311 q 472 -257 472 -285 q 444 -210 472 -222 q 356 -199 415 -199 l 356 -137 q 368 -117 356 -125 q 413 -108 381 -108 q 553 -217 553 -108 q 510 -302 553 -272 q 400 -332 467 -332 z "},"ł":{"ha":810,"x_min":90,"x_max":713,"o":"m 90 0 l 90 22 l 189 68 l 189 292 l 90 225 l 90 297 l 189 364 l 189 710 l 90 756 l 90 778 l 419 778 l 419 756 l 307 710 l 307 426 l 481 542 l 481 469 l 307 354 l 307 69 l 608 69 l 690 267 l 713 267 l 713 0 l 90 0 z "},"ŀ":{"ha":810,"x_min":90,"x_max":729,"o":"m 90 0 l 90 22 l 189 68 l 189 710 l 90 756 l 90 778 l 419 778 l 419 756 l 307 710 l 307 69 l 608 69 l 690 267 l 713 267 l 713 0 l 90 0 m 646 321 q 587 345 611 321 q 563 404 563 369 q 587 463 563 439 q 646 488 611 488 q 705 463 681 488 q 729 404 729 439 q 705 345 729 369 q 646 321 681 321 z "},"ḷ":{"ha":810,"x_min":90,"x_max":713,"o":"m 90 0 l 90 22 l 189 68 l 189 710 l 90 756 l 90 778 l 419 778 l 419 756 l 307 710 l 307 69 l 608 69 l 690 267 l 713 267 l 713 0 l 90 0 m 451 -294 q 392 -270 417 -294 q 368 -211 368 -246 q 392 -152 368 -176 q 451 -128 417 -128 q 510 -152 486 -128 q 535 -211 535 -176 q 510 -270 535 -246 q 451 -294 486 -294 z "},"ḻ":{"ha":810,"x_min":90,"x_max":713,"o":"m 90 0 l 90 22 l 189 68 l 189 710 l 90 756 l 90 778 l 419 778 l 419 756 l 307 710 l 307 69 l 608 69 l 690 267 l 713 267 l 713 0 l 90 0 m 267 -242 l 267 -172 l 636 -172 l 636 -242 l 267 -242 z "},"ṃ":{"ha":1214,"x_min":83,"x_max":1131,"o":"m 83 0 l 83 22 l 182 68 l 208 710 l 101 756 l 101 778 l 350 778 l 614 189 l 889 778 l 1125 778 l 1125 756 l 1022 717 l 1042 68 l 1131 22 l 1131 0 l 829 0 l 829 22 l 921 67 l 908 647 l 604 -6 l 568 -6 l 278 647 l 264 67 l 365 22 l 365 0 l 83 0 m 586 -294 q 527 -270 551 -294 q 503 -211 503 -246 q 527 -152 503 -176 q 586 -128 551 -128 q 645 -152 621 -128 q 669 -211 669 -176 q 645 -270 669 -246 q 586 -294 621 -294 z "},"ń":{"ha":1006,"x_min":83,"x_max":922,"o":"m 83 0 l 83 22 l 182 68 l 182 711 l 83 756 l 83 778 l 278 778 l 749 207 l 749 711 l 631 756 l 631 778 l 922 778 l 922 756 l 825 711 l 825 -6 l 771 -6 l 258 611 l 258 72 l 378 22 l 378 0 l 83 0 m 517 882 l 638 1128 l 751 1128 q 742 1086 751 1107 q 706 1040 733 1065 l 532 882 l 517 882 z "},"ň":{"ha":1006,"x_min":83,"x_max":922,"o":"m 83 0 l 83 22 l 182 68 l 182 711 l 83 756 l 83 778 l 278 778 l 749 207 l 749 711 l 631 756 l 631 778 l 922 778 l 922 756 l 825 711 l 825 -6 l 771 -6 l 258 611 l 258 72 l 378 22 l 378 0 l 83 0 m 496 882 l 313 1128 l 328 1128 l 517 996 l 706 1128 l 721 1128 l 538 882 l 496 882 z "},"ñ":{"ha":1006,"x_min":83,"x_max":922,"o":"m 83 0 l 83 22 l 182 68 l 182 711 l 83 756 l 83 778 l 278 778 l 749 207 l 749 711 l 631 756 l 631 778 l 922 778 l 922 756 l 825 711 l 825 -6 l 771 -6 l 258 611 l 258 72 l 378 22 l 378 0 l 83 0 m 306 918 q 350 1030 331 993 q 390 1078 369 1067 q 438 1090 411 1090 q 488 1076 464 1090 q 535 1045 513 1063 q 578 1014 557 1028 q 624 1000 600 1000 q 669 1019 650 1000 q 710 1090 688 1038 l 728 1090 q 683 978 703 1015 q 643 930 664 942 q 596 918 622 918 q 545 932 569 918 q 499 963 521 946 q 455 994 476 981 q 410 1008 433 1008 q 365 990 383 1008 q 324 918 346 971 l 306 918 z "},"ņ":{"ha":1006,"x_min":83,"x_max":922,"o":"m 83 0 l 83 22 l 182 68 l 182 711 l 83 756 l 83 778 l 278 778 l 749 207 l 749 711 l 631 756 l 631 778 l 922 778 l 922 756 l 825 711 l 825 -6 l 771 -6 l 258 611 l 258 72 l 378 22 l 378 0 l 83 0 m 478 -332 q 456 -331 468 -332 q 435 -328 443 -331 l 435 -307 q 453 -310 443 -308 q 469 -311 463 -311 q 528 -298 507 -311 q 550 -257 550 -285 q 522 -210 550 -222 q 433 -199 493 -199 l 433 -137 q 446 -117 433 -125 q 490 -108 458 -108 q 631 -217 631 -108 q 588 -302 631 -272 q 478 -332 544 -332 z "},"ṅ":{"ha":1006,"x_min":83,"x_max":922,"o":"m 83 0 l 83 22 l 182 68 l 182 711 l 83 756 l 83 778 l 278 778 l 749 207 l 749 711 l 631 756 l 631 778 l 922 778 l 922 756 l 825 711 l 825 -6 l 771 -6 l 258 611 l 258 72 l 378 22 l 378 0 l 83 0 m 517 921 q 458 945 482 921 q 433 1004 433 969 q 458 1063 433 1039 q 517 1088 482 1088 q 576 1063 551 1088 q 600 1004 600 1039 q 576 945 600 969 q 517 921 551 921 z "},"ṇ":{"ha":1006,"x_min":83,"x_max":922,"o":"m 83 0 l 83 22 l 182 68 l 182 711 l 83 756 l 83 778 l 278 778 l 749 207 l 749 711 l 631 756 l 631 778 l 922 778 l 922 756 l 825 711 l 825 -6 l 771 -6 l 258 611 l 258 72 l 378 22 l 378 0 l 83 0 m 529 -294 q 470 -270 494 -294 q 446 -211 446 -246 q 470 -152 446 -176 q 529 -128 494 -128 q 588 -152 564 -128 q 613 -211 613 -176 q 588 -270 613 -246 q 529 -294 564 -294 z "},"ṉ":{"ha":1006,"x_min":83,"x_max":922,"o":"m 83 0 l 83 22 l 182 68 l 182 711 l 83 756 l 83 778 l 278 778 l 749 207 l 749 711 l 631 756 l 631 778 l 922 778 l 922 756 l 825 711 l 825 -6 l 771 -6 l 258 611 l 258 72 l 378 22 l 378 0 l 83 0 m 344 -242 l 344 -172 l 714 -172 l 714 -242 l 344 -242 z "},"ò":{"ha":989,"x_min":97,"x_max":892,"o":"m 493 -14 q 290 38 379 -14 q 149 181 200 90 q 97 389 97 272 q 149 597 97 506 q 290 741 200 689 q 493 793 379 793 q 698 741 608 793 q 840 597 788 689 q 892 389 892 506 q 840 181 892 272 q 698 38 788 90 q 493 -14 608 -14 m 517 56 q 704 138 636 56 q 772 354 772 219 q 735 547 772 464 q 630 677 697 631 q 475 724 563 724 q 286 643 356 724 q 217 428 217 563 q 255 233 217 317 q 360 102 293 149 q 517 56 428 56 m 474 882 l 300 1040 q 263 1086 272 1065 q 254 1128 254 1107 l 368 1128 l 489 882 l 474 882 z "},"ó":{"ha":989,"x_min":97,"x_max":892,"o":"m 493 -14 q 290 38 379 -14 q 149 181 200 90 q 97 389 97 272 q 149 597 97 506 q 290 741 200 689 q 493 793 379 793 q 698 741 608 793 q 840 597 788 689 q 892 389 892 506 q 840 181 892 272 q 698 38 788 90 q 493 -14 608 -14 m 517 56 q 704 138 636 56 q 772 354 772 219 q 735 547 772 464 q 630 677 697 631 q 475 724 563 724 q 286 643 356 724 q 217 428 217 563 q 255 233 217 317 q 360 102 293 149 q 517 56 428 56 m 481 882 l 601 1128 l 715 1128 q 706 1086 715 1107 q 669 1040 697 1065 l 496 882 l 481 882 z "},"ô":{"ha":989,"x_min":97,"x_max":892,"o":"m 493 -14 q 290 38 379 -14 q 149 181 200 90 q 97 389 97 272 q 149 597 97 506 q 290 741 200 689 q 493 793 379 793 q 698 741 608 793 q 840 597 788 689 q 892 389 892 506 q 840 181 892 272 q 698 38 788 90 q 493 -14 608 -14 m 517 56 q 704 138 636 56 q 772 354 772 219 q 735 547 772 464 q 630 677 697 631 q 475 724 563 724 q 286 643 356 724 q 217 428 217 563 q 255 233 217 317 q 360 102 293 149 q 517 56 428 56 m 276 882 l 460 1128 l 501 1128 l 685 882 l 669 882 l 481 1014 l 292 882 l 276 882 z "},"õ":{"ha":989,"x_min":97,"x_max":892,"o":"m 493 -14 q 290 38 379 -14 q 149 181 200 90 q 97 389 97 272 q 149 597 97 506 q 290 741 200 689 q 493 793 379 793 q 698 741 608 793 q 840 597 788 689 q 892 389 892 506 q 840 181 892 272 q 698 38 788 90 q 493 -14 608 -14 m 517 56 q 704 138 636 56 q 772 354 772 219 q 735 547 772 464 q 630 677 697 631 q 475 724 563 724 q 286 643 356 724 q 217 428 217 563 q 255 233 217 317 q 360 102 293 149 q 517 56 428 56 m 269 918 q 314 1030 294 993 q 354 1078 333 1067 q 401 1090 375 1090 q 452 1076 428 1090 q 499 1045 476 1063 q 542 1014 521 1028 q 588 1000 564 1000 q 633 1019 614 1000 q 674 1090 651 1038 l 692 1090 q 647 978 667 1015 q 607 930 628 942 q 560 918 586 918 q 509 932 533 918 q 463 963 485 946 q 419 994 440 981 q 374 1008 397 1008 q 328 990 347 1008 q 288 918 310 971 l 269 918 z "},"ö":{"ha":989,"x_min":97,"x_max":892,"o":"m 493 -14 q 290 38 379 -14 q 149 181 200 90 q 97 389 97 272 q 149 597 97 506 q 290 741 200 689 q 493 793 379 793 q 698 741 608 793 q 840 597 788 689 q 892 389 892 506 q 840 181 892 272 q 698 38 788 90 q 493 -14 608 -14 m 517 56 q 704 138 636 56 q 772 354 772 219 q 735 547 772 464 q 630 677 697 631 q 475 724 563 724 q 286 643 356 724 q 217 428 217 563 q 255 233 217 317 q 360 102 293 149 q 517 56 428 56 m 353 935 q 304 954 324 935 q 285 1003 285 974 q 304 1051 285 1032 q 353 1071 324 1071 q 401 1051 382 1071 q 421 1003 421 1032 q 401 954 421 974 q 353 935 382 935 m 608 935 q 560 954 579 935 q 540 1003 540 974 q 560 1051 540 1032 q 608 1071 579 1071 q 657 1051 638 1071 q 676 1003 676 1032 q 657 954 676 974 q 608 935 638 935 z "}}}
